<?xml version="1.0" encoding="utf-8"?>
<!-- Generator: Adobe Illustrator 24.0.3, SVG Export Plug-In . SVG Version: 6.00 Build 0)  -->
<svg version="1.1" id="圖層_1" xmlns="http://www.w3.org/2000/svg" xmlns:xlink="http://www.w3.org/1999/xlink" x="0px" y="0px"
	 viewBox="0 0 768 120" style="enable-background:new 0 0 768 120;" xml:space="preserve">
<style type="text/css">
	.st0{fill:#818181;}
</style>
<path class="st0" d="M257.2,40.2v-2.1h-15.6c0.5-1,1-2,1.4-3.1l-1.3-0.4c1-0.3,2.1-0.7,3.1-1c3.3,1.2,6.3,2.5,8.4,3.6l1.7-1.7
	c-1.9-1-4.4-2-7.2-3c2.3-1,4.5-2.2,6.2-3.4l-1.9-1.3c-1.9,1.4-4.4,2.6-7.2,3.7c-3.4-1.2-7-2.2-10.2-3.1l-1.6,1.4
	c2.7,0.7,5.8,1.7,8.7,2.7c-3.4,1.1-7.1,2-10.7,2.6c0.5,0.5,1.2,1.4,1.6,1.9c2.5-0.5,5.2-1.2,7.8-2c-0.4,1-0.8,2.1-1.4,3.1h-9.2v2.1
	h8c-2.2,3.2-5.1,6-8.6,7.9c0.5,0.4,1.2,1.2,1.5,1.7c1.6-0.9,3.1-2,4.5-3.2v8h2.3v-8.5h6.1v10.3h2.2V46.1h6.7v5.7
	c0,0.4-0.2,0.5-0.6,0.5c-0.4,0-2,0-3.7,0c0.3,0.6,0.6,1.4,0.7,2c2.3,0,3.8,0,4.7-0.3c0.9-0.4,1.2-0.9,1.2-2.2v-7.8h-9V41h-2.2v3.1
	h-5.9c1-1.2,2-2.5,2.8-3.9H257.2z M285.9,30.8l-0.1,2.2h-6.5c0.1-0.7,0.1-1.4,0.2-2.2H285.9z M278.7,36.8c0.2-0.7,0.3-1.4,0.4-2.2
	h6.6c-0.1,0.8-0.1,1.6-0.2,2.2H278.7z M285.4,38.4c-0.2,1.4-0.3,2.1-0.6,2.4c-0.2,0.3-0.5,0.4-0.9,0.4c-0.5,0-1.6,0-2.8-0.1
	c0.3,0.5,0.5,1.3,0.5,1.8c1.3,0.1,2.5,0.1,3.2,0c0.8-0.1,1.4-0.3,1.8-0.8c0.8-1,1.1-3.8,1.4-12.1c0-0.3,0-1,0-1h-10.7
	c-0.2,6.1-0.6,10.6-4.1,13.1c0.5,0.3,1.1,1,1.4,1.5c1.8-1.3,3-3.1,3.7-5.2H285.4z M262.8,38.4c0,2.4,0.7,3.3,3.2,3.3h5.3
	c1,0,2.1,0,2.6-0.2c-0.1-0.5-0.2-1.4-0.2-2c-0.6,0.1-1.7,0.2-2.4,0.2H266c-0.8,0-1.1-0.3-1.1-1.3v-5.2h10.4v-2h-6.3V28h-2.2v3.2
	h-6.4v2h2.3V38.4z M275.9,53.7V51h9.2v-1.9h-9.2v-2.7h10.7v-2h-23.5v2h10.5v2.7h-9.1V51h9.1v2.7h-12.5v2h27.5v-2H275.9z M316.6,41.5
	c2.5,0,3.2-1,3.5-4.8c-0.7-0.2-1.6-0.5-2.1-0.9c-0.1,3.1-0.3,3.6-1.5,3.6h-5c-1.4,0-1.7-0.2-1.7-1.2v-3.2c3-0.9,6.3-2,8.8-3.2
	l-1.6-1.7c-1.8,0.9-4.6,2.1-7.2,2.9V28h-2.3v10.3c0,2.6,0.8,3.2,3.7,3.2H316.6z M295.8,48.3v-2.9h6.6v2.9H295.8z M302.4,40.9v2.7
	h-6.6v-2.7H302.4z M304.6,39h-11v17.4h2.2V50h6.6v3.7c0,0.4-0.1,0.5-0.5,0.5c-0.4,0-1.7,0.1-3.2,0c0.3,0.6,0.6,1.5,0.7,2.1
	c2,0,3.3,0,4.2-0.4c0.8-0.4,1.1-1,1.1-2.2V39z M300.8,30.9c0.7,1,1.4,2.1,2.1,3.2l-6.4,0.3c1-1.8,2-4,2.8-5.9l-2.3-0.6
	c-0.7,1.9-1.8,4.6-2.9,6.5c-0.9,0-1.7,0.1-2.4,0.1l0.2,2.2c3.2-0.2,7.7-0.4,12-0.7c0.3,0.7,0.6,1.3,0.8,1.8l2-0.9
	c-0.7-1.9-2.4-4.8-4.1-6.9L300.8,30.9z M311.6,54.1c-1.5,0-1.7-0.2-1.7-1.2v-3.6c3.2-0.9,6.7-2.1,9.1-3.5l-1.5-1.7
	c-1.8,1.2-4.7,2.4-7.6,3.3v-4.9h-2.3v10.5c0,2.6,0.8,3.2,3.8,3.2h5.6c2.6,0,3.3-1.1,3.6-5.3c-0.7-0.1-1.6-0.5-2.1-0.9
	c-0.2,3.5-0.4,4.1-1.7,4.1H311.6z M335.3,42.1h-3.9c0.5-0.7,0.9-1.5,1.3-2.2l-2-0.4c2.2-2,4.1-4.6,5.1-7.9l-1.3-0.7l-0.4,0.1h-4.5
	c0.6-0.8,1-1.7,1.5-2.6l-2.1-0.4c-1,2.4-3.2,5.2-6.2,7.3c0.5,0.3,1.1,1,1.4,1.5c1.6-1.2,2.9-2.5,4-3.8h4.8c-0.7,1.6-1.7,3-2.9,4.3
	c-0.8-0.7-1.8-1.5-2.7-2l-1.5,1.1c0.9,0.6,2,1.5,2.7,2.2c-1.7,1.4-3.5,2.4-5.4,3.1c0.4,0.4,0.9,1.2,1.1,1.7c2.2-0.9,4.2-2.1,6.1-3.8
	c-1.3,2.6-3.8,5.6-7.7,7.7c0.4,0.3,1.1,1.1,1.3,1.6c2.3-1.4,4.1-3,5.6-4.7h4.5c-0.7,1.9-1.7,3.5-2.8,4.9c-0.8-0.8-1.9-1.6-2.9-2.2
	l-1.5,1.2c1.1,0.7,2.2,1.7,3,2.5c-2,1.9-4.6,3.3-7.2,4.1c0.4,0.4,0.9,1.3,1.1,1.9c5.8-2,10.9-6.2,12.9-13.8l-1.3-0.7L335.3,42.1z
	 M344,40v7.1h-3.5V40H344z M345.9,49v-11h-7.4v13.3h1.9V49H345.9z M341,32.5c0.5-1.3,1-2.6,1.3-4l-2.1-0.5c-1.1,4.1-3,8-5.3,10.5
	c0.5,0.3,1.4,1.1,1.7,1.4c1.2-1.4,2.4-3.3,3.4-5.4h8.3c-0.2,13.1-0.6,17.8-1.3,18.8c-0.3,0.4-0.5,0.5-1,0.5c-0.6,0-2,0-3.6-0.1
	c0.4,0.6,0.6,1.6,0.7,2.2c1.4,0.1,2.8,0.1,3.7,0c0.9-0.1,1.6-0.4,2.2-1.2c1-1.4,1.2-6.2,1.5-21c0-0.3,0-1.2,0-1.2H341z M376.1,43
	h-13v-3.2h13V43z M363.1,48.3V45h13v3.3H363.1z M382,34.1v-2.2h-15.9c0.5-1.1,0.8-2.3,1.2-3.5l-2.3-0.6c-0.4,1.3-0.8,2.7-1.4,4h-8.8
	v2.2h7.8c-2,4.1-4.8,7.9-8.6,10.4c0.5,0.4,1.2,1.3,1.5,1.8c2-1.4,3.7-3.1,5.2-4.9v15h2.3v-6.1h13v3.2c0,0.5-0.2,0.6-0.7,0.7
	c-0.6,0-2.4,0-4.5-0.1c0.3,0.7,0.7,1.6,0.7,2.3c2.7,0,4.4,0,5.4-0.4c1-0.4,1.3-1.1,1.3-2.5V37.7h-15c0.7-1.2,1.3-2.4,1.9-3.6H382z
	 M385.5,40.6v2.5h28.3v-2.5H385.5z M422.7,28.1c-1.6,4.7-4.1,9.4-6.8,12.4c0.4,0.6,1,1.8,1.2,2.3c1.1-1.2,2.1-2.6,3-4.1v17.7h2.2
	V34.7c1-1.9,1.8-4,2.5-6.1L422.7,28.1z M437.6,48.2h-5.3v-4.8h5.3V48.2z M440.7,38.2v-1.8h-4.8v-3.5H434v3.5h-4.7v1.8h4.7v3.4h-3.4
	v8.3h8.9v-8.3h-3.6v-3.4H440.7z M428,52.5V31.9h13.7v20.6H428z M425.9,29.8v26.6h2.2v-1.8h13.7v1.6h2.2V29.8H425.9z M451.5,32.9
	h21.1v4h2.4v-6.1h-11.9V28h-2.3v2.7h-11.6v6.1h2.3V32.9z M472.8,39c-1.5,1.3-3.7,2.9-5.6,4.1c-0.8-1.6-1.5-3.4-2-5.2h5.5v-2h-17.4v2
	h6.6c-2.9,1.9-7.1,3.4-10.8,4.3c0.4,0.4,1,1.4,1.3,1.8c2.5-0.7,5.2-1.7,7.6-3c0.5,0.5,1,0.9,1.4,1.4c-2.4,1.8-6.8,3.9-10.1,4.8
	c0.4,0.5,1,1.3,1.2,1.8c3.2-1.2,7.3-3.3,10-5.2c0.4,0.7,0.8,1.3,1.1,2c-3.1,2.9-8.7,5.8-13.4,7.1c0.4,0.5,0.9,1.4,1.2,1.9
	c4.3-1.4,9.5-4.2,12.9-7c0.6,2.7,0.1,4.9-1,5.8c-0.6,0.5-1.3,0.6-2.2,0.6c-0.7,0-1.7,0-2.9-0.2c0.4,0.6,0.6,1.6,0.7,2.2
	c1,0.1,2,0.1,2.7,0.1c1.4,0,2.3-0.2,3.3-1c3.1-2.1,3-10.1-3-15.3c1.2-0.7,2.2-1.4,3.2-2.2h0.1c1.9,7.4,5.6,13.3,11.5,16
	c0.4-0.6,1.1-1.5,1.6-2c-3.4-1.3-6-3.8-8-7c2.1-1.2,4.6-2.8,6.5-4.4L472.8,39z M482.5,57.4c3.3-1.2,5.4-3.7,5.4-7.1
	c0-2.2-0.9-3.6-2.7-3.6c-1.3,0-2.4,0.8-2.4,2.2c0,1.5,1.1,2.2,2.3,2.2c0.2,0,0.3,0,0.5,0c-0.2,2.1-1.5,3.6-3.9,4.6L482.5,57.4z
	 M229.5,77v2.5h28.3V77H229.5z M266.7,64.5c-1.6,4.7-4.1,9.4-6.8,12.4c0.4,0.6,1,1.8,1.2,2.3c1.1-1.2,2.1-2.6,3-4.1v17.7h2.2V71.1
	c1-1.9,1.8-4,2.5-6.1L266.7,64.5z M281.6,84.6h-5.3v-4.8h5.3V84.6z M284.7,74.6v-1.8h-4.8v-3.5H278v3.5h-4.7v1.8h4.7V78h-3.4v8.3
	h8.9V78h-3.6v-3.4H284.7z M272,88.9V68.3h13.7v20.6H272z M269.9,66.2v26.6h2.2v-1.8h13.7v1.6h2.2V66.2H269.9z M312.6,84.3v2.1h-12.9
	v-2.1H312.6z M299.6,90.2V88h12.9v2.2H299.6z M297.4,92.8h2.2v-1h12.9v0.9h2.3V82.6h-17.5V92.8z M310.4,79.5
	c0.6-0.9,1.4-2.3,2.1-3.7l-2-0.6c-0.4,1.1-1.2,2.7-1.8,3.7L310.4,79.5z M299.4,75.8c0.8,1.2,1.5,2.7,1.7,3.7l1.8-0.7
	c-0.3-1-1.1-2.4-1.9-3.5L299.4,75.8z M297.6,74.9h7.4v4.6h-7.4V74.9z M314.5,79.6h-7.7v-4.6h7.7V79.6z M295.6,81.2h21.1v-7.9h-21.1
	V81.2z M301,70c1.9-1.2,3.6-2.5,4.8-3.8c1.3,1.3,3.1,2.6,5.1,3.8H301z M304.6,64.3c-2.6,3-7.8,6.2-13.1,8c0.4,0.4,1,1.3,1.2,1.8
	c2.7-1,5.5-2.4,7.8-3.9v1.4h10.8v-1.3c2.5,1.5,5.2,2.7,7.7,3.6c0.3-0.6,0.9-1.4,1.4-1.9c-4.8-1.4-10.2-4.2-13.7-7.6H304.6z
	 M332.3,72.9c-0.4,4.1-1.2,7.5-2.4,10.3c-1.2-0.8-2.4-1.6-3.6-2.3c0.6-2.5,1.3-5.2,1.9-8H332.3z M333.3,70.7l-0.4,0.1h-4.2
	c0.5-2.2,0.9-4.2,1.3-6.1l-2.2-0.2c-0.3,1.9-0.8,4.1-1.3,6.4H323v2.1h3c-0.9,3.9-1.8,7.7-2.6,10.4l1.9,1l0.3-1.3
	c1.1,0.7,2.2,1.4,3.2,2.2c-1.5,2.7-3.4,4.6-5.6,5.8c0.5,0.5,1.1,1.3,1.4,1.9c2.4-1.5,4.4-3.5,6-6.3c1.3,1.1,2.4,2.2,3.2,3.1l1.4-1.8
	c-0.8-1-2.1-2.2-3.6-3.3c1.5-3.5,2.5-8,2.9-13.6L333.3,70.7z M351.5,76.8h-7.4v-2.8c2.4-1.8,5-4.6,6.8-7.1l-1.5-1.1l-0.5,0.2h-13.4
	v2.1h11.7c-1.2,1.6-2.9,3.4-4.5,4.6h-0.9v4.1h-7.3V79h7.3v10.9c0,0.5-0.2,0.6-0.7,0.7c-0.5,0-2.3,0-4.2,0c0.3,0.6,0.7,1.6,0.9,2.2
	c2.5,0,4.1-0.1,5.1-0.4c1-0.4,1.3-1.1,1.3-2.5V79h7.4V76.8z M363.5,72.9c-0.4,4.1-1.2,7.5-2.4,10.3c-1.2-0.8-2.4-1.6-3.6-2.3
	c0.6-2.5,1.3-5.2,1.9-8H363.5z M364.5,70.7l-0.4,0.1h-4.2c0.5-2.2,0.9-4.2,1.3-6.1l-2.2-0.2c-0.3,1.9-0.8,4.1-1.3,6.4h-3.4v2.1h3
	c-0.9,3.9-1.8,7.7-2.6,10.4l1.9,1l0.3-1.3c1.1,0.7,2.2,1.4,3.2,2.2c-1.5,2.7-3.4,4.6-5.6,5.8c0.5,0.5,1.1,1.3,1.4,1.9
	c2.4-1.5,4.4-3.5,6-6.3c1.3,1.1,2.4,2.2,3.2,3.1l1.4-1.8c-0.8-1-2.1-2.2-3.6-3.3c1.5-3.5,2.5-8,2.9-13.6L364.5,70.7z M382.7,76.8
	h-7.4v-2.8c2.4-1.8,5-4.6,6.8-7.1l-1.5-1.1l-0.5,0.2h-13.4v2.1h11.7c-1.2,1.6-2.9,3.4-4.5,4.6H373v4.1h-7.3V79h7.3v10.9
	c0,0.5-0.2,0.6-0.7,0.7c-0.5,0-2.3,0-4.2,0c0.3,0.6,0.7,1.6,0.9,2.2c2.5,0,4.1-0.1,5.1-0.4c1-0.4,1.3-1.1,1.3-2.5V79h7.4V76.8z
	 M397.1,67.7c0.8,1.2,1.6,2.8,1.8,3.9h-5.5l1-0.4c-0.3-1-1.1-2.3-2-3.3c1.7-0.1,3.3-0.2,5-0.3L397.1,67.7z M388.7,73.4h8.9l-0.9,1
	c1.7,0.7,3.7,1.9,4.6,2.7l1.2-1.4c-0.9-0.7-2.5-1.6-4-2.3h11.8v3.7h2.2v-5.6H407c0.9-1.1,1.9-2.5,2.7-3.7l-2.2-0.8
	c-0.7,1.3-1.9,3.3-2.9,4.6H399l1.9-0.7c-0.2-1-0.9-2.3-1.7-3.5c4.4-0.3,8.6-0.8,11.8-1.4l-1.5-1.6c-5,1-14.4,1.7-22,1.9
	c0.2,0.4,0.4,1.2,0.5,1.8c1,0,2.1-0.1,3.2-0.1l-0.9,0.4c0.8,1,1.6,2.3,2,3.3h-5.7V77h2.2V73.4z M405.4,76c1.8,1.4,3.9,3.6,4.8,5
	l1.7-1.3c-0.9-1.4-3.1-3.4-4.9-4.8L405.4,76z M388.9,81.3c2.1-1.2,3.2-3.3,4-5.3l-1.7-0.7c-0.7,1.9-1.9,3.7-3.8,4.7L388.9,81.3z
	 M404.6,84.4c-1.3,1.3-3,2.4-4.9,3.3c-2.1-0.9-3.8-2-5.1-3.3H404.6z M406.5,82.6l-0.4,0.1h-9.7c0.7-0.6,1.2-1.2,1.7-1.9l-0.6-0.2
	h5.1c2,0,2.6-0.6,2.8-3.1c-0.6-0.1-1.4-0.3-1.8-0.7c-0.1,1.8-0.3,2.1-1.3,2.1h-4.6c-1.3,0-1.5-0.1-1.5-0.7v-3h-2.2v3
	c0,1.4,0.4,2.1,1.7,2.3c-2.3,2.6-6,4.8-9.7,6.2c0.4,0.4,1.3,1.1,1.6,1.5c1.7-0.7,3.5-1.7,5.1-2.8c1.2,1.2,2.6,2.3,4.2,3.2
	c-3.4,1.2-7.4,1.9-11.4,2.2c0.4,0.5,1,1.4,1.2,1.9c4.5-0.6,8.9-1.5,12.6-3c3.7,1.5,8,2.5,12.6,3c0.3-0.6,0.8-1.6,1.3-2
	c-4.1-0.3-8.1-1-11.4-2.1c2.4-1.3,4.4-3,5.9-5.1L406.5,82.6z M443.8,70.3c-1-1.5-3.2-3.7-5-5.2l-1.8,1.2c1.8,1.6,3.9,3.8,4.9,5.3
	L443.8,70.3z M441,77.1c-1.1,2-2.4,3.9-4.1,5.7c-0.5-2.1-1-4.5-1.3-7.1h8.9v-2.2h-9.2c-0.2-2.8-0.4-5.8-0.4-8.9h-2.4
	c0,3.1,0.2,6.1,0.4,8.9H426v-5.4c1.9-0.4,3.7-0.9,5.2-1.4l-1.7-1.9c-2.9,1.1-8,2.2-12.3,2.8c0.3,0.6,0.6,1.4,0.7,1.9
	c1.8-0.2,3.8-0.6,5.7-0.9v5H417v2.2h6.7v5.5c-2.7,0.6-5.2,1.1-7.1,1.4l0.7,2.3c1.9-0.4,4.1-0.9,6.5-1.4v6.3c0,0.6-0.2,0.7-0.7,0.7
	c-0.5,0-2.4,0.1-4.4,0c0.3,0.7,0.7,1.7,0.9,2.3c2.5,0,4.2-0.1,5.2-0.4c1-0.4,1.3-1.1,1.3-2.6v-6.9c1.9-0.4,3.8-0.9,5.7-1.3l-0.2-2.1
	c-1.8,0.4-3.7,0.8-5.6,1.2v-5h7.3c0.4,3.4,1,6.5,1.7,9c-2.2,2.1-4.8,3.8-7.4,5.1c0.6,0.5,1.2,1.3,1.6,1.8c2.3-1.2,4.6-2.8,6.6-4.6
	c1.4,3.7,3.3,5.8,5.8,5.8c2.3,0,3.2-1.5,3.6-6.6c-0.7-0.2-1.5-0.7-2-1.2c-0.2,4-0.6,5.6-1.4,5.6c-1.6,0-3-2-4.1-5.3
	c2.2-2.2,4-4.7,5.4-7.3L441,77.1z M457.9,77.9h-6.6v-6.5h6.6V77.9z M451.3,87.5V80h6.6v7.5H451.3z M453.9,64.3
	c-0.2,1.5-0.8,3.6-1.2,5.1h-3.5V92h2.1v-2.5h8.7V69.3h-5.2c0.5-1.3,1.1-3.1,1.6-4.6L453.9,64.3z M475.2,69.2h-9.3
	c0.5-1.5,1-3,1.3-4.5l-2.2-0.5c-1,4.3-2.7,8.6-4.8,11.3c0.5,0.3,1.5,0.9,1.9,1.3c1.1-1.5,2.1-3.4,2.9-5.5h7.9
	c-0.4,12.4-0.9,17.2-1.9,18.3c-0.3,0.4-0.7,0.5-1.3,0.5c-0.7,0-2.6,0-4.6-0.2c0.4,0.7,0.7,1.6,0.8,2.3c1.7,0.1,3.5,0.2,4.6,0
	c1.1-0.1,1.8-0.4,2.5-1.2c1.2-1.5,1.7-6.3,2.2-20.6V69.2z M470.3,83.3c-1-1.8-3.2-4.8-4.9-7.1l-1.8,1.1c1.7,2.2,3.8,5.3,4.7,7.2
	L470.3,83.3z M494.4,89.5v-7.7h9.8v-2.2h-9.8v-6.8h11.1v-2.3h-10.1l1.5-1.1c-1.2-1.5-3.7-3.6-5.7-5l-1.9,1.3
	c1.9,1.4,4.1,3.3,5.3,4.8h-13.7v2.3h11v6.8h-9.6v2.2h9.6v7.7h-12.5v2.3H507v-2.3H494.4z M522.8,65.3c-0.2,4.1-0.2,19-12.9,25.5
	c0.7,0.5,1.5,1.2,1.9,1.8c7.9-4.3,11.1-11.8,12.5-18c1.5,6.2,4.9,14.2,13,18c0.3-0.6,1.1-1.4,1.7-1.9c-11.7-5.4-13.4-19.8-13.7-23.9
	c0-0.5,0-1,0.1-1.4H522.8z"/>
</svg>
