<svg id="圖層_1" data-name="圖層 1" xmlns="http://www.w3.org/2000/svg" viewBox="0 0 1440 475.1"><defs><style>.cls-1{isolation:isolate;}.cls-2{fill:#818181;}</style></defs><title>wishahome</title><g class="cls-1"><g class="cls-1"><path class="cls-2" d="M557.44,47.36l-.68-.34a2.62,2.62,0,0,1-.41-1.87V37l-5.23.27c.09,1.56.18,2.83.27,3.79s.2,1.94.34,2.94l-.34.64a1.48,1.48,0,0,1-1.19.34l-.68-.34a11.06,11.06,0,0,1-.78-3.61c-.07-1.31-.16-2.58-.27-3.83L545,40.22a2.15,2.15,0,0,1-1.53.44l-.68-.3a1.68,1.68,0,0,1-.34-1.26l.34-.68a14.92,14.92,0,0,0,3-2.45l2.5-2.48a12.28,12.28,0,0,0,1.38-1.6l-8.06.28-.68-.34a1.68,1.68,0,0,1-.41-1.29l.34-.65a3.82,3.82,0,0,1,2.28-.41l8.6-.34c.32-.54.6-1.08.85-1.61l.75-1.58a1.74,1.74,0,0,1,1.29-.34l.68.34a1.74,1.74,0,0,1,.3,1.25l-.78,1.87L566.51,29a2.25,2.25,0,0,1,1.06.4,1.63,1.63,0,0,1,.4,1.26l-.34.68a1.45,1.45,0,0,1-1.39.27l-7.34.07v2.62c3.42-.09,5.43-.1,6,0a1.16,1.16,0,0,1,1.08.83,26.13,26.13,0,0,1,0,4.54c-.09,2.55-.32,4.08-.68,4.6a1.52,1.52,0,0,1-1.81.46,7,7,0,0,1-2.51-1.3,1.53,1.53,0,0,1-.34-1.19l.34-.68a1.69,1.69,0,0,1,1.26-.34l1.08.54L563.32,37,559,36.89v8.46a2.61,2.61,0,0,1-.41,1.67A1.57,1.57,0,0,1,557.44,47.36ZM546.63,27.2a1.8,1.8,0,0,1-1-.4,1.53,1.53,0,0,1-.34-1.19l.34-.68a28.19,28.19,0,0,0,3.18-1.65,15.84,15.84,0,0,0,3-2.4,16,16,0,0,0-2.55-1.46A1.51,1.51,0,0,1,549,18.2l.34-.65a1.88,1.88,0,0,1,1.49-.34c.57.32,1.14.67,1.72,1s1.16.74,1.75,1.1a9,9,0,0,0,1.78-1.71c.51-.65,1-1.28,1.51-1.89a1.8,1.8,0,0,1,1.53-.54l.68.34a1.63,1.63,0,0,1,.31,1.19l-.31.68a44.87,44.87,0,0,1-2.95,3.4,10,10,0,0,1,1.51.93l1.44,1.1a1.74,1.74,0,0,1,.58,1.47L560,25a1.46,1.46,0,0,1-1.19.33c-.75-.49-1.49-1-2.24-1.54a9.48,9.48,0,0,0-2.38-1.24q-1.8,1.39-3.62,2.68A14.11,14.11,0,0,1,546.63,27.2Zm9.65,7.14V31.69l-3.16.07A11,11,0,0,1,552,33.19a11.7,11.7,0,0,0-1.13,1.42Z"/><path class="cls-2" d="M583.88,31.08a5,5,0,0,1-2.75-.95,3,3,0,0,1-1.19-1.7,13.2,13.2,0,0,1-.18-2.21,19.85,19.85,0,0,1,.15-2.82l-3.06.27-.68-.34a2,2,0,0,1-.34-1.33l.34-.67a4.27,4.27,0,0,1,2.24-.62h4.18l-.27-3.33a1.81,1.81,0,0,1,.41-.95,1.6,1.6,0,0,1,1.22-.34l.68.34a6.4,6.4,0,0,1,.48,2.07c0,.75.09,1.49.13,2.21h6.33l.68.34a1.58,1.58,0,0,1,.33,1.23l-.33.71a2.25,2.25,0,0,1-1,.41h-8.64c0,1-.05,1.91,0,2.89s.2,1.57.54,1.8a2.84,2.84,0,0,0,1.53.34c.68,0,1.34,0,2-.07s1.24-.11,1.8-.2l1.74-.28.68.34a1.87,1.87,0,0,1,.34,1.3l-.34.68a4.88,4.88,0,0,1-1.94.54c-.7,0-1.46.12-2.26.24A15.84,15.84,0,0,1,583.88,31.08ZM579.43,46l-.68-.34a1.59,1.59,0,0,1-.34-1.22l.34-.68.75-.41,10.77-.06-.06-2.49h-5.37l-.68-.34a1.71,1.71,0,0,1-.41-1.32l.34-.68.68-.34,5.44-.14V35.16q-6.33-.13-7.29-.11a2.86,2.86,0,0,1-1.72-.44,1.55,1.55,0,0,1-.34-1.22l.34-.68a4.6,4.6,0,0,1,2.62-.34l16.14.07.68.34a1.83,1.83,0,0,1,.34,1.29l-.34.68a6.92,6.92,0,0,1-3.36.41h-4.42v2.78l5-.06.68.34a1.59,1.59,0,0,1,.34,1.22l-.34.68a3.66,3.66,0,0,1-2.11.51H593l-.07,2.68,5.49-.3c1.4-.07,2.8-.13,4.2-.17l.68.34a1.6,1.6,0,0,1,.34,1.22l-.34.68a23.85,23.85,0,0,1-5.28.65ZM603,32.37a4.23,4.23,0,0,1-2.38-1.43,1.66,1.66,0,0,1-.41-1.29l.34-.68a1.63,1.63,0,0,1,1.23-.34l.68.27.27-2-7.24-.47a6.55,6.55,0,0,1-.82,2.58,1.59,1.59,0,0,1-1.22.34l-.68-.34a1.56,1.56,0,0,1-.34-1.36c.5-1.68,1-3.7,1.56-6.08s.85-3.76.92-4.13.34-.59.82-.63,2,0,4.53.14a48.34,48.34,0,0,1,4.85.39c.68.12,1.05.4,1.12.85A14.35,14.35,0,0,1,606,21.1c-.16,1.49-.36,3.19-.61,5.12a28.5,28.5,0,0,1-.92,4.66C604.15,32.05,603.63,32.55,603,32.37ZM603,25l.2-1.43-6.62-.47-.41,1.49Zm.41-3.43.07-1.63-6.36-.27L597,21.12Z"/><path class="cls-2" d="M627.43,28.63l-.68-.34-1.23-2.11-5.86.51c-1.73.16-3.46.29-5.18.38-1.11-.16-1.57-.68-1.36-1.57l5.3-9.14a1.77,1.77,0,0,1,1.33-.4l.67.34a1.74,1.74,0,0,1,.34,1.29c-.27.54-1.52,2.78-3.77,6.73,1.34-.16,2.55-.29,3.64-.38s2.17-.2,3.26-.34a3.13,3.13,0,0,1-1.15-2.27l.34-.68a1.53,1.53,0,0,1,1.36-.34l.68.34c1,1.47,1.81,2.71,2.44,3.73A12.4,12.4,0,0,1,629,27.61l-.34.68A1.57,1.57,0,0,1,627.43,28.63Zm-3,17.84a4.75,4.75,0,0,1-1.91-.85c-.59-.43-1.15-.87-1.7-1.32a1.61,1.61,0,0,1-.34-1.22l.34-.68a1.55,1.55,0,0,1,1.23-.34,11.66,11.66,0,0,1,1.29.74l-.07-2.24H617.4v4.55l-.34.68a1.54,1.54,0,0,1-1.22.34l-.68-.34a3.51,3.51,0,0,1-.48-1.15l-.07-14c0-1,.35-1.46,1-1.53s2.31-.08,5.07,0,4.32.09,4.7.14.57.43.55,1.15,0,5.72.17,15A1.34,1.34,0,0,1,624.44,46.47Zm-1.3-13.22-.06-1.49-5.82.07.07,1.36Zm.07,4.63v-2l-5.81-.06v2Zm15.53,8c-1.22-.09-2.44-.2-3.65-.34A5.77,5.77,0,0,1,631.83,44a5.11,5.11,0,0,1-1.77-2.83,69.15,69.15,0,0,1-.46-8.64,1.81,1.81,0,0,1,.41-.95,1.59,1.59,0,0,1,1.36-.34l.68.34a1.63,1.63,0,0,1,.34,1.23l-.07,2.1,7.44-.2.68.34a1.56,1.56,0,0,1,.34,1.22l-.34.68a2.25,2.25,0,0,1-1,.41l-7.17.2a27,27,0,0,0,.34,2.88,2.7,2.7,0,0,0,1.16,1.71,4.78,4.78,0,0,0,2.43.82c1,.09,2,.16,3,.2a3.71,3.71,0,0,1,.41-2.45,1.6,1.6,0,0,1,1.22-.34l.68.34a3.8,3.8,0,0,1,.37,1.87c0,.71,0,1.36-.05,2a1,1,0,0,1-.74,1.13A8.18,8.18,0,0,1,638.74,45.86ZM638,30.94c-1.13-.09-2.24-.19-3.34-.3a5.14,5.14,0,0,1-3-1.5A5.29,5.29,0,0,1,630,25.57c-.11-1.49-.24-4.06-.37-7.71a1.74,1.74,0,0,1,.41-.95,1.78,1.78,0,0,1,1.29-.34l.68.34a1.59,1.59,0,0,1,.34,1.22l-.07,1.43c4.06-.23,6.67-.39,7.85-.48l.68.34a1.63,1.63,0,0,1,.34,1.23l-.34.68a41.13,41.13,0,0,1-8.39.88c.08,1.34.16,2.38.23,3.12a2.72,2.72,0,0,0,1.19,1.94,5,5,0,0,0,2.74.92c1.1.07,2.48.08,4.16,0l.68.34a1.59,1.59,0,0,1,.34,1.23l-.34.68a3,3,0,0,1-1.63.47Z"/><path class="cls-2" d="M650.88,33.39a1.81,1.81,0,0,1-1-.41,2.75,2.75,0,0,1-.41-1.15,1.78,1.78,0,0,1,.41-.95,7.34,7.34,0,0,0,1.56-.92,25.34,25.34,0,0,0,3-3.44l-1.76-.88a1.62,1.62,0,0,1-.41-1.29l.34-.68a1.56,1.56,0,0,1,1.36-.34l2,1,1.91-4.11L653.74,20c-.28.68-.57,1.36-.89,2s-.61,1.34-.88,2a1.83,1.83,0,0,1-1.29.34l-.68-.34a1.59,1.59,0,0,1-.34-1.23,19.5,19.5,0,0,1,1.12-2.65c.43-.83.8-1.55,1.12-2.14a1.24,1.24,0,0,1,1.29-.78c.55.07,1.13.11,1.75.14l4.95.1c1.15.27,1.54.91,1.15,1.9a47.83,47.83,0,0,1-2.24,5.25,22.5,22.5,0,0,1-3.35,4.93,25.49,25.49,0,0,1-3,3A3.4,3.4,0,0,1,650.88,33.39Zm3.67,12.06-.68-.34a2.84,2.84,0,0,1-.41-1.15,1.9,1.9,0,0,1,.41-1,10.52,10.52,0,0,0,2.64-1.89,27.49,27.49,0,0,0,2-2.09l-1.63-.88a1.63,1.63,0,0,1-.41-1.29l.34-.68a1.53,1.53,0,0,1,1.22-.34l1.77.88c.27-.72.54-1.44.81-2.14s.53-1.42.75-2.14l-3.33-.27c-.22.63-.47,1.27-.75,1.9s-.56,1.27-.88,1.9a1.63,1.63,0,0,1-1.26.34l-.68-.34a2.25,2.25,0,0,1-.4-1.09,19.08,19.08,0,0,1,1-2.48c.39-.79.68-1.38.87-1.78a3.05,3.05,0,0,1,.68-.95q.39-.36,2-.15t2.94.27a5.29,5.29,0,0,1,2.21.54c.61.32.74,1,.4,2.18s-.81,2.48-1.42,4a17.47,17.47,0,0,1-2,3.86A15.86,15.86,0,0,1,658.29,43c-.88.75-1.57,1.33-2.06,1.73A2.79,2.79,0,0,1,654.55,45.45Zm19.44.28a9.87,9.87,0,0,1-2.11-.79c-.65-.34-1.3-.71-1.93-1.12a1.55,1.55,0,0,1-.34-1.22l.34-.68a1.59,1.59,0,0,1,1.22-.34l2.28,1a81.2,81.2,0,0,0,1.76-9.41q.62-4.77.82-9.79l-9.14.07a14.32,14.32,0,0,1-.68,1.86c-.27.62-.57,1.22-.88,1.81a1.63,1.63,0,0,1-1.23.34l-.68-.34a1.57,1.57,0,0,1-.34-1.36c.59-1.36,1.15-2.74,1.67-4.13s1-2.79,1.39-4.2a1.61,1.61,0,0,1,1.22-.34l.68.34a2.19,2.19,0,0,1,.34,1.63l-.4,1.7q8.87,0,9.82,0c.63,0,1,.64,1,1.84a37,37,0,0,1-.31,5.09q-.37,3.3-1,8.14a47.23,47.23,0,0,1-1.26,6.83,9,9,0,0,1-1,2.52A1.44,1.44,0,0,1,674,45.73Zm-6.63-8.33c-.68,0-1.07-.23-1.19-.63s-.26-2.79-.44-7.19A1.22,1.22,0,0,1,667,28.43h5.43a1.61,1.61,0,0,1,1.07.47,2.32,2.32,0,0,1,.26,1.74q-.13,1.32-.27,3.06a22.35,22.35,0,0,1-.33,2.66.93.93,0,0,1-1.13.84Zm3.88-2.24a13.75,13.75,0,0,0,.3-2.45c0-.77.06-1.54.11-2.31h-3.88l.14,5Z"/><path class="cls-2" d="M708.53,46.61a4.53,4.53,0,0,1-1.87-1,12.59,12.59,0,0,0-1.74-1.29,1.61,1.61,0,0,1-.34-1.22l.34-.68a1.76,1.76,0,0,1,1.29-.34l1.5.88.14-3.84-10.4.07.27,6.69-.34.68a1.57,1.57,0,0,1-1.22.34l-.68-.34a4.64,4.64,0,0,1-.55-1.9l-.41-11.93c-.9,1.54-1.76,3.09-2.56,4.66l-2.43,4.69a1.63,1.63,0,0,1-1.23.34l-.68-.34a1.82,1.82,0,0,1-.33-1.3c1.4-3,2.89-5.89,4.46-8.76a50.1,50.1,0,0,0,3.86-9q-5.13,0-6.29,0a4.2,4.2,0,0,1-2.1-.44,1.67,1.67,0,0,1-.34-1.25l.34-.68a5,5,0,0,1,2.78-.34h6.5a14.53,14.53,0,0,0,.51-2.14,9.59,9.59,0,0,1,.57-2.15,1.63,1.63,0,0,1,1.23-.34l.68.34a2.32,2.32,0,0,1,.34,1.84l-.55,2.45L713.73,20l.68.34a1.59,1.59,0,0,1,.34,1.22l-.34.68a2,2,0,0,1-1,.44l-15,.34a10.92,10.92,0,0,1-.58,1.94,15.59,15.59,0,0,0-.64,1.93l12-.13c.86,0,1.35.24,1.47.8a91.7,91.7,0,0,1,0,9.17c-.14,5.57-.28,8.66-.43,9.3S709.52,46.84,708.53,46.61Zm-.68-15.4.13-1.83-10.87.14v1.83Zm0,5.24V33.87L697.24,34l.07,2.52Z"/><path class="cls-2" d="M749.65,30.47l-25-.07a1.81,1.81,0,0,1-.95-.41,1.56,1.56,0,0,1-.34-1.22l.34-.68.68-.34,25.69.07.82.4a1.63,1.63,0,0,1,.34,1.23l-.34.68A2.32,2.32,0,0,1,749.65,30.47Z"/><path class="cls-2" d="M764.72,46.34,764,46a3.4,3.4,0,0,1-.48-2l-.27-16.82-3.54,4.48a1.78,1.78,0,0,1-1.29.34l-.68-.34a1.83,1.83,0,0,1-.34-1.29l4.8-6.54a65.41,65.41,0,0,0,4.41-6.88,1.59,1.59,0,0,1,1.23-.34l.68.34a1.59,1.59,0,0,1,.34,1.36,28.66,28.66,0,0,1-2.89,5l.3,22.09L766,46A1.64,1.64,0,0,1,764.72,46.34Zm21.95.2q-14.37-.2-14.82-.25c-.29,0-.5-.47-.61-1.29s-.37-9.4-.78-25.71l.34-.68.68-.34q15.46.38,16.47.51c.66.09,1,.6,1.1,1.53l.34,25c-.07.9-.32,1.37-.77,1.39A10.13,10.13,0,0,1,786.67,46.54Zm0-2.72-.27-22.56-13.29-.34.68,22.83Zm-9.89-2.72a1.39,1.39,0,0,1-1.32-1.1,57.85,57.85,0,0,1-.51-6.54c0-1,.43-1.54,1.29-1.63H779l-.14-3.33h-3.13a1.9,1.9,0,0,1-1-.41,1.67,1.67,0,0,1-.41-1.29l.34-.68a1.55,1.55,0,0,1,1.23-.34l2.85.06a4.93,4.93,0,0,1,.41-2.85,1.6,1.6,0,0,1,1.22-.34l.68.34a5.93,5.93,0,0,1,.34,3c.75.05,1.49.08,2.21.1a5.17,5.17,0,0,1,2,.44,1.59,1.59,0,0,1,.34,1.23l-.34.68a2.52,2.52,0,0,1-1.42.41l-2.69-.21.14,3.2a9.2,9.2,0,0,1,2.8,0q1,.2,1,.78c0,.38,0,2.55,0,6.49q0,1.66-.6,1.77T776.78,41.1Zm6-2.88V34.61l-5.13-.13.34,3.8Z"/><path class="cls-2" d="M797.52,28l-.68-.34a13.37,13.37,0,0,1-.75-3.65c-.09-1.31-.16-2.59-.2-3.86A1.51,1.51,0,0,1,797.52,19l10.7.28q0-.88,0-1.8a2.83,2.83,0,0,1,.44-1.67,1.57,1.57,0,0,1,1.22-.34l.68.34.34.68v2.92h12.48a1.45,1.45,0,0,1,1.08.92,4.45,4.45,0,0,1,0,1.95c-.13.88-.25,1.64-.34,2.3a4.16,4.16,0,0,1-.68,1.8,1.59,1.59,0,0,1-1.22.34l-.68-.34a1.78,1.78,0,0,1-.34-1.29,10,10,0,0,0,.54-3l-23.1-.41.47,5.27-.34.68A1.56,1.56,0,0,1,797.52,28Zm15.19,18.86q-1.29-.35-4.08-3.33l-.07-.81.34-.68a1.55,1.55,0,0,1,1.23-.34,12.89,12.89,0,0,1,2.24,1.83,10.35,10.35,0,0,0,.14-1.7c0-.59-.07-1.75-.21-3.5a25.77,25.77,0,0,1-5.37,3.5,24.33,24.33,0,0,1-5.74,1.9,1.8,1.8,0,0,1-1-.4,1.55,1.55,0,0,1-.34-1.23l.34-.68A38.31,38.31,0,0,0,806,39.32a18.08,18.08,0,0,0,5.2-3.69l-.41-.81A22.36,22.36,0,0,1,806,37.67a41,41,0,0,1-4.63,1.63l-.68-.34a1.59,1.59,0,0,1-.34-1.22l.34-.68c1.48-.73,3-1.39,4.52-2a12.7,12.7,0,0,0,4.22-2.75L808,31.15c-1,.77-2.09,1.49-3.16,2.17a13.42,13.42,0,0,1-3.4,1.56l-.68-.34a1.59,1.59,0,0,1-.34-1.22l.34-.68q2.07-1.22,4-2.48a21.84,21.84,0,0,0,3.67-3L804,27.14a4.64,4.64,0,0,1-2.52-.55,1.49,1.49,0,0,1-.37-1.22l.37-.68a2.09,2.09,0,0,1,1.57-.34l15.87.2.68.34a1.63,1.63,0,0,1,.34,1.23l-.34.68a2.25,2.25,0,0,1-1.06.4h-6.32a27.14,27.14,0,0,0-2,2.25,13.33,13.33,0,0,1,2.93,4.21l3.6-2.78a2.88,2.88,0,0,1,2.34-1l.68.34a1.55,1.55,0,0,1,.34,1.23l-.34.68-4,3.19a25.23,25.23,0,0,0,2.84,2.82A49.84,49.84,0,0,0,824,41.92a1.61,1.61,0,0,1,.34,1.22l-.34.68a1.79,1.79,0,0,1-1.29.34,24.58,24.58,0,0,1-4-2.48A45.42,45.42,0,0,1,815,38.56a37.48,37.48,0,0,1,.14,4.09,8.76,8.76,0,0,1-.34,2.09,14.92,14.92,0,0,1-.67,1.67C813.89,47,813.41,47.11,812.71,46.88Z"/><path class="cls-2" d="M833.31,47.7l-.68-.34a1.86,1.86,0,0,1-.34-1.29l.34-.68,1-1.84a1.79,1.79,0,0,1-1-.58,1.74,1.74,0,0,1-.47-1.36,2,2,0,0,1,.71-1.47,1.72,1.72,0,0,1,1.74-.34,3.22,3.22,0,0,1,1.66,1,2.38,2.38,0,0,1,.27,2.17,11.9,11.9,0,0,1-.81,2.45,11,11,0,0,1-1.16,1.87A1.66,1.66,0,0,1,833.31,47.7Z"/></g><g class="cls-1"><path class="cls-2" d="M567,83l-25-.07a1.81,1.81,0,0,1-1-.41,1.56,1.56,0,0,1-.34-1.22l.34-.68.68-.34,25.69.07.82.4a1.63,1.63,0,0,1,.34,1.23l-.34.68A2.34,2.34,0,0,1,567,83Z"/><path class="cls-2" d="M582,98.84l-.68-.34a3.33,3.33,0,0,1-.48-2l-.27-16.82-3.54,4.48a1.78,1.78,0,0,1-1.29.34l-.68-.34a1.83,1.83,0,0,1-.34-1.29l4.8-6.54A65.41,65.41,0,0,0,584,69.41a1.59,1.59,0,0,1,1.23-.34l.68.34a1.59,1.59,0,0,1,.34,1.36,28.66,28.66,0,0,1-2.89,5l.3,22.09-.34.68A1.64,1.64,0,0,1,582,98.84Zm22,.2q-14.37-.2-14.82-.25c-.29,0-.5-.47-.61-1.29s-.37-9.4-.78-25.71l.34-.68.68-.34q15.47.38,16.46.51t1.11,1.53l.34,25c-.07.9-.32,1.37-.77,1.39A10.13,10.13,0,0,1,604,99Zm0-2.72-.27-22.56-13.29-.34.68,22.83Zm-9.89-2.72a1.41,1.41,0,0,1-1.33-1.1,62,62,0,0,1-.5-6.54c0-1,.43-1.54,1.29-1.63h2.72L596.12,81H593a1.9,1.9,0,0,1-1-.41,1.67,1.67,0,0,1-.41-1.29l.34-.68a1.55,1.55,0,0,1,1.23-.34l2.85.06a4.93,4.93,0,0,1,.41-2.85,1.6,1.6,0,0,1,1.22-.34l.68.34a5.93,5.93,0,0,1,.34,3c.75,0,1.49.08,2.21.1a5.17,5.17,0,0,1,2,.44,1.59,1.59,0,0,1,.34,1.23l-.34.68a2.52,2.52,0,0,1-1.42.41l-2.69-.21.14,3.2a9.2,9.2,0,0,1,2.8,0q1,.19,1,.78c0,.38,0,2.55,0,6.49q0,1.66-.6,1.77T594.08,93.6ZM600,90.72V87.11L594.9,87l.34,3.8Z"/><path class="cls-2" d="M640.85,80.66l-.68-.34a144.41,144.41,0,0,0-12.88-9.42c-3.63,2.59-6,4.28-7,5.08s-2.55,2-4.5,3.52a1.78,1.78,0,0,1-1.29.34l-.68-.34a1.56,1.56,0,0,1-.34-1.22l.41-.75q3.33-2.55,7.8-5.79c3-2.17,4.7-3.39,5.18-3.68a1.44,1.44,0,0,1,1.53,0q.81.45,13.56,10a2.16,2.16,0,0,1,.47,1.57l-.34.68A1.59,1.59,0,0,1,640.85,80.66ZM620.56,87a15.06,15.06,0,0,1-2.14.11q-.78,0-.93-1.29t-.43-6.29c0-.82.18-1.27.54-1.36s6.6-.1,18.69,0c1,0,1.34.66,1.09,1.91l.21,5.88c.06.81-.49,1.18-1.67,1.08Zm14.65,12.21q-13.63.27-14.43.2c-.53,0-.82-.28-.86-.71s-.36-3.52-.92-9.25c-.07-1,.34-1.54,1.22-1.56q14.82.13,15.67.27a1,1,0,0,1,1,.85,31.9,31.9,0,0,1-.09,4.4c-.14,2.46-.25,4-.36,4.78A1,1,0,0,1,635.21,99.25ZM626,85.07l-.07-5L619.75,80l.33,5Zm-2.58-.88a1.88,1.88,0,0,1-1.09-.75,3.63,3.63,0,0,1-1.16-2.1,1.26,1.26,0,0,1,.68-.68h.61a15.11,15.11,0,0,1,2,2.24v.54a1.26,1.26,0,0,1-.68.68ZM634,92.25l.07-1.53-12.37-.14.13,1.7Zm-.21,4.34V94.9L622.26,95l.14,1.63ZM623.62,76.71l-.75-.4a1.13,1.13,0,0,1-.2-.89,1.19,1.19,0,0,1,.68-.71l8.22-.27.68.4a1.28,1.28,0,0,1,.21.92,1.26,1.26,0,0,1-.75.75Zm11.21,8.36-.13-5h-6.12l.07,5Zm-4-.68a1.26,1.26,0,0,1-.68-.68V83.1a11.21,11.21,0,0,1,1.91-2.38h.81a1.26,1.26,0,0,1,.68.68V82c-.68.81-1.4,1.63-2.17,2.44Z"/><path class="cls-2" d="M653.26,98.77l-.68-.34a1.61,1.61,0,0,1-.34-1.22l.34-.68a33.31,33.31,0,0,0,2.52-5.27q-.83-.67-1.74-1.29c-.61-.41-1.14-.77-1.59-1.09s-.61-1-.45-2.11.34-2.45.55-4.11.35-3.34.44-5.06c-.59,0-1.18,0-1.77,0a3.64,3.64,0,0,1-1.63-.44,1.6,1.6,0,0,1-.34-1.22l.34-.68a2.12,2.12,0,0,1,1.63-.38l2,.11a17.9,17.9,0,0,0,.24-2.52,6.06,6.06,0,0,1,.51-2.34,1.56,1.56,0,0,1,1.22-.34l.68.34a2.52,2.52,0,0,1,.38,2l-.38,3,3.5.07c0-.65,0-1.3,0-1.93a2.89,2.89,0,0,1,.44-1.7,1.54,1.54,0,0,1,1.22-.34l.68.34.34.68v3a3.2,3.2,0,0,1,2.18.34,1.61,1.61,0,0,1,.34,1.22l-.34.68a3.46,3.46,0,0,1-2.38.41c-.27,2.13-.65,4.23-1.12,6.29s-1,4.11-1.67,6.15l3.06,2a1.86,1.86,0,0,1,.41,1.39l-.34.68a1.59,1.59,0,0,1-1.23.34q-1.42-.94-2.85-1.77c-.41.91-.8,1.82-1.19,2.72a12.23,12.23,0,0,1-1.49,2.59A2,2,0,0,1,653.26,98.77Zm2.82-10.3a51.9,51.9,0,0,0,1.5-5.26q.6-2.68.95-5.48L655,77.67c-.09,1.63-.23,3.24-.41,4.82s-.38,3.17-.61,4.76C654.67,87.66,655.38,88.06,656.08,88.47Zm15.16,10.74a2.34,2.34,0,0,1-1.22-.68,16.39,16.39,0,0,1-1.5-1.56,11.21,11.21,0,0,1-1.36-2l-.07-.82.34-.68a1.63,1.63,0,0,1,1.23-.34l.68.34a7.38,7.38,0,0,0,1.56,2,18.46,18.46,0,0,0,.61-3.09,27.6,27.6,0,0,0-.2-6.15q-3.13.14-5.1.27c-1.32.09-2.63.23-3.94.41l-.68-.34a1.55,1.55,0,0,1-.34-1.23l.34-.68a18.86,18.86,0,0,1,4.55-.81l4.76-.27a3.73,3.73,0,0,0-1.36-2.57,5,5,0,0,1-1.45-1.44c-.23-.43-.11-1,.36-1.6.73-.77,1.44-1.56,2.14-2.36a19,19,0,0,0,1.94-2.7,33.27,33.27,0,0,0-6.12.34l-.88-.41a1.67,1.67,0,0,1-.41-1.29l.34-.68a4.25,4.25,0,0,1,2.11-.68c3.64.09,5.81.13,6.49.13a5.49,5.49,0,0,1,1.83.29c.55.19.68.66.41,1.41a67.26,67.26,0,0,1-5.06,6.83c.59,1,1.1,1.73,1.55,2.33a5,5,0,0,1,.86,2.33l5.17.07a1.8,1.8,0,0,1,.95.4,1.63,1.63,0,0,1,.34,1.23l-.34.68a2.88,2.88,0,0,1-1.16.41L674,86.23a39.44,39.44,0,0,1,.17,6.08,22.28,22.28,0,0,1-.54,3.64,6.21,6.21,0,0,1-1,2.34A2,2,0,0,1,671.24,99.21Z"/><path class="cls-2" d="M689.8,98.77l-.68-.34a1.61,1.61,0,0,1-.34-1.22l.34-.68a33.31,33.31,0,0,0,2.52-5.27q-.82-.67-1.74-1.29l-1.6-1.09c-.45-.32-.59-1-.44-2.11s.34-2.45.55-4.11.35-3.34.44-5.06c-.59,0-1.18,0-1.77,0a3.64,3.64,0,0,1-1.63-.44,1.56,1.56,0,0,1-.34-1.22l.34-.68a2.12,2.12,0,0,1,1.63-.38l2,.11a17.9,17.9,0,0,0,.24-2.52,6.06,6.06,0,0,1,.51-2.34,1.56,1.56,0,0,1,1.22-.34l.68.34a2.52,2.52,0,0,1,.38,2l-.38,3,3.5.07c0-.65,0-1.3,0-1.93a2.82,2.82,0,0,1,.44-1.7,1.53,1.53,0,0,1,1.22-.34l.68.34.34.68v3a3.2,3.2,0,0,1,2.18.34,1.61,1.61,0,0,1,.34,1.22l-.34.68a3.46,3.46,0,0,1-2.38.41c-.27,2.13-.65,4.23-1.12,6.29s-1,4.11-1.67,6.15l3.06,2a1.86,1.86,0,0,1,.41,1.39l-.34.68a1.57,1.57,0,0,1-1.22.34c-1-.63-1.91-1.22-2.86-1.77-.41.91-.8,1.82-1.19,2.72a12.23,12.23,0,0,1-1.49,2.59A2,2,0,0,1,689.8,98.77Zm2.82-10.3a51.9,51.9,0,0,0,1.5-5.26q.6-2.68,1-5.48l-3.57-.06c-.09,1.63-.23,3.24-.41,4.82s-.38,3.17-.61,4.76C691.21,87.66,691.92,88.06,692.62,88.47Zm15.16,10.74a2.4,2.4,0,0,1-1.23-.68A17.77,17.77,0,0,1,705.06,97a11.21,11.21,0,0,1-1.36-2l-.07-.82.34-.68a1.63,1.63,0,0,1,1.23-.34l.68.34a7.38,7.38,0,0,0,1.56,2,18.46,18.46,0,0,0,.61-3.09,27.6,27.6,0,0,0-.2-6.15q-3.14.14-5.1.27c-1.32.09-2.63.23-3.94.41l-.68-.34a1.59,1.59,0,0,1-.34-1.23l.34-.68a18.86,18.86,0,0,1,4.55-.81l4.76-.27a3.73,3.73,0,0,0-1.36-2.57,5,5,0,0,1-1.45-1.44c-.23-.43-.11-1,.36-1.6.73-.77,1.44-1.56,2.14-2.36a19,19,0,0,0,1.94-2.7,33.27,33.27,0,0,0-6.12.34l-.88-.41a1.67,1.67,0,0,1-.41-1.29l.34-.68a4.22,4.22,0,0,1,2.11-.68q5.48.13,6.49.13a5.49,5.49,0,0,1,1.83.29c.55.19.68.66.41,1.41a67.26,67.26,0,0,1-5.06,6.83c.59,1,1.1,1.73,1.54,2.33a5.05,5.05,0,0,1,.87,2.33l5.17.07a1.8,1.8,0,0,1,.95.4,1.63,1.63,0,0,1,.34,1.23l-.34.68a2.88,2.88,0,0,1-1.16.41l-4.62-.14a39.44,39.44,0,0,1,.17,6.08,22.28,22.28,0,0,1-.54,3.64,6.21,6.21,0,0,1-1,2.34A2,2,0,0,1,707.78,99.21Z"/><path class="cls-2" d="M749.59,84.94l-.68-.34a1.54,1.54,0,0,1-.34-1.22,18.63,18.63,0,0,0,.4-2.21c.09-.75.21-1.49.34-2.21l-23.72.74c.09.87.18,1.58.28,2.15s.2,1.12.34,1.66l-.41.75a1.86,1.86,0,0,1-1.29.34l-.68-.34a6.43,6.43,0,0,1-.75-2.82c-.05-1-.07-1.89-.07-2.62a1.41,1.41,0,0,1,.75-1.43,6.67,6.67,0,0,1,2.41-.37c1.11,0,2.22-.08,3.33-.17L729,74.1a1.34,1.34,0,0,1,1.69-1.29l.68.34a9.67,9.67,0,0,1,1,3.5l2.52-.14a34.11,34.11,0,0,1-.61-3.43l.34-.68a1.55,1.55,0,0,1,1.22-.34l.68.34a16.94,16.94,0,0,1,1.29,4h1.84a22.87,22.87,0,0,1,.51-2.29,15.13,15.13,0,0,1,.78-2.23,1.6,1.6,0,0,1,1.22-.34l.68.34a1.57,1.57,0,0,1,.34,1.36l-.88,3.1a84,84,0,0,1,8.71,0,1.17,1.17,0,0,1,.92.85,4.45,4.45,0,0,1-.08,2,17.37,17.37,0,0,0-.34,2.75,6.62,6.62,0,0,1-.68,2.65A1.67,1.67,0,0,1,749.59,84.94ZM728,100.26a1.8,1.8,0,0,1-.95-.4,1.59,1.59,0,0,1-.34-1.23l.34-.68c1.29-.27,2.59-.55,3.91-.85a8.39,8.39,0,0,0,3.6-1.8,6.61,6.61,0,0,0-1.63-.61,1.78,1.78,0,0,1-1.36.48l-.68-.34a1.78,1.78,0,0,1-.34-1.29l.34-.68a45.55,45.55,0,0,1,2.6-4.08c.33-.39,1-.45,1.87-.21a29.61,29.61,0,0,0,3.41.68c1.36.21,2.7.47,4,.79a1,1,0,0,1,.34,1.29c-.59.88-1.4,2-2.44,3.29,1.31.41,2.66.76,4.06,1.06s2.77.6,4.13.91a1.63,1.63,0,0,1,.34,1.23l-.34.68a2.13,2.13,0,0,1-1.29.41,37.86,37.86,0,0,1-5-1q-2.45-.69-4.83-1.3a29.91,29.91,0,0,1-4.62,2.55A13.07,13.07,0,0,1,728,100.26Zm-.2-11.92-.68-.34a1.76,1.76,0,0,1-.34-1.29,25.65,25.65,0,0,1,1.76-5,1.64,1.64,0,0,1,1.26-.34l.68.34a1.56,1.56,0,0,1,.34,1.36l-1.77,5A1.71,1.71,0,0,1,727.84,88.34Zm1-16.08a1.77,1.77,0,0,1-1-.41,1.59,1.59,0,0,1-.34-1.22l.34-.68a52.68,52.68,0,0,1,8.36-1.49q4.26-.42,8.47-.75l.68.34a1.6,1.6,0,0,1,.34,1.22l-.34.68c-2.72.45-5.47.81-8.26,1A68.26,68.26,0,0,0,728.86,72.26Zm13.22,16.55a16.44,16.44,0,0,1-4.22-.54,7.44,7.44,0,0,1-3.26-1.7,9,9,0,0,1-1.77-2.14,5.19,5.19,0,0,1-.61-2.21l.34-.68a1.78,1.78,0,0,1,1.29-.34l.68.34c.23.54.45,1.08.68,1.6a4.91,4.91,0,0,0,1.6,1.73A6.75,6.75,0,0,0,740.28,86a19.88,19.88,0,0,0,3.94,0c1.15-.14,2.17-.28,3.06-.41l.81.41a1.55,1.55,0,0,1,.34,1.22l-.34.68a9.4,9.4,0,0,1-2.87.78A20.31,20.31,0,0,1,742.08,88.81Zm-4.18,4.73A6.65,6.65,0,0,0,739.29,92l-4.21-.68-.41,1A13.5,13.5,0,0,0,737.9,93.54Zm1.73-8.13-.68-.34a6.82,6.82,0,0,1-.88-3.19l.34-.68a1.78,1.78,0,0,1,1.29-.34l.68.34a19.63,19.63,0,0,1,.81,3.19l-.34.68A1.51,1.51,0,0,1,739.63,85.41Zm4.49.28-.68-.34-1.23-3.67.34-.68a1.55,1.55,0,0,1,1.23-.34l.68.34a8.65,8.65,0,0,1,.91,1.83,5.43,5.43,0,0,1,.31,1.84l-.34.68A1.61,1.61,0,0,1,744.12,85.69Z"/><path class="cls-2" d="M766.65,99.08a4.26,4.26,0,0,1-1.71-.89l-1.55-1.29a1.6,1.6,0,0,1-.34-1.22l.34-.68a1.46,1.46,0,0,1,1.22-.38l.92.41-.13-4.93c-.93.23-1.79.46-2.59.7a24.24,24.24,0,0,1-2.41.6,1.9,1.9,0,0,1-.95-.41,1.66,1.66,0,0,1-.38-1.23l.34-.68c1-.31,1.92-.61,2.89-.88l3-.82V81l-5.61.06a2.13,2.13,0,0,1-1-.37,1.54,1.54,0,0,1-.34-1.22l.34-.68.64-.38,6-.07V73.49a11.72,11.72,0,0,0-2.33.83,12.53,12.53,0,0,1-2.09.8l-.68-.34a1.73,1.73,0,0,1-.37-1.23l.34-.68a21.34,21.34,0,0,1,5.11-2.24,52.41,52.41,0,0,1,5.42-1.26l.68.34a1.55,1.55,0,0,1,.34,1.23l-.34.68a8.69,8.69,0,0,1-1.66.52,11.54,11.54,0,0,0-1.7.5l-.07,5.67,8.7-.14c-.2-1.4-.38-2.72-.53-4s-.32-2.47-.52-3.69a1.8,1.8,0,0,1,.4-1,1.48,1.48,0,0,1,1.19-.34l.72.3a25.2,25.2,0,0,1,.8,4.27c.14,1.48.34,2.93.59,4.33l6.08,0,.72.34a1.59,1.59,0,0,1,.34,1.22l-.34.68a2.23,2.23,0,0,1-1,.41h-5.33a26.65,26.65,0,0,0,.88,3.23c.36,1.06.73,2.12,1.09,3.16a7.69,7.69,0,0,0,1.65-2c.39-.71.8-1.41,1.2-2.11a1.68,1.68,0,0,1,1.26-.34l.71.34a1.43,1.43,0,0,1,.34,1.19,13.9,13.9,0,0,1-1.44,2.65c-.58.84-1.4,1.88-2.46,3.13q.54,1.29,1.2,2.58a22.26,22.26,0,0,0,1.51,2.51l1.67-1.87a1.6,1.6,0,0,1,1.22-.34l.68.31a1.68,1.68,0,0,1,.38,1.22q-.61,1-2.76,3.84-.68.78-1.29.45a28.26,28.26,0,0,1-3.09-3.62,13.51,13.51,0,0,1-1.43-2.84c-1.08,1.06-2.16,2-3.21,2.87a11.28,11.28,0,0,1-3.45,1.92l-.71-.34a1.56,1.56,0,0,1-.34-1.22l.34-.68c1.06-.7,2.12-1.49,3.18-2.35a16.85,16.85,0,0,0,2.83-3c-.61-1.7-1.17-3.32-1.7-4.85a16.92,16.92,0,0,1-.91-3.85l-9.18.13v5.58a22.16,22.16,0,0,1,3.13-.48l.68.34a1.6,1.6,0,0,1,.34,1.22l-.31.68a4.09,4.09,0,0,1-1.8.56,8.06,8.06,0,0,0-1.87.39l.21,8.74C768.26,98.89,767.72,99.26,766.65,99.08Zm16.72-22.57-.68-.34a16.74,16.74,0,0,0-1-1.6,4,4,0,0,1-.68-1.73l.34-.68a1.76,1.76,0,0,1,1.32-.37l.68.34c.32.54.66,1.07,1,1.58a3,3,0,0,1,.52,1.75l-.3.68A1.53,1.53,0,0,1,783.37,76.51Z"/><path class="cls-2" d="M796.43,92.72c-.77.09-1.19-.11-1.26-.61s-.19-5.61-.37-15.33c0-1.09.41-1.68,1.17-1.78a12.24,12.24,0,0,1,3.18.15,9.62,9.62,0,0,1,1.14-2.45,16,16,0,0,0,1.27-2.34,1.59,1.59,0,0,1,1.23-.34l.67.34a1.53,1.53,0,0,1,.34,1.36,11.47,11.47,0,0,1-.84,1.73,16.48,16.48,0,0,0-.92,1.77,28.32,28.32,0,0,1,4.5.19q.76.18.66,1.92-.27,13.86-.54,14.69c-.18.56-.92.79-2.21.7Zm7.85-11,.14-3.74-7-.21.07,4ZM804.21,90l.07-5.64-6.63.06.21,5.65Zm17.3,8.94a3.17,3.17,0,0,1-1.46-.85l-1.26-1.26c-.41-.41-.85-.83-1.34-1.26a1.83,1.83,0,0,1-.66-1.6l.34-.68a1.64,1.64,0,0,1,1.25-.34A13,13,0,0,1,821,95.17c.41-2.92.74-6,1-9.14s.54-6.14.81-8.91l-10-.07a12.51,12.51,0,0,1-.61,2.59c-.28.72-.62,1.54-1,2.44a1.55,1.55,0,0,1-1.23.34l-.68-.34a1.59,1.59,0,0,1-.34-1.36,19.51,19.51,0,0,0,1.53-5.55,39.1,39.1,0,0,1,1.4-6.24,1.59,1.59,0,0,1,1.22-.34l.68.34a1.56,1.56,0,0,1,.34,1.36q-.27,1-.48,2c-.13.68-.25,1.36-.34,2l11,.07c.79-.09,1.2.39,1.22,1.46q-.68,7.55-1,12.59a41,41,0,0,1-1.12,7.87Q822.53,99.18,821.51,98.91ZM816.65,88.4l-.68-.34-2.65-3a1.59,1.59,0,0,1-.34-1.22l.34-.68a1.56,1.56,0,0,1,1.36-.34l.68.34,2.38,2.92a1.56,1.56,0,0,1,.51,1.29l-.37.68A1.55,1.55,0,0,1,816.65,88.4Z"/><path class="cls-2" d="M858.8,97.89l-24.88-.21-.68-.34a1.83,1.83,0,0,1-.34-1.29l.34-.68.68-.34,12.41.07V86.5l-8.23-.07a1.83,1.83,0,0,1-1-.4,1.55,1.55,0,0,1-.34-1.23l.34-.68.68-.34,8.46.07L846.05,77,834,77.26l-.68-.34a1.79,1.79,0,0,1-.34-1.29l.34-.72.68-.34q22.56-.27,23.55-.2a4.2,4.2,0,0,1,1.8.54,1.68,1.68,0,0,1,.34,1.26l-.34.68a1.85,1.85,0,0,1-1.49.34,72.89,72.89,0,0,0-9.14-.2l.2,7c3.22,0,5.17.08,5.86.1a3.79,3.79,0,0,1,1.85.51,1.53,1.53,0,0,1,.34,1.22l-.34.68a1.6,1.6,0,0,1-1.39.34l-6.25-.2V95.1h10.09l.75.41a1.69,1.69,0,0,1,.41,1.29l-.34.68A2.4,2.4,0,0,1,858.8,97.89Zm-10-24.27c-1-.54-2-1.12-3-1.73a26,26,0,0,0-3.1-1.6,1.6,1.6,0,0,1-.34-1.22l.34-.68a1.66,1.66,0,0,1,1.43-.41,32.15,32.15,0,0,1,2.92,1.5c1,.54,1.89,1.13,2.79,1.76a1.81,1.81,0,0,1,.34,1.29l-.34.68A2.14,2.14,0,0,1,848.84,73.62Z"/><path class="cls-2" d="M871.21,97.14a1.81,1.81,0,0,1-1-.41,1.56,1.56,0,0,1-.34-1.22l.34-.68a11.63,11.63,0,0,0,2.17-1.65,35.35,35.35,0,0,0,3.11-3.72,37.17,37.17,0,0,0,4.23-7.72,39.68,39.68,0,0,0,2.89-10.36,1.59,1.59,0,0,1,1.23-.34l.68.34a2.51,2.51,0,0,1,.34,1.9c-.28,1.52-.61,3-1,4.52s-.8,3-1.26,4.42a13.1,13.1,0,0,0,2.59,3.19q1.56,1.44,3.36,3.16a30.11,30.11,0,0,0,3.69,3.05q1.88,1.3,4.74,3.21a1.6,1.6,0,0,1,.34,1.22l-.34.68a1.79,1.79,0,0,1-1.29.34q-2-1.23-4.1-2.68a49.72,49.72,0,0,1-4.26-3.45q-2.22-2-3.57-3.28c-.91-.86-1.77-1.72-2.58-2.59q-1.1,2-2.25,3.88a41,41,0,0,1-2.78,4,21.07,21.07,0,0,1-3.37,3.47A3,3,0,0,1,871.21,97.14Z"/></g></g><g class="cls-1"><path class="cls-2" d="M943.7,434.09l-.68-.34a7.64,7.64,0,0,1-.54-3.26l-.27-13.83a10.46,10.46,0,0,0-1,1.9c-.25.63-.53,1.27-.85,1.9a1.56,1.56,0,0,1-1.22.34l-.68-.34a2,2,0,0,1-.41-1.22q1.77-3.87,3.53-7.77c1.18-2.59,2.44-5.14,3.78-7.63a1.75,1.75,0,0,1,1.36-.4l.68.34a1.65,1.65,0,0,1,.4,1.29,57.31,57.31,0,0,0-3,6.66l.51,21.34-.34.68A1.73,1.73,0,0,1,943.7,434.09Zm14-.55a8.28,8.28,0,0,1-2.52-1.76,3.37,3.37,0,0,1-1.29-2.31l.34-.68a1.59,1.59,0,0,1,1.23-.34,3.21,3.21,0,0,1,1,.61l.14-17.37-6.32-.07c-.27.78-.51,1.55-.71,2.32a12.42,12.42,0,0,1-.85,2.24,1.63,1.63,0,0,1-1.23.34l-.68-.34a1.83,1.83,0,0,1-.34-1.29q.75-2.65,1.77-5.32t1.9-5.25a1.81,1.81,0,0,1,1.29-.34l.68.34a1.74,1.74,0,0,1,.34,1.29c-.58,1.68-1,2.79-1.08,3.33l16.07.07c1.07,0,1.41.55,1,1.66a9.34,9.34,0,0,1-.81,2.28c-.37.7-.75,1.42-1.16,2.14a1.57,1.57,0,0,1-1.22.34l-.68-.34a1.74,1.74,0,0,1-.34-1.29l1-2h-5.88l-.07,20.77C959.17,433.52,958.64,433.86,957.74,433.54Zm-8.23-6.62a1.81,1.81,0,0,1-1-.41,2.3,2.3,0,0,1-.41-1.09c.37-1,.75-2,1.16-2.95a25,25,0,0,1,1.43-2.89,1.63,1.63,0,0,1,1.42-.41l.68.34a1.54,1.54,0,0,1,.34,1.22c-.86,1.63-1.43,2.82-1.73,3.57s-.6,1.49-.92,2.21A2.16,2.16,0,0,1,949.51,426.92Zm16.42.2-.68-.34-1.5-2.58a15.09,15.09,0,0,0-3-3.26l-.07-.82.34-.68a1.6,1.6,0,0,1,1.39-.34l.68.34a53,53,0,0,1,3.4,4.18,6,6,0,0,1,1,2.48l-.34.68A1.56,1.56,0,0,1,965.93,427.12Z"/><path class="cls-2" d="M989.72,415.77l-.68-.34-1.22-2.11-5.86.51c-1.74.16-3.46.29-5.18.38-1.11-.16-1.57-.68-1.36-1.57l5.3-9.14a1.74,1.74,0,0,1,1.32-.4l.68.34a1.74,1.74,0,0,1,.34,1.29q-.4.81-3.77,6.73c1.34-.16,2.55-.29,3.64-.38s2.17-.2,3.26-.34a3.15,3.15,0,0,1-1.16-2.28l.34-.67a1.54,1.54,0,0,1,1.36-.34l.68.34q1.5,2.2,2.45,3.73a12.74,12.74,0,0,1,1.43,3.23l-.34.68A1.59,1.59,0,0,1,989.72,415.77Zm-3,17.84a4.71,4.71,0,0,1-1.9-.85c-.59-.43-1.16-.87-1.7-1.32a1.63,1.63,0,0,1-.34-1.23l.34-.67a1.54,1.54,0,0,1,1.22-.34,11,11,0,0,1,1.3.74l-.07-2.24H979.7v4.55l-.34.68a1.55,1.55,0,0,1-1.23.34l-.67-.34a3.51,3.51,0,0,1-.48-1.15l-.07-14c0-.95.35-1.46,1-1.53s2.31-.08,5.06,0,4.33.09,4.71.14.57.43.54,1.15,0,5.72.17,15A1.33,1.33,0,0,1,986.73,433.61Zm-1.29-13.22-.07-1.49-5.81.07.07,1.36Zm.07,4.63v-2L979.7,423v2Zm15.53,8c-1.22-.09-2.44-.2-3.65-.34a5.8,5.8,0,0,1-3.27-1.48,5.15,5.15,0,0,1-1.76-2.83,69.15,69.15,0,0,1-.46-8.64,1.74,1.74,0,0,1,.41-.95,1.59,1.59,0,0,1,1.36-.34l.68.34a1.63,1.63,0,0,1,.34,1.23l-.07,2.1,7.44-.2.68.34a1.6,1.6,0,0,1,.34,1.22l-.34.68a2.25,2.25,0,0,1-1,.41l-7.17.2a24.64,24.64,0,0,0,.34,2.88,2.72,2.72,0,0,0,1.15,1.71,4.84,4.84,0,0,0,2.43.82c1,.09,2,.16,3,.2a3.71,3.71,0,0,1,.41-2.45,1.59,1.59,0,0,1,1.22-.34l.68.34a3.8,3.8,0,0,1,.37,1.87c0,.71,0,1.36,0,2a1,1,0,0,1-.75,1.13A8.07,8.07,0,0,1,1001,433Zm-.75-14.92c-1.13-.09-2.25-.19-3.34-.3a5.16,5.16,0,0,1-3.05-1.5,5.24,5.24,0,0,1-1.56-3.57c-.11-1.49-.24-4.06-.37-7.71a1.74,1.74,0,0,1,.41-.95,1.78,1.78,0,0,1,1.29-.34l.68.34a1.59,1.59,0,0,1,.34,1.22l-.07,1.43q6.07-.34,7.85-.48l.68.34a1.63,1.63,0,0,1,.34,1.23l-.34.67a40.17,40.17,0,0,1-8.4.89q.13,2,.24,3.12a2.72,2.72,0,0,0,1.19,1.94,5,5,0,0,0,2.74.92c1.1.07,2.48.08,4.16,0l.68.34a1.63,1.63,0,0,1,.34,1.23l-.34.68a3,3,0,0,1-1.63.47Z"/><path class="cls-2" d="M1013.18,420.53a1.81,1.81,0,0,1-.95-.41,2.75,2.75,0,0,1-.41-1.15,1.85,1.85,0,0,1,.41-1,6.89,6.89,0,0,0,1.56-.91,25.34,25.34,0,0,0,3-3.44l-1.77-.88a1.65,1.65,0,0,1-.4-1.29l.34-.68a1.56,1.56,0,0,1,1.36-.34l2,.95,1.9-4.11-4.18-.14c-.27.68-.56,1.36-.88,2s-.61,1.34-.88,2a1.86,1.86,0,0,1-1.29.34l-.68-.34A1.55,1.55,0,0,1,1012,410a19.5,19.5,0,0,1,1.12-2.65c.43-.84.8-1.55,1.12-2.14a1.24,1.24,0,0,1,1.29-.78c.54.07,1.13.11,1.75.14l5,.1c1.15.27,1.54.91,1.15,1.9a47.83,47.83,0,0,1-2.24,5.25,22.5,22.5,0,0,1-3.35,4.93,25.49,25.49,0,0,1-3,3A3.4,3.4,0,0,1,1013.18,420.53Zm3.67,12.06-.68-.34a2.7,2.7,0,0,1-.41-1.15,1.81,1.81,0,0,1,.41-1,10.31,10.31,0,0,0,2.63-1.89,27.89,27.89,0,0,0,2-2.09l-1.63-.88a1.64,1.64,0,0,1-.41-1.29l.34-.68a1.51,1.51,0,0,1,1.22-.34l1.77.88c.27-.73.54-1.44.81-2.14s.52-1.42.75-2.14l-3.33-.27c-.23.63-.47,1.27-.75,1.9s-.56,1.27-.88,1.9a1.63,1.63,0,0,1-1.26.34l-.68-.34a2.4,2.4,0,0,1-.41-1.09,19.13,19.13,0,0,1,1-2.48l.87-1.78a3.05,3.05,0,0,1,.68-.95q.39-.36,2-.15c1.09.13,2.07.22,2.93.27a5.21,5.21,0,0,1,2.21.54c.62.32.75,1,.41,2.18s-.81,2.48-1.43,4a17.06,17.06,0,0,1-2,3.86,15.86,15.86,0,0,1-2.45,2.63c-.88.75-1.57,1.33-2.06,1.73A2.84,2.84,0,0,1,1016.85,432.59Zm19.44.28a9.87,9.87,0,0,1-2.11-.79,22,22,0,0,1-1.93-1.12,1.51,1.51,0,0,1-.34-1.22l.34-.68a1.55,1.55,0,0,1,1.22-.34l2.28,1a83.37,83.37,0,0,0,1.76-9.41q.62-4.77.82-9.79l-9.14.07a16,16,0,0,1-.68,1.86c-.27.62-.57,1.22-.89,1.81a1.59,1.59,0,0,1-1.22.34l-.68-.34a1.57,1.57,0,0,1-.34-1.36c.59-1.36,1.14-2.74,1.67-4.13s1-2.79,1.39-4.2a1.6,1.6,0,0,1,1.22-.34l.68.34a2.19,2.19,0,0,1,.34,1.63l-.41,1.7c5.92,0,9.19,0,9.83,0s1,.64,1,1.84a37,37,0,0,1-.31,5.09q-.37,3.3-1,8.14a47.23,47.23,0,0,1-1.26,6.83,9.68,9.68,0,0,1-1,2.52A1.45,1.45,0,0,1,1036.29,432.87Zm-6.63-8.33c-.68,0-1.07-.23-1.19-.63s-.26-2.79-.44-7.19a1.22,1.22,0,0,1,1.22-1.15h5.44a1.64,1.64,0,0,1,1.07.47,2.32,2.32,0,0,1,.26,1.74c-.09.88-.18,1.9-.27,3.05a24.59,24.59,0,0,1-.33,2.67.94.94,0,0,1-1.14.84Zm3.88-2.24a13.75,13.75,0,0,0,.3-2.45c0-.77.06-1.54.1-2.31h-3.87l.14,5Z"/><path class="cls-2" d="M1074.32,416.38c-.63-.09-1.24-.2-1.83-.34a3.27,3.27,0,0,1-1.72-1.19,4.73,4.73,0,0,1-1-2.49c-.14-1-.25-2-.34-3.08h-1.63c0,3.33-.1,5.25-.16,5.76s-.28.79-.68.83-2.8.12-7.22.21c-.84-.05-1.27-.3-1.29-.77s-.13-2.54-.31-6.23l-2.31.06a22,22,0,0,1-.57,2.6,6.71,6.71,0,0,1-1,2.2,12.21,12.21,0,0,1-1.34,1.53,2.49,2.49,0,0,1-1.77.64l-.68-.34a1.78,1.78,0,0,1-.34-1.29,9.3,9.3,0,0,0,2.45-3c.22-.69.43-1.44.61-2.26l-3.6.14-.68-.34a1.74,1.74,0,0,1-.34-1.29l.34-.68a5.43,5.43,0,0,1,2.17-.38,13.74,13.74,0,0,0,2.24-.1l-.13-1.77.34-.67a1.58,1.58,0,0,1,1.26-.34l.68.34a3.51,3.51,0,0,1,.54,2.37l2-.06-.14-1.3a1.85,1.85,0,0,1,.41-.95,1.6,1.6,0,0,1,1.22-.34l.68.34a4.18,4.18,0,0,1,.48,2.25l4.49.13a4.82,4.82,0,0,1,.4-2.31,1.84,1.84,0,0,1,1.29-.34l.68.34a3.3,3.3,0,0,1,.28,2.38h1.63a4.22,4.22,0,0,1,.54-2.11,1.65,1.65,0,0,1,1.29-.4l.72.34a1.83,1.83,0,0,1,.34,1.29l-.21.81c.73.05,1.46.06,2.21,0a4.71,4.71,0,0,1,2.07.37,1.53,1.53,0,0,1,.34,1.22l-.34.68a4.51,4.51,0,0,1-2.72.41l-1.56-.07c.05.82.11,1.57.21,2.26a2.42,2.42,0,0,0,1.12,1.72c.65.45,1.87.56,3.63.34l.75.41a1.78,1.78,0,0,1,.34,1.29l-.34.68a3.64,3.64,0,0,1-1.63.44C1075.57,416.37,1075,416.38,1074.32,416.38Zm-11.38,17.78-.68-.34a19.18,19.18,0,0,1-.48-4.44,42.27,42.27,0,0,0-.13-4.57l-5.57-.07.54,6.56-.34.68a1.78,1.78,0,0,1-1.29.34l-.68-.34a14.92,14.92,0,0,1-.72-4.16c0-1.46-.13-2.9-.27-4.3-.07-.88.16-1.36.68-1.44s3-.06,7.44.08l-.13-2.11H1052l.34,3.33-.34.68a1.51,1.51,0,0,1-1.22.34l-.75-.4q-.62-1.15-.81-5.24c0-.93.36-1.38,1.22-1.36q25.08-.13,25.85,0c.5.06.63.85.39,2.36a24.5,24.5,0,0,1-1.09,4.69,1.55,1.55,0,0,1-1.23.34l-.68-.34a1.83,1.83,0,0,1-.34-1.29l.62-3.19h-10l.14,2.17,6.66.07c.9.11,1.28.75,1.12,1.9-.09,3.2-.19,5.09-.29,5.68a8.26,8.26,0,0,1-.48,1.7c-.21.54-.88.7-2,.47a6,6,0,0,1-2.44-1.08,1.59,1.59,0,0,1-.34-1.23l.34-.68a1.71,1.71,0,0,1,1.29-.37l1,.44a24.12,24.12,0,0,0,.27-4.18l-4.89-.07.2,8.4-.34.68A1.59,1.59,0,0,1,1062.94,434.16Zm2-20.84.14-4.11-4.36-.13.28,4.24Z"/><path class="cls-2" d="M1092.41,433.71a4.15,4.15,0,0,1-1.72-.88l-1.54-1.29a1.56,1.56,0,0,1-.34-1.22l.34-.68a1.45,1.45,0,0,1,1.22-.38l.92.41-.14-4.93c-.93.23-1.79.46-2.58.7s-1.6.44-2.41.6a1.86,1.86,0,0,1-1-.41,1.63,1.63,0,0,1-.38-1.23l.34-.68c.95-.31,1.92-.61,2.89-.88l3-.82v-6.38l-5.61.06a2.21,2.21,0,0,1-1-.37,1.61,1.61,0,0,1-.34-1.22l.34-.68.65-.38,6-.07v-4.86a12.12,12.12,0,0,0-2.33.84,12.87,12.87,0,0,1-2.09.8l-.68-.34a1.68,1.68,0,0,1-.37-1.23l.34-.68a21.16,21.16,0,0,1,5.11-2.24,52.41,52.41,0,0,1,5.42-1.26l.68.34a1.59,1.59,0,0,1,.34,1.23l-.34.68a8.92,8.92,0,0,1-1.66.52,11.54,11.54,0,0,0-1.7.5l-.07,5.67,8.7-.14c-.2-1.4-.38-2.72-.53-3.95s-.32-2.47-.52-3.69a1.8,1.8,0,0,1,.4-.95,1.47,1.47,0,0,1,1.19-.34l.72.3a24.25,24.25,0,0,1,.79,4.27c.15,1.48.35,2.93.6,4.33l6.08,0,.72.34a1.59,1.59,0,0,1,.34,1.22l-.34.68a2.23,2.23,0,0,1-1,.41h-5.33a26.65,26.65,0,0,0,.88,3.23c.36,1.06.72,2.12,1.09,3.16a7.61,7.61,0,0,0,1.64-2c.4-.71.8-1.41,1.21-2.11a1.68,1.68,0,0,1,1.26-.34l.71.34a1.46,1.46,0,0,1,.34,1.19,13.9,13.9,0,0,1-1.44,2.65c-.58.84-1.4,1.88-2.47,3.13.37.86.77,1.72,1.21,2.58a22.26,22.26,0,0,0,1.51,2.51l1.67-1.87a1.59,1.59,0,0,1,1.22-.34l.68.31a1.67,1.67,0,0,1,.37,1.22q-.6,1-2.75,3.84-.68.78-1.29.45a28.26,28.26,0,0,1-3.09-3.62,13.51,13.51,0,0,1-1.43-2.84q-1.63,1.59-3.21,2.87a11.28,11.28,0,0,1-3.45,1.92l-.71-.34a1.53,1.53,0,0,1-.34-1.22l.34-.68a38.61,38.61,0,0,0,3.17-2.35,16.9,16.9,0,0,0,2.84-2.95q-.92-2.55-1.7-4.85a17,17,0,0,1-.92-3.85l-9.17.13v5.57a23.46,23.46,0,0,1,3.12-.47l.68.34a1.53,1.53,0,0,1,.34,1.22l-.3.68a4.17,4.17,0,0,1-1.8.56,8.06,8.06,0,0,0-1.87.39l.2,8.74C1094,433.53,1093.48,433.9,1092.41,433.71Zm16.72-22.56-.68-.34a16.74,16.74,0,0,0-1-1.6,3.89,3.89,0,0,1-.68-1.73l.34-.68a1.72,1.72,0,0,1,1.32-.37l.68.34c.32.54.65,1.07,1,1.58a2.94,2.94,0,0,1,.53,1.75l-.31.68A1.49,1.49,0,0,1,1109.13,411.15Z"/><path class="cls-2" d="M1123.28,429.88l-.89-22.37a1.44,1.44,0,0,1,1.57-1.22q24-.14,25.2.17c.8.2,1,1,.76,2.41q-.81,19.78-1.12,20.84a1.3,1.3,0,0,1-1.5,1q-1.18-.06-22.39.07C1124,430.8,1123.48,430.51,1123.28,429.88Zm23-1.84.88-19.17-22-.07.61,19.24Zm-7-4.59h-7.14a1.27,1.27,0,0,1-1.44-1.12c-.13-.75-.26-3.27-.39-7.58a1.58,1.58,0,0,1,1.63-1.22q9.51.14,10.2.32c.45.13.65.92.61,2.4l-.14,5.77q-.11,1.16-.9,1.35A9.22,9.22,0,0,1,1139.35,423.45Zm.68-2.65.07-4.48-6.93-.14.2,4.55Z"/><path class="cls-2" d="M1159.82,415.16l-.68-.34a13.37,13.37,0,0,1-.75-3.65c-.09-1.31-.16-2.59-.21-3.86a1.52,1.52,0,0,1,1.64-1.16l10.7.28c0-.59,0-1.19,0-1.81a2.75,2.75,0,0,1,.44-1.66,1.56,1.56,0,0,1,1.22-.34l.68.34.34.68v2.92h12.47a1.47,1.47,0,0,1,1.09.92,4.45,4.45,0,0,1,0,1.95c-.13.88-.25,1.64-.34,2.3a4.34,4.34,0,0,1-.68,1.8,1.6,1.6,0,0,1-1.22.34l-.68-.34a1.78,1.78,0,0,1-.34-1.29,10,10,0,0,0,.54-3l-23.11-.41.48,5.27-.34.68A1.57,1.57,0,0,1,1159.82,415.16ZM1175,434q-1.29-.34-4.08-3.33l-.07-.81.34-.68a1.54,1.54,0,0,1,1.22-.34,12.57,12.57,0,0,1,2.25,1.83,10.37,10.37,0,0,0,.13-1.7c0-.59-.06-1.75-.2-3.5a25.77,25.77,0,0,1-5.37,3.5,24.49,24.49,0,0,1-5.74,1.9,1.77,1.77,0,0,1-1-.4,1.55,1.55,0,0,1-.34-1.23l.34-.68a38.2,38.2,0,0,0,5.7-2.12,18,18,0,0,0,5.2-3.69l-.4-.81a22.17,22.17,0,0,1-4.8,2.85,40.21,40.21,0,0,1-4.62,1.63l-.68-.34a1.59,1.59,0,0,1-.34-1.22l.34-.68c1.48-.73,3-1.39,4.52-2a12.8,12.8,0,0,0,4.22-2.75l-1.43-1.15c-1,.77-2.1,1.49-3.16,2.17a13.58,13.58,0,0,1-3.4,1.56l-.68-.34a1.55,1.55,0,0,1-.34-1.22l.34-.68q2.07-1.21,4-2.48a21.52,21.52,0,0,0,3.68-3l-4.42-.06a4.64,4.64,0,0,1-2.52-.55,1.49,1.49,0,0,1-.37-1.22l.37-.68a2.09,2.09,0,0,1,1.57-.34l15.87.2.68.34a1.63,1.63,0,0,1,.34,1.23l-.34.68a2.25,2.25,0,0,1-1.06.4h-6.32a27.14,27.14,0,0,0-2,2.25,13.33,13.33,0,0,1,2.93,4.21L1179,418a2.87,2.87,0,0,1,2.34-.95l.68.34a1.59,1.59,0,0,1,.34,1.23l-.34.68-4,3.19a26,26,0,0,0,2.83,2.82,50.23,50.23,0,0,0,5.36,3.74,1.61,1.61,0,0,1,.34,1.22l-.34.68a1.82,1.82,0,0,1-1.3.34,24.94,24.94,0,0,1-4-2.48,45.42,45.42,0,0,1-3.69-3.12,36.8,36.8,0,0,1,.13,4.09,8.28,8.28,0,0,1-.34,2.09,12.47,12.47,0,0,1-.66,1.66Q1176.06,434.36,1175,434Z"/><path class="cls-2" d="M1196.7,425.22a9.23,9.23,0,0,1-2-.17.85.85,0,0,1-.73-.92q0-.75-.15-7.8t.1-7.75c.17-.46.65-.66,1.44-.59h6.9q1.07.11,1,1l-.17,14.85c.18.68,0,1.06-.68,1.16S1199.91,425.17,1196.7,425.22Zm3.67-2.79.3-11.76h-4.25l.21,11.83Zm4.24,9.08a1.9,1.9,0,0,1-.95-.41,2.4,2.4,0,0,1-.41-1.09,6.58,6.58,0,0,0,.34-2.12,4.52,4.52,0,0,1,.48-2.06,1.83,1.83,0,0,1,1.29-.34l.68.34a1.57,1.57,0,0,1,.34,1.22c-.09.71-.17,1.41-.24,2.11a5.61,5.61,0,0,1-.51,1.94A2.27,2.27,0,0,1,1204.61,431.51Zm16.42,1.83a4,4,0,0,1-2-1.22l-1.22-1.09a1.51,1.51,0,0,1-.38-1.22l.38-.68a1.55,1.55,0,0,1,1.22-.34c.54.32,1.06.63,1.56.95a14.33,14.33,0,0,0,.45-3,32.5,32.5,0,0,1,.37-3.45h-15.12l-.68-.34a1.77,1.77,0,0,1-.41-1q-.14-15.6,0-16.49c.12-.61.66-.8,1.61-.6l15.57-.14.68.34a1.63,1.63,0,0,1,.34,1.23l-.34.68a6.47,6.47,0,0,1-2.31.51c-.82,0-2.37,0-4.66,0l.07,2.59h5.61l.68.37a1.83,1.83,0,0,1,.34,1.29l-.34.68a1.78,1.78,0,0,1-1.36.41l-4.93-.07-.07,2.58a27.81,27.81,0,0,0,3,.11,6.62,6.62,0,0,1,2.84.51,1.66,1.66,0,0,1,.41,1.29l-.34.68a1.84,1.84,0,0,1-1.29.34l-4.59-.28-.07,2.66q5.88-.07,7,.08c.72.1,1.11.35,1.15.75a11.62,11.62,0,0,1-.23,2.5q-.32,1.89-.51,4.23a13.84,13.84,0,0,1-.85,3.92C1222.2,433.22,1221.66,433.61,1221,433.34ZM1208.76,431l-.68-.34a5,5,0,0,1-.58-1.93c-.06-.71-.17-1.41-.3-2.11l.34-.68a1.78,1.78,0,0,1,1.29-.34l.68.34a7.78,7.78,0,0,1,.58,2c.11.72.19,1.41.23,2.09l-.34.68A1.55,1.55,0,0,1,1208.76,431Zm4.69-15.66.07-2.52h-5.78v2.38Zm0,5.3.07-2.65-5.78-.14.07,2.65Zm.07-10.5-.07-2.59-5.5.07-.14,2.52Zm-.68,20a1.81,1.81,0,0,1-.95-.41,17.75,17.75,0,0,1-.72-1.85,12.18,12.18,0,0,1-.44-2l.34-.68a1.57,1.57,0,0,1,1.22-.34l.68.34a11.19,11.19,0,0,1,.79,1.85,12.18,12.18,0,0,1,.44,2l-.34.68A2.25,2.25,0,0,1,1212.84,430.15Zm4.08-1.43a1.85,1.85,0,0,1-1-.41l-.81-1.61a5.59,5.59,0,0,1-.54-1.75l.34-.68a1.55,1.55,0,0,1,1.22-.34l.68.34.3.27a10.27,10.27,0,0,1,1.16,3.09l-.34.68A2.27,2.27,0,0,1,1216.92,428.72Z"/><path class="cls-2" d="M1244.21,423.66l-.68-.34a9.59,9.59,0,0,1-.54-3.27,30.33,30.33,0,0,0-.2-3.46,1.77,1.77,0,0,1,.4-.95l3.4-.82a4.61,4.61,0,0,0,2.65-1.6,2.92,2.92,0,0,0,.72-2.43,4,4,0,0,0-1-2,9.56,9.56,0,0,0-1.46-1.26,5.62,5.62,0,0,0-1.55-.73,4.91,4.91,0,0,0-1.83-.14,6.1,6.1,0,0,0-2,.55,7.41,7.41,0,0,0-1.76,1.15,4.68,4.68,0,0,0-1.23,1.68,3.27,3.27,0,0,0-.27,1.79,6.37,6.37,0,0,1,.07,1.56l-.34.68a1.78,1.78,0,0,1-1.29.34l-.85-.47a3,3,0,0,1-.54-2.38,9,9,0,0,1,.86-2.77,8.41,8.41,0,0,1,2-2.53,8.67,8.67,0,0,1,3.09-1.8,7.66,7.66,0,0,1,3.33-.45,10.79,10.79,0,0,1,2.82.68,8.67,8.67,0,0,1,4.32,4.68,6.35,6.35,0,0,1,.27,2.93,4.5,4.5,0,0,1-1,2.37,8.31,8.31,0,0,1-1.7,1.49,10.64,10.64,0,0,1-2.07,1.07,7.35,7.35,0,0,1-2.42.51l.28,4.9-.34.68A1.63,1.63,0,0,1,1244.21,423.66Zm1.36,9.55a3.76,3.76,0,0,1-1.46-.72,11.51,11.51,0,0,1-1.77-1.56,5.51,5.51,0,0,1-1.15-1.73,4,4,0,0,1-.21-1.82,2.42,2.42,0,0,1,.79-1.62,1.77,1.77,0,0,1,1.66-.39,5.22,5.22,0,0,1,2.21,1.34,3.3,3.3,0,0,1,2.55-1.27,2.12,2.12,0,0,1,1.82,1.07,2.84,2.84,0,0,1,0,2.46,6.18,6.18,0,0,1-1.65,2.45,14.92,14.92,0,0,1-1.67,1.34A2.75,2.75,0,0,1,1245.57,433.21Z"/></g></svg>