<?xml version="1.0" encoding="utf-8"?>
<!-- Generator: Adobe Illustrator 24.0.3, SVG Export Plug-In . SVG Version: 6.00 Build 0)  -->
<svg version="1.1" id="圖層_1" xmlns="http://www.w3.org/2000/svg" xmlns:xlink="http://www.w3.org/1999/xlink" x="0px" y="0px"
	 viewBox="0 0 375 120" style="enable-background:new 0 0 375 120;" xml:space="preserve">
<style type="text/css">
	.st0{fill:#818181;}
</style>
<path class="st0" d="M90,44.9v-1.6H78c0.4-0.8,0.8-1.6,1.1-2.4l-1-0.3c0.8-0.3,1.6-0.5,2.4-0.8c2.5,0.9,4.8,1.9,6.4,2.7l1.3-1.3
	c-1.5-0.7-3.4-1.5-5.5-2.3c1.8-0.8,3.4-1.7,4.8-2.6l-1.5-1c-1.5,1.1-3.4,2-5.5,2.8c-2.6-0.9-5.4-1.7-7.8-2.4l-1.2,1.1
	c2.1,0.6,4.5,1.3,6.7,2.1c-2.6,0.8-5.5,1.5-8.2,2c0.4,0.4,1,1.1,1.2,1.5c1.9-0.4,4-0.9,6-1.5c-0.3,0.8-0.6,1.6-1.1,2.4h-7.1v1.6h6.1
	c-1.7,2.4-3.9,4.6-6.6,6.1c0.4,0.3,0.9,0.9,1.2,1.3c1.2-0.7,2.4-1.5,3.4-2.5V56h1.8v-6.5h4.7v7.9h1.7v-7.9h5.2v4.4
	c0,0.3-0.1,0.4-0.5,0.4c-0.3,0-1.5,0-2.9,0c0.2,0.4,0.5,1.1,0.6,1.5c1.8,0,3,0,3.6-0.3c0.7-0.3,0.9-0.7,0.9-1.7v-6h-6.9v-2.4h-1.7
	v2.4h-4.6c0.8-0.9,1.5-1.9,2.2-3H90z M112,37.6l-0.1,1.7h-5c0-0.6,0.1-1.1,0.1-1.7H112z M106.5,42.2c0.1-0.5,0.2-1.1,0.3-1.7h5.1
	c0,0.6-0.1,1.2-0.1,1.7H106.5z M111.7,43.5c-0.1,1.1-0.3,1.6-0.5,1.8c-0.2,0.2-0.4,0.3-0.7,0.3c-0.4,0-1.2,0-2.2-0.1
	c0.2,0.4,0.4,1,0.4,1.4c1,0,1.9,0,2.5,0c0.6,0,1.1-0.2,1.4-0.6c0.6-0.7,0.8-3,1.1-9.3c0-0.2,0-0.7,0-0.7h-8.2
	c-0.1,4.7-0.5,8.1-3.2,10.1c0.4,0.2,0.8,0.8,1.1,1.2c1.4-1,2.3-2.4,2.8-4H111.7z M94.3,43.5c0,1.9,0.5,2.5,2.5,2.5h4.1
	c0.8,0,1.6,0,2-0.1c0-0.4-0.1-1.1-0.2-1.5c-0.4,0.1-1.3,0.1-1.8,0.1h-4.1c-0.6,0-0.8-0.3-0.8-1v-4h8v-1.5h-4.8v-2.5h-1.7v2.5h-4.9
	v1.5h1.8V43.5z M104.4,55.3v-2.1h7.1v-1.5h-7.1v-2.1h8.3v-1.5H94.5v1.5h8v2.1h-7v1.5h7v2.1h-9.6v1.5h21.1v-1.5H104.4z M135.7,45.9
	c1.9,0,2.4-0.8,2.7-3.7c-0.5-0.1-1.2-0.4-1.6-0.7c-0.1,2.4-0.3,2.8-1.2,2.8h-3.8c-1.1,0-1.3-0.1-1.3-0.9v-2.4
	c2.3-0.7,4.8-1.5,6.7-2.4l-1.2-1.3c-1.4,0.7-3.5,1.6-5.5,2.3v-4h-1.8v7.9c0,2,0.6,2.5,2.9,2.5H135.7z M119.7,51.1v-2.2h5.1v2.2
	H119.7z M124.7,45.4v2.1h-5.1v-2.1H124.7z M126.5,43.9H118v13.4h1.7v-4.9h5.1v2.8c0,0.3-0.1,0.4-0.4,0.4c-0.3,0-1.3,0-2.5,0
	c0.2,0.4,0.5,1.2,0.6,1.6c1.5,0,2.5,0,3.2-0.3c0.6-0.3,0.8-0.8,0.8-1.7V43.9z M123.5,37.7c0.6,0.7,1.1,1.6,1.6,2.5l-4.9,0.2
	c0.7-1.4,1.5-3,2.2-4.5l-1.8-0.4c-0.5,1.5-1.4,3.5-2.2,5c-0.7,0-1.3,0-1.8,0.1l0.2,1.7c2.4-0.1,5.9-0.3,9.3-0.5
	c0.3,0.5,0.5,1,0.6,1.4l1.5-0.7c-0.5-1.5-1.9-3.7-3.1-5.3L123.5,37.7z M131.8,55.5c-1.1,0-1.3-0.1-1.3-0.9v-2.8
	c2.4-0.7,5.2-1.6,7-2.7l-1.2-1.3c-1.4,0.9-3.6,1.8-5.8,2.5v-3.8h-1.8v8.1c0,2,0.6,2.5,2.9,2.5h4.3c2,0,2.5-0.8,2.8-4.1
	c-0.5-0.1-1.2-0.4-1.6-0.7c-0.1,2.7-0.3,3.2-1.3,3.2H131.8z M150,46.3h-3c0.4-0.6,0.7-1.2,1-1.7l-1.6-0.3c1.7-1.6,3.1-3.6,3.9-6.1
	l-1-0.6l-0.3,0.1h-3.4c0.4-0.6,0.8-1.3,1.1-2l-1.6-0.3c-0.8,1.8-2.4,4-4.8,5.6c0.4,0.2,0.9,0.8,1.1,1.2c1.2-0.9,2.2-1.9,3.1-3h3.7
	c-0.6,1.2-1.3,2.3-2.3,3.3c-0.6-0.6-1.4-1.2-2.1-1.5l-1.1,0.8c0.7,0.5,1.5,1.1,2.1,1.7c-1.3,1.1-2.7,1.8-4.1,2.4
	c0.3,0.3,0.7,0.9,0.9,1.3c1.7-0.7,3.3-1.6,4.7-2.9c-1,2-3,4.3-5.9,6c0.3,0.2,0.8,0.8,1,1.2c1.8-1.1,3.2-2.3,4.3-3.6h3.5
	c-0.5,1.4-1.3,2.7-2.2,3.8c-0.6-0.6-1.5-1.2-2.2-1.7l-1.2,0.9c0.8,0.5,1.7,1.3,2.3,1.9c-1.6,1.5-3.5,2.5-5.5,3.2
	c0.3,0.3,0.7,1,0.9,1.5c4.5-1.6,8.4-4.8,9.9-10.6l-1-0.5L150,46.3z M156.8,44.7v5.5h-2.7v-5.5H156.8z M158.2,51.6v-8.4h-5.7v10.2
	h1.5v-1.8H158.2z M154.5,39c0.4-1,0.7-2,1-3.1l-1.6-0.4c-0.8,3.1-2.3,6.1-4.1,8.1c0.4,0.3,1.1,0.8,1.3,1.1c0.9-1.1,1.8-2.5,2.6-4.2
	h6.4c-0.2,10.1-0.4,13.7-1,14.5c-0.2,0.3-0.4,0.4-0.8,0.4c-0.5,0-1.6,0-2.7-0.1c0.3,0.5,0.5,1.2,0.5,1.7c1.1,0,2.2,0.1,2.8,0
	c0.7-0.1,1.2-0.3,1.7-1c0.8-1.1,0.9-4.8,1.2-16.2c0-0.2,0-0.9,0-0.9H154.5z M181.4,47h-10v-2.4h10V47z M171.4,51.1v-2.5h10v2.5
	H171.4z M186,40.2v-1.7h-12.2c0.4-0.9,0.6-1.8,0.9-2.7l-1.8-0.4c-0.3,1-0.6,2.1-1.1,3.1h-6.8v1.7h6c-1.5,3.2-3.7,6-6.6,8
	c0.4,0.3,0.9,1,1.2,1.4c1.5-1.1,2.8-2.4,4-3.8v11.5h1.8v-4.7h10v2.5c0,0.4-0.1,0.5-0.6,0.5c-0.4,0-1.9,0-3.5,0
	c0.2,0.5,0.5,1.2,0.6,1.8c2,0,3.4,0,4.2-0.3c0.8-0.3,1-0.8,1-1.9V43h-11.6c0.5-0.9,1-1.8,1.5-2.8H186z M188.7,45.2v1.9h21.8v-1.9
	H188.7z M217.3,35.5c-1.2,3.6-3.1,7.2-5.3,9.6c0.3,0.4,0.8,1.4,0.9,1.8c0.8-0.9,1.6-2,2.3-3.2v13.6h1.7V40.6
	c0.7-1.5,1.4-3.1,1.9-4.7L217.3,35.5z M228.8,51h-4.1v-3.7h4.1V51z M231.1,43.3v-1.4h-3.7v-2.7H226v2.7h-3.6v1.4h3.6v2.6h-2.6v6.4
	h6.8v-6.4h-2.8v-2.6H231.1z M221.4,54.3V38.4h10.6v15.9H221.4z M219.7,36.9v20.4h1.7v-1.4h10.6v1.2h1.7V36.9H219.7z M239.4,39.2
	h16.2v3.1h1.8v-4.7h-9.1v-2.1h-1.8v2.1h-8.9v4.7h1.8V39.2z M255.8,44c-1.1,1-2.9,2.3-4.3,3.2c-0.6-1.2-1.2-2.6-1.5-4h4.2v-1.5h-13.4
	v1.5h5.1c-2.3,1.5-5.4,2.6-8.3,3.3c0.3,0.3,0.8,1.1,1,1.4c1.9-0.6,4-1.3,5.9-2.3c0.4,0.4,0.8,0.7,1.1,1.1c-1.8,1.4-5.2,3-7.8,3.7
	c0.3,0.4,0.7,1,1,1.4c2.4-0.9,5.6-2.5,7.7-4c0.3,0.5,0.6,1,0.8,1.5c-2.4,2.2-6.7,4.5-10.3,5.4c0.3,0.4,0.7,1.1,0.9,1.5
	c3.3-1.1,7.3-3.2,9.9-5.4c0.5,2,0.1,3.8-0.8,4.4c-0.5,0.4-1,0.5-1.7,0.5c-0.5,0-1.3,0-2.2-0.1c0.3,0.5,0.5,1.2,0.5,1.7
	c0.8,0,1.5,0.1,2.1,0c1.1,0,1.8-0.2,2.5-0.8c2.4-1.6,2.3-7.8-2.3-11.8c0.9-0.5,1.7-1.1,2.4-1.7h0c1.5,5.7,4.3,10.2,8.8,12.3
	c0.3-0.5,0.8-1.2,1.2-1.5c-2.6-1-4.6-2.9-6.2-5.4c1.6-0.9,3.5-2.2,5-3.4L255.8,44z M263.3,58.1c2.5-0.9,4.2-2.9,4.2-5.4
	c0-1.7-0.7-2.8-2-2.8c-1,0-1.8,0.6-1.8,1.7c0,1.1,0.8,1.7,1.8,1.7c0.1,0,0.3,0,0.4,0c-0.1,1.6-1.2,2.8-3,3.5L263.3,58.1z M68.7,73.2
	v1.9h21.8v-1.9H68.7z M97.3,63.5c-1.2,3.6-3.1,7.2-5.3,9.6c0.3,0.4,0.8,1.4,0.9,1.8c0.8-0.9,1.6-2,2.3-3.2v13.6H97V68.6
	c0.7-1.5,1.4-3.1,1.9-4.7L97.3,63.5z M108.8,79h-4.1v-3.7h4.1V79z M111.1,71.3v-1.4h-3.7v-2.7H106v2.7h-3.6v1.4h3.6v2.6h-2.6v6.4
	h6.8v-6.4h-2.8v-2.6H111.1z M101.4,82.3V66.4h10.6v15.9H101.4z M99.7,64.9v20.4h1.7v-1.4h10.6v1.2h1.7V64.9H99.7z M132.6,78.8v1.6
	h-9.9v-1.6H132.6z M122.6,83.3v-1.7h9.9v1.7H122.6z M120.9,85.3h1.7v-0.7h9.9v0.7h1.8v-7.8h-13.5V85.3z M130.9,75.1
	c0.5-0.7,1.1-1.8,1.6-2.8l-1.5-0.5c-0.3,0.8-0.9,2.1-1.4,2.9L130.9,75.1z M122.5,72.2c0.6,0.9,1.2,2,1.3,2.8l1.4-0.5
	c-0.2-0.8-0.8-1.9-1.4-2.7L122.5,72.2z M121,71.6h5.7v3.6H121V71.6z M134.1,75.1h-5.9v-3.6h5.9V75.1z M119.5,76.4h16.2v-6h-16.2
	V76.4z M123.7,67.8c1.5-1,2.8-1.9,3.7-2.9c1,1,2.4,2,3.9,2.9H123.7z M126.5,63.4c-2,2.3-6,4.8-10.1,6.1c0.3,0.3,0.7,1,1,1.4
	c2.1-0.8,4.2-1.8,6-3v1.1h8.3v-1c1.9,1.1,4,2.1,5.9,2.8c0.3-0.5,0.7-1.1,1.1-1.5c-3.7-1.1-7.8-3.3-10.5-5.9H126.5z M147.8,70
	c-0.3,3.1-0.9,5.8-1.8,7.9c-0.9-0.6-1.9-1.2-2.8-1.8c0.5-1.9,1-4,1.5-6.2H147.8z M148.5,68.3l-0.3,0.1h-3.2c0.4-1.7,0.7-3.3,1-4.7
	l-1.7-0.2c-0.3,1.5-0.6,3.2-1,4.9h-2.6V70h2.3c-0.7,3-1.4,6-2,8l1.5,0.8l0.3-1c0.8,0.5,1.7,1.1,2.5,1.7c-1.1,2.1-2.6,3.6-4.3,4.5
	c0.4,0.4,0.9,1,1.1,1.4c1.9-1.1,3.4-2.7,4.6-4.8c1,0.8,1.9,1.7,2.4,2.4l1.1-1.4c-0.6-0.8-1.6-1.7-2.7-2.5c1.2-2.7,1.9-6.1,2.2-10.5
	L148.5,68.3z M162.5,73h-5.7v-2.1c1.8-1.4,3.9-3.6,5.2-5.5l-1.2-0.9l-0.4,0.1h-10.3v1.6h9c-1,1.2-2.2,2.6-3.4,3.6h-0.7V73h-5.6v1.7
	h5.6v8.4c0,0.4-0.1,0.5-0.5,0.5c-0.4,0-1.8,0-3.3,0c0.3,0.5,0.6,1.2,0.7,1.7c1.9,0,3.1,0,3.9-0.3c0.8-0.3,1-0.8,1-1.9v-8.4h5.7V73z
	 M171.8,70c-0.3,3.1-0.9,5.8-1.8,7.9c-0.9-0.6-1.9-1.2-2.8-1.8c0.5-1.9,1-4,1.5-6.2H171.8z M172.5,68.3l-0.3,0.1h-3.2
	c0.4-1.7,0.7-3.3,1-4.7l-1.7-0.2c-0.3,1.5-0.6,3.2-1,4.9h-2.6V70h2.3c-0.7,3-1.4,6-2,8l1.5,0.8l0.3-1c0.8,0.5,1.7,1.1,2.5,1.7
	c-1.1,2.1-2.6,3.6-4.3,4.5c0.4,0.4,0.9,1,1.1,1.4c1.9-1.1,3.4-2.7,4.6-4.8c1,0.8,1.9,1.7,2.4,2.4l1.1-1.4c-0.6-0.8-1.6-1.7-2.7-2.5
	c1.2-2.7,1.9-6.1,2.2-10.5L172.5,68.3z M186.5,73h-5.7v-2.1c1.8-1.4,3.9-3.6,5.2-5.5l-1.2-0.9l-0.4,0.1h-10.3v1.6h9
	c-1,1.2-2.2,2.6-3.4,3.6h-0.7V73h-5.6v1.7h5.6v8.4c0,0.4-0.1,0.5-0.5,0.5c-0.4,0-1.8,0-3.3,0c0.3,0.5,0.6,1.2,0.7,1.7
	c1.9,0,3.1,0,3.9-0.3c0.8-0.3,1-0.8,1-1.9v-8.4h5.7V73z M197.6,66c0.6,0.9,1.2,2.2,1.4,3h-4.2l0.8-0.3c-0.2-0.7-0.8-1.8-1.5-2.5
	c1.3-0.1,2.6-0.1,3.9-0.2L197.6,66z M191.1,70.4h6.8l-0.7,0.7c1.3,0.6,2.8,1.5,3.6,2.1l0.9-1.1c-0.7-0.6-1.9-1.2-3.1-1.8h9.1v2.9
	h1.7V69h-4.3c0.7-0.9,1.4-1.9,2.1-2.9l-1.7-0.6c-0.5,1-1.5,2.5-2.2,3.5h-4.3l1.5-0.5c-0.2-0.7-0.7-1.8-1.3-2.7
	c3.4-0.2,6.6-0.6,9-1.1l-1.2-1.2c-3.9,0.8-11,1.3-16.9,1.4c0.2,0.3,0.3,1,0.4,1.4c0.8,0,1.6,0,2.4-0.1l-0.7,0.3
	c0.6,0.8,1.2,1.8,1.5,2.6h-4.4v4.2h1.7V70.4z M204,72.4c1.4,1.1,3,2.7,3.7,3.8l1.3-1c-0.7-1.1-2.4-2.6-3.7-3.7L204,72.4z
	 M191.3,76.5c1.6-0.9,2.5-2.5,3-4.1l-1.3-0.6c-0.5,1.4-1.5,2.9-2.9,3.6L191.3,76.5z M203.3,78.9c-1,1-2.3,1.8-3.8,2.5
	c-1.6-0.7-2.9-1.5-3.9-2.5H203.3z M204.9,77.5l-0.3,0.1h-7.5c0.5-0.5,0.9-0.9,1.3-1.4L198,76h3.9c1.6,0,2-0.5,2.2-2.4
	c-0.5-0.1-1.1-0.3-1.4-0.5c-0.1,1.4-0.2,1.6-1,1.6h-3.5c-1,0-1.2-0.1-1.2-0.6v-2.3h-1.7v2.3c0,1.1,0.3,1.6,1.3,1.8
	c-1.8,2-4.6,3.7-7.4,4.8c0.3,0.3,1,0.9,1.2,1.2c1.3-0.6,2.7-1.3,3.9-2.2c0.9,0.9,2,1.8,3.3,2.4c-2.6,0.9-5.7,1.4-8.8,1.7
	c0.3,0.4,0.8,1.1,0.9,1.5c3.4-0.4,6.8-1.1,9.7-2.3c2.8,1.2,6.2,1.9,9.7,2.3c0.2-0.5,0.6-1.2,1-1.6c-3.2-0.2-6.2-0.8-8.8-1.6
	c1.9-1,3.4-2.3,4.5-3.9L204.9,77.5z M233.5,68c-0.8-1.1-2.4-2.8-3.8-4l-1.4,0.9c1.4,1.2,3,3,3.7,4.1L233.5,68z M231.4,73.3
	c-0.8,1.5-1.9,3-3.1,4.4c-0.4-1.6-0.7-3.4-1-5.5h6.9v-1.7h-7.1c-0.2-2.1-0.3-4.4-0.3-6.8H225c0,2.4,0.1,4.7,0.3,6.8h-5.5v-4.2
	c1.5-0.3,2.9-0.7,4-1.1l-1.3-1.5c-2.3,0.8-6.1,1.7-9.5,2.2c0.2,0.4,0.5,1.1,0.6,1.5c1.4-0.2,2.9-0.4,4.4-0.7v3.8h-5.1v1.7h5.1v4.2
	c-2.1,0.4-4,0.8-5.5,1.1l0.5,1.8c1.4-0.3,3.2-0.7,5-1.1V83c0,0.4-0.1,0.6-0.6,0.6c-0.4,0-1.8,0-3.4,0c0.3,0.5,0.6,1.3,0.7,1.8
	c1.9,0,3.2,0,4-0.3s1-0.8,1-2v-5.3c1.5-0.3,3-0.7,4.4-1l-0.1-1.6c-1.4,0.3-2.9,0.6-4.3,0.9v-3.8h5.6c0.3,2.6,0.8,5,1.3,7
	c-1.7,1.6-3.7,2.9-5.7,3.9c0.5,0.4,1,1,1.2,1.4c1.8-0.9,3.5-2.1,5.1-3.5c1.1,2.8,2.5,4.5,4.4,4.5c1.8,0,2.4-1.2,2.8-5.1
	c-0.5-0.2-1.1-0.6-1.5-1c-0.1,3.1-0.4,4.3-1.1,4.3c-1.2,0-2.3-1.5-3.2-4.1c1.7-1.7,3.1-3.6,4.2-5.6L231.4,73.3z M244.3,73.9h-5v-5h5
	V73.9z M239.3,81.2v-5.8h5v5.8H239.3z M241.3,63.4c-0.2,1.1-0.6,2.7-1,3.9h-2.7v17.5h1.6v-1.9h6.7V67.3h-4c0.4-1,0.8-2.4,1.2-3.5
	L241.3,63.4z M257.7,67.2h-7.2c0.4-1.1,0.7-2.3,1-3.5l-1.7-0.4c-0.8,3.3-2.1,6.6-3.7,8.7c0.4,0.2,1.2,0.7,1.5,1
	c0.8-1.1,1.6-2.6,2.3-4.2h6.1c-0.3,9.6-0.7,13.2-1.5,14c-0.2,0.3-0.5,0.4-1,0.4c-0.6,0-2,0-3.6-0.1c0.3,0.5,0.6,1.2,0.6,1.8
	c1.3,0.1,2.7,0.1,3.6,0c0.8-0.1,1.4-0.3,1.9-1c1-1.2,1.3-4.9,1.7-15.8V67.2z M253.9,78c-0.8-1.4-2.4-3.7-3.8-5.4l-1.4,0.8
	c1.3,1.7,2.9,4.1,3.6,5.5L253.9,78z M272.4,82.8v-5.9h7.5v-1.7h-7.5v-5.3h8.5v-1.8h-7.8l1.1-0.8c-0.9-1.1-2.9-2.8-4.4-3.9l-1.4,1
	c1.4,1.1,3.1,2.6,4.1,3.7H262v1.8h8.5v5.3h-7.4v1.7h7.4v5.9h-9.6v1.8h21.2v-1.8H272.4z M294.3,64.2c-0.2,3.2-0.2,14.6-9.9,19.6
	c0.6,0.4,1.1,0.9,1.4,1.4c6.1-3.3,8.5-9.1,9.6-13.9c1.2,4.8,3.8,10.9,10,13.9c0.3-0.5,0.8-1.1,1.3-1.5c-9-4.1-10.3-15.2-10.5-18.4
	c0-0.4,0-0.8,0-1.1H294.3z"/>
</svg>
