<svg id="圖層_1" data-name="圖層 1" xmlns="http://www.w3.org/2000/svg" viewBox="0 0 768 313.51"><defs><style>.cls-1{isolation:isolate;}.cls-2{fill:#818181;}</style></defs><title>wishahome</title><g class="cls-1"><path class="cls-2" d="M429.91,287.35l-.5-.25a5.7,5.7,0,0,1-.4-2.39l-.2-10.14a7.68,7.68,0,0,0-.72,1.39c-.18.47-.39.93-.62,1.4a1.18,1.18,0,0,1-.9.25l-.5-.25a1.48,1.48,0,0,1-.3-.9q1.31-2.83,2.59-5.69c.87-1.91,1.79-3.77,2.77-5.6a1.32,1.32,0,0,1,1-.3l.5.25a1.24,1.24,0,0,1,.3.95,40,40,0,0,0-2.22,4.88l.37,15.65-.25.5A1.21,1.21,0,0,1,429.91,287.35Zm10.29-.4a6.27,6.27,0,0,1-1.84-1.29,2.47,2.47,0,0,1-.95-1.7l.25-.5a1.16,1.16,0,0,1,.9-.24,2.63,2.63,0,0,1,.75.44l.1-12.73-4.64-.05c-.2.56-.37,1.13-.52,1.69a8.25,8.25,0,0,1-.63,1.65,1.16,1.16,0,0,1-.89.25l-.5-.25a1.3,1.3,0,0,1-.25-1c.36-1.29.8-2.59,1.29-3.9s1-2.59,1.4-3.85a1.34,1.34,0,0,1,.95-.25l.5.25a1.34,1.34,0,0,1,.24,1c-.43,1.23-.69,2-.79,2.44l11.78,0c.79,0,1,.41.75,1.22a6.5,6.5,0,0,1-.6,1.67c-.26.52-.54,1-.84,1.57a1.18,1.18,0,0,1-.9.25l-.5-.25a1.33,1.33,0,0,1-.25-.95l.7-1.49H441.4l0,15.23C441.25,286.94,440.87,287.19,440.2,287Zm-6-4.86a1.3,1.3,0,0,1-.7-.3,1.76,1.76,0,0,1-.3-.79c.27-.73.55-1.46.85-2.17a19.85,19.85,0,0,1,1.05-2.12,1.25,1.25,0,0,1,1.05-.3l.49.25a1.13,1.13,0,0,1,.25.9c-.63,1.19-1.05,2.07-1.27,2.61s-.44,1.09-.67,1.62A1.53,1.53,0,0,1,434.17,282.09Zm12,.15-.5-.25-1.1-1.89a10.8,10.8,0,0,0-2.16-2.39l-.05-.6.25-.5a1.21,1.21,0,0,1,1-.25l.5.25c1.29,1.5,2.12,2.52,2.49,3.07a4.29,4.29,0,0,1,.69,1.82l-.24.49A1.15,1.15,0,0,1,446.21,282.24Z"/><path class="cls-2" d="M463.4,273.92l-.49-.25-.9-1.55-4.3.38c-1.27.12-2.54.21-3.8.27-.82-.11-1.15-.5-1-1.14l3.89-6.71a1.31,1.31,0,0,1,1-.3l.5.25a1.34,1.34,0,0,1,.25.95q-.3.6-2.77,4.93,1.47-.17,2.67-.27c.8-.07,1.59-.15,2.39-.25a2.34,2.34,0,0,1-.85-1.67l.25-.5a1.19,1.19,0,0,1,1-.25l.5.25c.73,1.08,1.33,2,1.79,2.74a8.94,8.94,0,0,1,1.05,2.37l-.25.5A1.17,1.17,0,0,1,463.4,273.92ZM461.21,287a3.41,3.41,0,0,1-1.39-.62c-.44-.32-.85-.64-1.25-1a1.17,1.17,0,0,1-.25-.9l.25-.5a1.17,1.17,0,0,1,.9-.25,9.64,9.64,0,0,1,.94.55l-.05-1.64h-4.31V286l-.25.49a1.12,1.12,0,0,1-.89.25l-.5-.25a2.38,2.38,0,0,1-.35-.84L454,275.37c0-.7.25-1.08.71-1.13s1.69-.05,3.71,0,3.17.07,3.45.1.42.31.4.85,0,4.19.13,11A1,1,0,0,1,461.21,287Zm-.95-9.69-.05-1.1-4.26.05.05,1Zm.05,3.39v-1.45l-4.26-.05v1.5Zm11.39,5.85c-.89-.06-1.79-.14-2.68-.24a4.3,4.3,0,0,1-2.39-1.09,3.75,3.75,0,0,1-1.29-2.08,51.34,51.34,0,0,1-.34-6.33,1.27,1.27,0,0,1,.3-.7,1.17,1.17,0,0,1,1-.25l.5.25a1.14,1.14,0,0,1,.25.9l-.05,1.54,5.46-.14.5.24a1.19,1.19,0,0,1,.25.9l-.25.5a1.53,1.53,0,0,1-.75.3l-5.26.15a19,19,0,0,0,.25,2.1,2,2,0,0,0,.85,1.26,3.43,3.43,0,0,0,1.78.6c.72.07,1.45.12,2.18.15a2.72,2.72,0,0,1,.3-1.79,1.13,1.13,0,0,1,.9-.25l.5.25a2.76,2.76,0,0,1,.27,1.37c0,.51,0,1,0,1.44a.77.77,0,0,1-.54.83A6.13,6.13,0,0,1,471.7,286.55Zm-.55-10.94c-.83-.06-1.64-.14-2.45-.22a3.72,3.72,0,0,1-2.23-1.1,3.89,3.89,0,0,1-1.15-2.61c-.08-1.1-.17-3-.27-5.66a1.27,1.27,0,0,1,.3-.7,1.32,1.32,0,0,1,.94-.25l.5.25a1.13,1.13,0,0,1,.25.9l-.05,1q4.47-.25,5.76-.35l.5.25a1.16,1.16,0,0,1,.25.89l-.25.5a29.37,29.37,0,0,1-6.16.65c.07,1,.13,1.74.18,2.29a2,2,0,0,0,.87,1.42,3.63,3.63,0,0,0,2,.68c.8,0,1.82,0,3.05,0l.5.25a1.17,1.17,0,0,1,.25.9l-.25.5a2.23,2.23,0,0,1-1.2.34Z"/><path class="cls-2" d="M480.35,277.41a1.27,1.27,0,0,1-.7-.3,2.22,2.22,0,0,1-.3-.85,1.47,1.47,0,0,1,.3-.7,5,5,0,0,0,1.15-.67,18.48,18.48,0,0,0,2.19-2.52l-1.29-.64a1.18,1.18,0,0,1-.3-1l.25-.5a1.16,1.16,0,0,1,1-.25l1.47.7,1.4-3-3.07-.1c-.2.5-.41,1-.64,1.49s-.45,1-.65,1.48a1.34,1.34,0,0,1-.95.25l-.5-.25a1.17,1.17,0,0,1-.25-.9,14.7,14.7,0,0,1,.83-1.94c.31-.62.58-1.14.82-1.57a.91.91,0,0,1,.94-.57c.4,0,.83.08,1.29.1l3.62.07c.85.2,1.13.66.85,1.4a35.57,35.57,0,0,1-1.64,3.85,16.49,16.49,0,0,1-2.46,3.61,18.21,18.21,0,0,1-2.18,2.22A2.46,2.46,0,0,1,480.35,277.41Zm2.69,8.85-.5-.25a2.22,2.22,0,0,1-.3-.85,1.43,1.43,0,0,1,.3-.7,7.56,7.56,0,0,0,1.93-1.38c.66-.62,1.15-1.14,1.49-1.53l-1.2-.65a1.24,1.24,0,0,1-.3-.95l.25-.5a1.17,1.17,0,0,1,.9-.25l1.29.65.6-1.57c.2-.51.38-1,.55-1.57l-2.44-.2c-.17.47-.35.93-.55,1.4s-.41.93-.65,1.39a1.2,1.2,0,0,1-.92.25l-.5-.25a1.8,1.8,0,0,1-.3-.8,12.45,12.45,0,0,1,.73-1.81l.63-1.31a2.25,2.25,0,0,1,.5-.7c.19-.18.69-.21,1.49-.11s1.53.16,2.16.2a3.79,3.79,0,0,1,1.62.4q.68.34.3,1.59t-1.05,3a12.1,12.1,0,0,1-1.49,2.82,11.56,11.56,0,0,1-1.8,1.94l-1.5,1.27A2.16,2.16,0,0,1,483,286.26Zm14.26.2a7.18,7.18,0,0,1-1.55-.58c-.48-.25-.95-.52-1.42-.82a1.17,1.17,0,0,1-.25-.9l.25-.5a1.13,1.13,0,0,1,.9-.24l1.67.74a59.87,59.87,0,0,0,1.29-6.9q.45-3.5.6-7.18l-6.7.05a9.78,9.78,0,0,1-.5,1.37c-.2.45-.42.89-.65,1.32a1.13,1.13,0,0,1-.9.25l-.49-.25a1.11,1.11,0,0,1-.25-1c.43-1,.84-2,1.22-3s.72-2.05,1-3.08a1.17,1.17,0,0,1,.9-.25l.5.25a1.66,1.66,0,0,1,.25,1.2l-.3,1.24q6.5,0,7.2,0t.75,1.35a27.89,27.89,0,0,1-.23,3.74q-.27,2.42-.75,6a34.24,34.24,0,0,1-.92,5,7,7,0,0,1-.75,1.85A1,1,0,0,1,497.3,286.46Zm-4.86-6.11c-.5,0-.79-.17-.88-.46s-.19-2.05-.32-5.27a.9.9,0,0,1,.9-.85h4a1.18,1.18,0,0,1,.78.35,1.72,1.72,0,0,1,.19,1.27c-.07.65-.14,1.4-.2,2.24a18.93,18.93,0,0,1-.24,2,.68.68,0,0,1-.83.61Zm2.84-1.65a9.71,9.71,0,0,0,.22-1.79c0-.56,0-1.13.08-1.69h-2.84l.1,3.63Z"/><path class="cls-2" d="M524.93,274.37c-.46-.07-.91-.15-1.34-.25a2.45,2.45,0,0,1-1.26-.87,3.53,3.53,0,0,1-.76-1.83c-.1-.74-.18-1.5-.25-2.26h-1.2c0,2.44-.07,3.85-.11,4.22s-.21.58-.5.61-2,.09-5.29.15c-.62,0-.93-.22-1-.56s-.09-1.86-.22-4.57l-1.7.05a16.79,16.79,0,0,1-.42,1.91,4.86,4.86,0,0,1-.76,1.6,8.69,8.69,0,0,1-1,1.13,1.81,1.81,0,0,1-1.29.47l-.5-.25a1.34,1.34,0,0,1-.25-.95,6.65,6.65,0,0,0,1.79-2.2,15.86,15.86,0,0,0,.45-1.66l-2.64.1-.5-.25A1.34,1.34,0,0,1,506,268l.25-.5a4.05,4.05,0,0,1,1.6-.27,11.07,11.07,0,0,0,1.64-.07l-.1-1.3.25-.5a1.2,1.2,0,0,1,.92-.25l.5.25a2.59,2.59,0,0,1,.4,1.75l1.5-.05-.1-.95a1.27,1.27,0,0,1,.3-.7,1.16,1.16,0,0,1,.89-.25l.5.25a3.08,3.08,0,0,1,.35,1.65l3.29.1a3.59,3.59,0,0,1,.3-1.7,1.34,1.34,0,0,1,.95-.25l.49.25a2.39,2.39,0,0,1,.2,1.75h1.2a3,3,0,0,1,.4-1.55,1.23,1.23,0,0,1,.95-.3l.52.25a1.34,1.34,0,0,1,.25.95l-.15.6c.53,0,1.07,0,1.62,0a3.64,3.64,0,0,1,1.52.27,1.19,1.19,0,0,1,.25.9l-.25.5a3.33,3.33,0,0,1-2,.3l-1.15-.05c0,.6.08,1.15.15,1.66a1.79,1.79,0,0,0,.82,1.26,4.11,4.11,0,0,0,2.67.24l.55.3a1.36,1.36,0,0,1,.25.95l-.25.5a2.62,2.62,0,0,1-1.2.32Q525.64,274.37,524.93,274.37Zm-8.34,13-.5-.25a13.11,13.11,0,0,1-.35-3.25,31.69,31.69,0,0,0-.1-3.35l-4.09-.05.4,4.81-.25.5a1.34,1.34,0,0,1-.95.25l-.5-.25a11,11,0,0,1-.52-3.06c0-1.07-.1-2.12-.2-3.15,0-.65.12-1,.5-1.06s2.2,0,5.46.06l-.1-1.54h-6.85l.24,2.44-.24.5a1.19,1.19,0,0,1-.9.25l-.55-.3a11.22,11.22,0,0,1-.6-3.84q0-1,.9-1,18.39-.11,19,0c.38,0,.47.62.29,1.73a18.49,18.49,0,0,1-.8,3.44,1.17,1.17,0,0,1-.9.25l-.49-.25a1.3,1.3,0,0,1-.25-.95l.45-2.34h-7.31l.1,1.59,4.89.05c.66.09.94.55.82,1.4-.07,2.34-.14,3.73-.21,4.16a6.61,6.61,0,0,1-.35,1.25c-.16.4-.64.51-1.46.35a4.47,4.47,0,0,1-1.79-.8,1.13,1.13,0,0,1-.25-.9l.25-.5a1.28,1.28,0,0,1,.94-.27l.7.32a16.77,16.77,0,0,0,.2-3.06l-3.59-.05.15,6.15-.25.5A1.12,1.12,0,0,1,516.59,287.4Zm1.49-15.28.1-3L515,269l.2,3.11Z"/><path class="cls-2" d="M537.94,287.08a3.16,3.16,0,0,1-1.26-.65l-1.13-.95a1.16,1.16,0,0,1-.25-.89l.25-.5a1.07,1.07,0,0,1,.9-.28l.67.3-.1-3.61c-.68.17-1.31.33-1.89.51s-1.17.32-1.77.44a1.43,1.43,0,0,1-.7-.3,1.23,1.23,0,0,1-.28-.9l.25-.5c.7-.23,1.41-.45,2.12-.65l2.17-.6v-4.68l-4.11.05a1.5,1.5,0,0,1-.72-.27,1.15,1.15,0,0,1-.25-.9l.25-.5.47-.27,4.36-.05v-3.57a9.18,9.18,0,0,0-1.71.61,9.13,9.13,0,0,1-1.53.59l-.5-.25a1.22,1.22,0,0,1-.27-.9l.25-.5a15.65,15.65,0,0,1,3.75-1.64,37.33,37.33,0,0,1,4-.92l.5.25a1.16,1.16,0,0,1,.25.89l-.25.5a6,6,0,0,1-1.22.39,8.56,8.56,0,0,0-1.25.36l0,4.16,6.38-.1c-.14-1-.27-2-.38-2.9s-.24-1.81-.39-2.71a1.35,1.35,0,0,1,.3-.69,1.06,1.06,0,0,1,.87-.25l.53.22a18.43,18.43,0,0,1,.58,3.13c.11,1.09.26,2.15.44,3.18l4.46,0,.52.25a1.13,1.13,0,0,1,.25.9l-.25.5a1.73,1.73,0,0,1-.72.3h-3.91a18.39,18.39,0,0,0,.65,2.36c.26.78.53,1.56.79,2.32a5.4,5.4,0,0,0,1.21-1.45l.89-1.54a1.24,1.24,0,0,1,.92-.25l.52.25a1.1,1.1,0,0,1,.25.87,10.26,10.26,0,0,1-1.06,2,28.58,28.58,0,0,1-1.8,2.29c.26.63.56,1.26.88,1.89a15.35,15.35,0,0,0,1.11,1.85l1.22-1.37a1.13,1.13,0,0,1,.9-.25l.5.22a1.26,1.26,0,0,1,.27.9c-.3.5-1,1.44-2,2.81-.33.39-.65.5-.95.33a19.41,19.41,0,0,1-2.26-2.66,9,9,0,0,1-1-2.08,29.45,29.45,0,0,1-2.36,2.11,8.41,8.41,0,0,1-2.53,1.41l-.52-.25a1.17,1.17,0,0,1-.25-.9l.25-.5a25.31,25.31,0,0,0,2.33-1.72,12.53,12.53,0,0,0,2.08-2.16c-.45-1.25-.86-2.43-1.24-3.56a12.27,12.27,0,0,1-.68-2.82l-6.73.09v4.09a16.77,16.77,0,0,1,2.3-.35l.5.25a1.18,1.18,0,0,1,.25.9l-.23.5a3.14,3.14,0,0,1-1.32.41,5.56,5.56,0,0,0-1.37.29l.15,6.4C539.12,287,538.72,287.21,537.94,287.08Zm12.26-16.55-.49-.25a12,12,0,0,0-.73-1.17,3.05,3.05,0,0,1-.5-1.27l.25-.5a1.27,1.27,0,0,1,1-.27l.49.25c.24.39.48.78.74,1.15a2.23,2.23,0,0,1,.39,1.29l-.23.5A1.14,1.14,0,0,1,550.2,270.53Z"/><path class="cls-2" d="M560.32,284.26l-.65-16.4a1.05,1.05,0,0,1,1.15-.89q17.59-.11,18.48.12c.59.15.78.74.56,1.77q-.6,14.5-.82,15.28a1,1,0,0,1-1.1.72q-.87,0-16.42.05C560.87,284.94,560.47,284.73,560.32,284.26Zm16.9-1.34.65-14.06-16.15-.05.45,14.11Zm-5.11-3.37h-5.23a.93.93,0,0,1-1.06-.82c-.09-.55-.19-2.4-.29-5.56a1.16,1.16,0,0,1,1.2-.9q7,.11,7.47.24c.34.09.49.68.45,1.76l-.1,4.23q-.07.86-.66,1A6.71,6.71,0,0,1,572.11,279.55Zm.5-1.94,0-3.29-5.09-.1.15,3.34Z"/><path class="cls-2" d="M586.86,273.47l-.5-.25a9.59,9.59,0,0,1-.54-2.68c-.07-1-.12-1.9-.15-2.83a1.09,1.09,0,0,1,1.19-.84l7.85.2c0-.44,0-.88,0-1.32a2.1,2.1,0,0,1,.32-1.23,1.17,1.17,0,0,1,.9-.25l.5.25.25.5v2.15h9.14a1.06,1.06,0,0,1,.8.67,3.35,3.35,0,0,1,0,1.43c-.1.64-.18,1.2-.25,1.68a2.91,2.91,0,0,1-.5,1.32,1.12,1.12,0,0,1-.89.25l-.5-.25a1.27,1.27,0,0,1-.25-.94,7.88,7.88,0,0,0,.4-2.17l-17-.3.35,3.86-.25.5A1.17,1.17,0,0,1,586.86,273.47ZM598,287.3a8.56,8.56,0,0,1-3-2.44l0-.6.25-.5a1.17,1.17,0,0,1,.9-.25,10,10,0,0,1,1.64,1.35,7.19,7.19,0,0,0,.1-1.25c0-.43-.05-1.28-.15-2.56a18.44,18.44,0,0,1-3.93,2.56,17.88,17.88,0,0,1-4.22,1.4,1.27,1.27,0,0,1-.69-.3,1.13,1.13,0,0,1-.25-.9l.25-.49a28.24,28.24,0,0,0,4.18-1.56,13.3,13.3,0,0,0,3.82-2.71l-.3-.59a16.46,16.46,0,0,1-3.52,2.09,34.11,34.11,0,0,1-3.39,1.2l-.49-.25a1.15,1.15,0,0,1-.25-.9l.25-.5c1.08-.53,2.18-1,3.31-1.47a9.43,9.43,0,0,0,3.09-2l-1-.85c-.76.57-1.53,1.1-2.31,1.6a9.89,9.89,0,0,1-2.5,1.14l-.49-.24a1.15,1.15,0,0,1-.25-.9l.25-.5c1-.6,2-1.2,3-1.82a15.79,15.79,0,0,0,2.69-2.17l-3.24-.05a3.27,3.27,0,0,1-1.84-.4,1.1,1.1,0,0,1-.28-.89l.28-.5a1.5,1.5,0,0,1,1.14-.25l11.64.15.5.25a1.17,1.17,0,0,1,.25.9l-.25.49a1.56,1.56,0,0,1-.77.3h-4.64a17.52,17.52,0,0,0-1.49,1.65,9.87,9.87,0,0,1,2.14,3.09l2.64-2.05a2.12,2.12,0,0,1,1.72-.69l.5.25a1.16,1.16,0,0,1,.25.89l-.25.5-2.91,2.34a19.37,19.37,0,0,0,2.08,2.07,36.51,36.51,0,0,0,3.92,2.74,1.19,1.19,0,0,1,.25.9l-.25.5a1.33,1.33,0,0,1-1,.25,19.15,19.15,0,0,1-2.9-1.82,32.66,32.66,0,0,1-2.7-2.29,27.81,27.81,0,0,1,.1,3,6.59,6.59,0,0,1-.25,1.53,10.71,10.71,0,0,1-.49,1.22C598.87,287.35,598.52,287.47,598,287.3Z"/><path class="cls-2" d="M613.65,280.85a6.1,6.1,0,0,1-1.43-.13.62.62,0,0,1-.54-.67c0-.37,0-2.27-.11-5.72a36.76,36.76,0,0,1,.08-5.68c.12-.34.47-.49,1.06-.44h5q.78.07.75.75l-.12,10.89c.13.5,0,.78-.5.85S616,280.81,613.65,280.85Zm2.69-2.05.23-8.62h-3.12l.15,8.67Zm3.12,6.66a1.34,1.34,0,0,1-.7-.3,1.8,1.8,0,0,1-.3-.8,4.81,4.81,0,0,0,.25-1.56,3.31,3.31,0,0,1,.35-1.5,1.3,1.3,0,0,1,1-.25l.5.25a1.11,1.11,0,0,1,.24.89c-.06.52-.12,1-.17,1.55a4.37,4.37,0,0,1-.37,1.42A1.72,1.72,0,0,1,619.46,285.46Zm12,1.34a2.92,2.92,0,0,1-1.5-.89l-.9-.8a1.14,1.14,0,0,1-.27-.9l.27-.5a1.19,1.19,0,0,1,.9-.25l1.15.7a11,11,0,0,0,.32-2.18,23.58,23.58,0,0,1,.28-2.53H620.66l-.5-.25a1.27,1.27,0,0,1-.3-.7q-.11-11.43,0-12.09c.09-.44.48-.59,1.18-.44l11.41-.1.5.25a1.17,1.17,0,0,1,.25.9l-.25.49a4.39,4.39,0,0,1-1.69.38q-.9,0-3.42,0l0,1.9H632l.5.27a1.3,1.3,0,0,1,.25,1l-.25.5a1.28,1.28,0,0,1-1,.3l-3.62,0,0,1.89a20.59,20.59,0,0,0,2.23.08,4.88,4.88,0,0,1,2.08.37,1.16,1.16,0,0,1,.3.95l-.25.49a1.27,1.27,0,0,1-.94.25l-3.37-.2,0,1.95c2.88,0,4.58,0,5.11.06s.82.26.85.55a9,9,0,0,1-.18,1.83c-.14.93-.27,2-.37,3.1a10.28,10.28,0,0,1-.62,2.88Q632.19,287.1,631.5,286.8Zm-9-1.74-.5-.25a3.73,3.73,0,0,1-.42-1.42c-.05-.51-.13-1-.23-1.55l.25-.49a1.3,1.3,0,0,1,.95-.25l.5.25a5.29,5.29,0,0,1,.42,1.43q.12.78.18,1.53l-.25.5A1.19,1.19,0,0,1,622.5,285.06Zm3.44-11.49,0-1.84h-4.24v1.74Zm0,3.89,0-1.95-4.24-.09,0,1.94Zm0-7.7,0-1.9-4,.05-.1,1.85Zm-.5,14.7a1.27,1.27,0,0,1-.7-.3,11,11,0,0,1-.52-1.36,8,8,0,0,1-.32-1.45l.24-.5a1.19,1.19,0,0,1,.9-.25l.5.25a7.8,7.8,0,0,1,.57,1.36,9,9,0,0,1,.33,1.45l-.25.5A1.57,1.57,0,0,1,625.49,284.46Zm3-1a1.43,1.43,0,0,1-.7-.3l-.59-1.19a3.91,3.91,0,0,1-.4-1.28l.25-.5a1.16,1.16,0,0,1,.89-.25l.5.25.23.2a7.64,7.64,0,0,1,.84,2.27l-.25.5A1.78,1.78,0,0,1,628.48,283.42Z"/><path class="cls-2" d="M648.24,279.7l-.5-.25a7.09,7.09,0,0,1-.39-2.39,21.26,21.26,0,0,0-.15-2.54,1.27,1.27,0,0,1,.3-.7l2.49-.6a3.4,3.4,0,0,0,1.94-1.17,2.14,2.14,0,0,0,.53-1.78,2.83,2.83,0,0,0-.72-1.47,5.9,5.9,0,0,0-1.07-.92,4.05,4.05,0,0,0-1.13-.54,3.48,3.48,0,0,0-1.35-.1,4.3,4.3,0,0,0-1.44.4,5.49,5.49,0,0,0-1.3.85,3.3,3.3,0,0,0-.9,1.23,2.4,2.4,0,0,0-.19,1.31,4.94,4.94,0,0,1,0,1.14l-.25.5a1.31,1.31,0,0,1-.95.25l-.62-.35a2.17,2.17,0,0,1-.4-1.74,6.74,6.74,0,0,1,.63-2,6.23,6.23,0,0,1,1.46-1.86,6.58,6.58,0,0,1,2.27-1.32,5.46,5.46,0,0,1,2.44-.32,8.05,8.05,0,0,1,2.07.49,5.54,5.54,0,0,1,1.87,1.38,5.49,5.49,0,0,1,1.29,2.05,4.67,4.67,0,0,1,.2,2.16,3.29,3.29,0,0,1-.69,1.73,6.53,6.53,0,0,1-1.25,1.1A8.36,8.36,0,0,1,651,275a5.7,5.7,0,0,1-1.77.38l.2,3.58-.25.5A1.13,1.13,0,0,1,648.24,279.7Zm1,7a2.54,2.54,0,0,1-1.07-.52,8.5,8.5,0,0,1-1.3-1.14,4.17,4.17,0,0,1-.85-1.28,3,3,0,0,1-.14-1.33,1.77,1.77,0,0,1,.57-1.18,1.29,1.29,0,0,1,1.22-.29,3.9,3.9,0,0,1,1.62,1,2.43,2.43,0,0,1,1.87-.93,1.54,1.54,0,0,1,1.33.78,2,2,0,0,1,0,1.81,4.45,4.45,0,0,1-1.21,1.8,11.37,11.37,0,0,1-1.22,1A1.92,1.92,0,0,1,649.24,286.7Z"/></g><g class="cls-1"><g class="cls-1"><path class="cls-2" d="M265.83,56.4l-.5-.25a2,2,0,0,1-.3-1.37v-6l-3.84.2c.07,1.15.14,2.07.2,2.78s.15,1.42.25,2.15l-.25.48a1.12,1.12,0,0,1-.87.25l-.5-.25a8.19,8.19,0,0,1-.57-2.66c-.05-.95-.12-1.89-.2-2.8l-2.54,2.24a1.62,1.62,0,0,1-1.12.33l-.5-.23a1.2,1.2,0,0,1-.25-.92l.25-.5a11.56,11.56,0,0,0,2.19-1.79l1.83-1.82a9.2,9.2,0,0,0,1-1.17l-5.9.2-.5-.25a1.25,1.25,0,0,1-.3-.95l.25-.47a2.72,2.72,0,0,1,1.67-.3l6.3-.25c.24-.4.44-.8.63-1.19l.54-1.16a1.35,1.35,0,0,1,.95-.24l.5.24a1.3,1.3,0,0,1,.22.93L263.91,43l8.57-.05a1.59,1.59,0,0,1,.78.3,1.19,1.19,0,0,1,.3.92l-.25.5a1.09,1.09,0,0,1-1,.2l-5.39,0v1.92c2.51-.07,4-.08,4.41,0a.85.85,0,0,1,.79.61,19.44,19.44,0,0,1,0,3.33,8.71,8.71,0,0,1-.5,3.38,1.12,1.12,0,0,1-1.32.33,4.84,4.84,0,0,1-1.85-1,1.12,1.12,0,0,1-.25-.87l.25-.5a1.29,1.29,0,0,1,.92-.25l.8.4-.05-3.51L267,48.72v6.2a1.89,1.89,0,0,1-.3,1.23A1.12,1.12,0,0,1,265.83,56.4ZM257.9,41.62a1.43,1.43,0,0,1-.69-.3,1.11,1.11,0,0,1-.25-.87l.25-.5a20.64,20.64,0,0,0,2.33-1.21,11.63,11.63,0,0,0,2.2-1.76,11.06,11.06,0,0,0-1.87-1.07,1.17,1.17,0,0,1-.25-.9l.25-.47a1.38,1.38,0,0,1,1.1-.25c.42.23.84.49,1.26.76l1.28.81a6.27,6.27,0,0,0,1.31-1.26l1.11-1.38a1.34,1.34,0,0,1,1.12-.4l.5.25a1.15,1.15,0,0,1,.22.87l-.22.5a30.26,30.26,0,0,1-2.17,2.49,6.91,6.91,0,0,1,1.11.69l1.06.81A1.23,1.23,0,0,1,268,39.5l-.25.5a1.07,1.07,0,0,1-.87.25c-.55-.37-1.09-.75-1.64-1.14a7.12,7.12,0,0,0-1.75-.91c-.88.68-1.76,1.34-2.65,2A10.43,10.43,0,0,1,257.9,41.62ZM265,46.85V44.91l-2.31.05a8.05,8.05,0,0,1-.8,1,9.52,9.52,0,0,0-.83,1Z"/><path class="cls-2" d="M285,44.46a3.63,3.63,0,0,1-2-.7,2.15,2.15,0,0,1-.87-1.25,9.86,9.86,0,0,1-.14-1.62,16.67,16.67,0,0,1,.11-2.06l-2.24.2-.5-.25a1.45,1.45,0,0,1-.25-1l.25-.49a3.15,3.15,0,0,1,1.65-.45H284l-.2-2.45a1.43,1.43,0,0,1,.3-.69,1.13,1.13,0,0,1,.9-.25l.5.25a4.63,4.63,0,0,1,.35,1.52c0,.55.06,1.09.1,1.62h4.63l.5.25a1.16,1.16,0,0,1,.25.89l-.25.53a1.75,1.75,0,0,1-.75.3H284c0,.69,0,1.4,0,2.11s.15,1.16.4,1.32a2,2,0,0,0,1.12.25c.5,0,1,0,1.44,0a12.64,12.64,0,0,0,1.32-.15l1.28-.19.49.24a1.31,1.31,0,0,1,.25,1l-.25.5a3.38,3.38,0,0,1-1.42.4c-.51,0-1.07.09-1.65.17A10.67,10.67,0,0,1,285,44.46ZM281.7,55.37l-.49-.25a1.12,1.12,0,0,1-.25-.89l.25-.5.54-.3,7.9,0,0-1.82h-3.93l-.5-.25a1.3,1.3,0,0,1-.3-1l.25-.5.5-.25,4-.1v-2c-3.09-.07-4.87-.09-5.34-.08a2.16,2.16,0,0,1-1.26-.32,1.17,1.17,0,0,1-.25-.9l.25-.5a3.42,3.42,0,0,1,1.92-.24l11.84.05.5.24a1.3,1.3,0,0,1,.24.95l-.24.5a5,5,0,0,1-2.47.3h-3.24v2l3.69-.05.5.25a1.13,1.13,0,0,1,.24.9l-.24.5a2.67,2.67,0,0,1-1.55.37h-2.54l0,2,4-.22c1-.05,2.05-.1,3.08-.13l.5.25a1.17,1.17,0,0,1,.25.9l-.25.5a17.39,17.39,0,0,1-3.88.47Zm17.25-10a3.16,3.16,0,0,1-1.74-1,1.17,1.17,0,0,1-.3-1l.25-.5a1.16,1.16,0,0,1,.89-.25l.5.2.2-1.44-5.31-.35a4.65,4.65,0,0,1-.6,1.89,1.12,1.12,0,0,1-.89.25l-.5-.25a1.14,1.14,0,0,1-.25-1c.36-1.23.75-2.72,1.15-4.47s.62-2.75.67-3,.25-.43.6-.46,1.46,0,3.32.1,3.06.19,3.56.28.77.3.82.63a11.15,11.15,0,0,1-.1,2.11q-.18,1.63-.45,3.75a21.73,21.73,0,0,1-.67,3.42C299.83,45.17,299.45,45.54,299,45.41ZM299,40l.15-1-4.86-.35-.3,1.09Zm.3-2.51.05-1.2-4.66-.2-.05,1.1Z"/><path class="cls-2" d="M316.64,42.66l-.49-.25-.9-1.54-4.3.37c-1.27.12-2.54.21-3.8.28-.82-.12-1.15-.5-1-1.15l3.89-6.7a1.23,1.23,0,0,1,1-.3l.5.25a1.32,1.32,0,0,1,.25.94q-.3.6-2.77,4.94c1-.12,1.87-.21,2.67-.28s1.59-.14,2.39-.24a2.32,2.32,0,0,1-.84-1.67l.24-.5a1.13,1.13,0,0,1,1-.25l.5.25c.73,1.08,1.33,2,1.79,2.74a8.8,8.8,0,0,1,1.05,2.37l-.25.49A1.13,1.13,0,0,1,316.64,42.66Zm-2.19,13.09a3.43,3.43,0,0,1-1.39-.63c-.44-.31-.85-.64-1.25-1a1.16,1.16,0,0,1-.25-.89l.25-.5a1.13,1.13,0,0,1,.9-.25,8,8,0,0,1,.94.55l0-1.65h-4.31v3.34l-.25.5a1.16,1.16,0,0,1-.89.25l-.5-.25a2.51,2.51,0,0,1-.35-.85l-.05-10.29c0-.7.25-1.07.71-1.12s1.69-.06,3.71,0,3.17.07,3.45.1.42.32.4.85,0,4.2.13,11A1,1,0,0,1,314.45,55.75Zm-.95-9.7L313.45,45l-4.26,0,.05,1Zm.05,3.39V48l-4.26,0v1.49Zm11.39,5.86c-.89-.07-1.79-.15-2.68-.25A4.32,4.32,0,0,1,319.87,54a3.8,3.8,0,0,1-1.29-2.09,51.34,51.34,0,0,1-.34-6.33,1.27,1.27,0,0,1,.3-.69,1.12,1.12,0,0,1,1-.25l.49.25a1.12,1.12,0,0,1,.25.89l0,1.55,5.46-.15.5.25a1.17,1.17,0,0,1,.25.9l-.25.49a1.53,1.53,0,0,1-.75.3l-5.26.15a19.53,19.53,0,0,0,.25,2.11,2,2,0,0,0,.85,1.26,3.62,3.62,0,0,0,1.78.6c.72.06,1.45.11,2.18.15a2.73,2.73,0,0,1,.3-1.8,1.17,1.17,0,0,1,.9-.25l.5.25a2.78,2.78,0,0,1,.27,1.37c0,.52,0,1,0,1.45a.75.75,0,0,1-.54.82A6,6,0,0,1,324.94,55.3Zm-.54-10.94c-.84-.07-1.65-.14-2.46-.23A3.71,3.71,0,0,1,319.71,43a3.91,3.91,0,0,1-1.15-2.62c-.08-1.1-.17-3-.27-5.66a1.24,1.24,0,0,1,.3-.69,1.28,1.28,0,0,1,1-.25l.49.25a1.12,1.12,0,0,1,.25.89l0,1c3-.17,4.9-.28,5.76-.35l.5.25a1.17,1.17,0,0,1,.25.9l-.25.5a30.37,30.37,0,0,1-6.16.64c.07,1,.13,1.75.18,2.3a2,2,0,0,0,.87,1.42,3.63,3.63,0,0,0,2,.67c.8,0,1.82.06,3.05,0l.5.25a1.19,1.19,0,0,1,.25.9l-.25.5a2.24,2.24,0,0,1-1.2.35Z"/><path class="cls-2" d="M333.59,46.15a1.27,1.27,0,0,1-.7-.3,2.12,2.12,0,0,1-.3-.84,1.43,1.43,0,0,1,.3-.7,5.38,5.38,0,0,0,1.15-.67,19.94,19.94,0,0,0,2.19-2.52l-1.29-.65a1.16,1.16,0,0,1-.3-.95l.25-.49a1.1,1.1,0,0,1,1-.25l1.47.69,1.4-3-3.07-.1c-.2.5-.41,1-.64,1.48s-.45,1-.65,1.48a1.3,1.3,0,0,1-.95.25l-.5-.25a1.16,1.16,0,0,1-.25-.89,15.43,15.43,0,0,1,.83-2c.31-.61.58-1.14.82-1.57a.91.91,0,0,1,.94-.57c.4,0,.83.08,1.29.1s1.66,0,3.62.07c.85.2,1.13.67.85,1.4a34.74,34.74,0,0,1-1.64,3.85,16.26,16.26,0,0,1-2.46,3.61,18.21,18.21,0,0,1-2.18,2.22A2.46,2.46,0,0,1,333.59,46.15ZM336.28,55l-.5-.25a2.22,2.22,0,0,1-.3-.85,1.43,1.43,0,0,1,.3-.69,7.38,7.38,0,0,0,1.93-1.39,19.72,19.72,0,0,0,1.49-1.53l-1.2-.65a1.23,1.23,0,0,1-.3-1l.25-.49a1.13,1.13,0,0,1,.9-.25l1.29.64q.3-.8.6-1.56c.2-.52.38-1,.55-1.57l-2.44-.2c-.17.46-.35.93-.55,1.39s-.42.93-.65,1.4a1.2,1.2,0,0,1-.92.25l-.5-.25a1.85,1.85,0,0,1-.3-.8,12.57,12.57,0,0,1,.73-1.82l.63-1.31a2.37,2.37,0,0,1,.5-.7c.19-.17.69-.21,1.49-.11s1.53.17,2.16.2a3.94,3.94,0,0,1,1.62.4q.68.35.3,1.59c-.25.84-.6,1.82-1.05,3a12.19,12.19,0,0,1-1.49,2.83,11.49,11.49,0,0,1-1.8,1.93l-1.5,1.27A2.1,2.1,0,0,1,336.28,55Zm14.26.2a6.67,6.67,0,0,1-1.55-.57c-.48-.25-.95-.53-1.42-.83a1.16,1.16,0,0,1-.25-.89l.25-.5a1.17,1.17,0,0,1,.9-.25l1.67.75A62.26,62.26,0,0,0,351.43,46q.45-3.48.6-7.17l-6.7.05a11.87,11.87,0,0,1-.5,1.37c-.2.44-.42.88-.65,1.32a1.17,1.17,0,0,1-.9.25l-.49-.25a1.13,1.13,0,0,1-.25-1c.43-1,.84-2,1.22-3s.72-2,1-3.08a1.17,1.17,0,0,1,.9-.25l.5.25a1.63,1.63,0,0,1,.24,1.2l-.29,1.25q6.5,0,7.2,0c.46,0,.71.46.75,1.34a27.81,27.81,0,0,1-.23,3.74q-.27,2.41-.75,6a34.17,34.17,0,0,1-.92,5,6.86,6.86,0,0,1-.75,1.84A1,1,0,0,1,350.54,55.2Zm-4.86-6.11c-.5,0-.79-.17-.88-.46s-.19-2.05-.32-5.27a.91.91,0,0,1,.9-.85h4a1.23,1.23,0,0,1,.78.35,1.73,1.73,0,0,1,.19,1.27c-.07.65-.14,1.4-.2,2.25a18.67,18.67,0,0,1-.24,1.95.68.68,0,0,1-.83.61Zm2.84-1.64a9.81,9.81,0,0,0,.22-1.8c0-.56,0-1.13.08-1.69H346l.1,3.64Z"/><path class="cls-2" d="M375.61,55.85a3.49,3.49,0,0,1-1.37-.75,9.75,9.75,0,0,0-1.27-1,1.12,1.12,0,0,1-.25-.89l.25-.5a1.27,1.27,0,0,1,.94-.25l1.1.65.1-2.82-7.63,0,.2,4.91-.25.5a1.16,1.16,0,0,1-.89.25l-.5-.25a3.24,3.24,0,0,1-.4-1.4l-.3-8.75c-.67,1.13-1.29,2.27-1.88,3.42l-1.78,3.44a1.19,1.19,0,0,1-.9.25l-.5-.25a1.34,1.34,0,0,1-.25-.95q1.55-3.27,3.28-6.43a37.7,37.7,0,0,0,2.83-6.6c-2.51,0-4.05,0-4.61,0a3.2,3.2,0,0,1-1.55-.32,1.25,1.25,0,0,1-.25-.92l.25-.5a3.71,3.71,0,0,1,2-.25h4.77a9.72,9.72,0,0,0,.37-1.57,6.86,6.86,0,0,1,.42-1.57,1.17,1.17,0,0,1,.9-.25l.5.25a1.68,1.68,0,0,1,.25,1.34l-.4,1.8,10.59-.25.5.25a1.17,1.17,0,0,1,.25.9l-.25.49a1.49,1.49,0,0,1-.75.33l-11,.25a8.06,8.06,0,0,1-.42,1.42,11.83,11.83,0,0,0-.48,1.42l8.83-.1c.63,0,1,.18,1.08.58s.09,2.65,0,6.73-.21,6.35-.31,6.82S376.34,56,375.61,55.85Zm-.5-11.29.1-1.35-8,.1v1.35Zm0,3.84V46.5l-7.78.1.05,1.85Z"/><path class="cls-2" d="M405.51,44l-18.34,0a1.27,1.27,0,0,1-.7-.3,1.17,1.17,0,0,1-.25-.9l.25-.5L387,42l18.84,0,.6.29a1.19,1.19,0,0,1,.25.9l-.25.5A1.63,1.63,0,0,1,405.51,44Z"/><path class="cls-2" d="M416.3,55.65l-.5-.25a2.5,2.5,0,0,1-.34-1.5l-.2-12.33-2.6,3.29a1.32,1.32,0,0,1-.94.25l-.5-.25a1.34,1.34,0,0,1-.25-1c1.16-1.6,2.33-3.19,3.51-4.8a47,47,0,0,0,3.24-5,1.15,1.15,0,0,1,.9-.25l.5.25a1.13,1.13,0,0,1,.25,1,20.39,20.39,0,0,1-2.12,3.64l.22,16.2-.24.5A1.23,1.23,0,0,1,416.3,55.65Zm16.1.15c-7-.1-10.65-.16-10.86-.19s-.37-.34-.45-1-.28-6.89-.57-18.85l.24-.5.5-.25q11.34.28,12.08.38c.49.06.76.44.81,1.12l.25,18.34c0,.66-.24,1-.56,1A7.18,7.18,0,0,1,432.4,55.8Zm0-2-.2-16.54L422.46,37l.5,16.74Zm-7.25-2a1,1,0,0,1-1-.81,42.8,42.8,0,0,1-.38-4.8c0-.73.32-1.13.95-1.19h2l-.1-2.45h-2.3a1.24,1.24,0,0,1-.69-.3,1.15,1.15,0,0,1-.3-.94l.25-.5a1.16,1.16,0,0,1,.89-.25l2.1,0a3.56,3.56,0,0,1,.3-2.09,1.12,1.12,0,0,1,.89-.25l.5.25a4.29,4.29,0,0,1,.25,2.19c.55,0,1.09.06,1.62.07a3.81,3.81,0,0,1,1.45.33,1.16,1.16,0,0,1,.24.9l-.24.49a1.85,1.85,0,0,1-1.05.3l-2-.15.1,2.35a7,7,0,0,1,2.06,0q.74.15.72.57c0,.28,0,1.87,0,4.76,0,.81-.17,1.25-.44,1.3S428.79,51.74,425.15,51.81Zm4.36-2.12V47.05l-3.76-.1.25,2.79Z"/><path class="cls-2" d="M440.1,42.21l-.5-.24a9.74,9.74,0,0,1-.54-2.68c-.07-1-.12-1.9-.15-2.83a1.1,1.1,0,0,1,1.19-.85l7.85.2c0-.43,0-.87,0-1.32a2.05,2.05,0,0,1,.32-1.22,1.17,1.17,0,0,1,.9-.25l.5.25.25.5v2.14H459a1.08,1.08,0,0,1,.8.67,3.4,3.4,0,0,1,0,1.44c-.1.64-.18,1.2-.25,1.68a3.12,3.12,0,0,1-.5,1.32,1.16,1.16,0,0,1-.89.25l-.5-.25a1.3,1.3,0,0,1-.25-1,7.81,7.81,0,0,0,.4-2.17l-17-.3.35,3.87L441,42A1.13,1.13,0,0,1,440.1,42.21Zm11.14,13.84a8.63,8.63,0,0,1-3-2.45L448.2,53l.25-.5a1.17,1.17,0,0,1,.9-.25A9.39,9.39,0,0,1,451,53.6a7.08,7.08,0,0,0,.1-1.24c0-.43,0-1.29-.15-2.57A18.75,18.75,0,0,1,447,52.36a17.86,17.86,0,0,1-4.22,1.39,1.33,1.33,0,0,1-.69-.29,1.15,1.15,0,0,1-.25-.9l.25-.5a28.24,28.24,0,0,0,4.18-1.56,13.46,13.46,0,0,0,3.82-2.7l-.3-.6a16.06,16.06,0,0,1-3.52,2.09,29.69,29.69,0,0,1-3.39,1.2l-.49-.25a1.13,1.13,0,0,1-.25-.9l.25-.5c1.08-.53,2.18-1,3.31-1.47a9.57,9.57,0,0,0,3.09-2l-1.05-.85q-1.14.84-2.31,1.59a10.28,10.28,0,0,1-2.5,1.15l-.5-.25a1.16,1.16,0,0,1-.24-.9l.24-.5c1-.59,2-1.2,3-1.81a16.29,16.29,0,0,0,2.69-2.17l-3.24,0a3.36,3.36,0,0,1-1.84-.4,1.11,1.11,0,0,1-.28-.9l.28-.5a1.55,1.55,0,0,1,1.14-.25l11.64.15.5.25a1.18,1.18,0,0,1,.25.9l-.25.5a1.78,1.78,0,0,1-.77.3h-4.64a19,19,0,0,0-1.49,1.64,9.87,9.87,0,0,1,2.14,3.09l2.64-2a2.12,2.12,0,0,1,1.72-.7l.5.25a1.17,1.17,0,0,1,.25.9l-.25.5-2.91,2.34a19.37,19.37,0,0,0,2.08,2.07,38,38,0,0,0,3.92,2.74,1.17,1.17,0,0,1,.25.9l-.25.49a1.28,1.28,0,0,1-.95.25,18.39,18.39,0,0,1-2.9-1.82,32.66,32.66,0,0,1-2.7-2.29,27.93,27.93,0,0,1,.1,3,6.78,6.78,0,0,1-.25,1.54,11.5,11.5,0,0,1-.49,1.22C452.11,56.1,451.76,56.21,451.24,56.05Z"/><path class="cls-2" d="M466.1,56.64l-.5-.24a1.31,1.31,0,0,1-.25-.95l.25-.5.74-1.35a1.37,1.37,0,0,1-1.07-1.42,1.52,1.52,0,0,1,.53-1.08,1.25,1.25,0,0,1,1.27-.25,2.4,2.4,0,0,1,1.22.74,1.77,1.77,0,0,1,.2,1.59,9.11,9.11,0,0,1-.6,1.79,7.88,7.88,0,0,1-.85,1.38A1.18,1.18,0,0,1,466.1,56.64Z"/></g><g class="cls-1"><path class="cls-2" d="M272.81,82.51l-18.34-.05a1.27,1.27,0,0,1-.7-.3,1.17,1.17,0,0,1-.25-.9l.25-.5.5-.24,18.84,0,.6.29a1.19,1.19,0,0,1,.24.9l-.24.5A1.65,1.65,0,0,1,272.81,82.51Z"/><path class="cls-2" d="M283.6,94.15l-.5-.25a2.5,2.5,0,0,1-.35-1.5l-.2-12.33L280,83.36a1.34,1.34,0,0,1-.95.25l-.5-.25a1.34,1.34,0,0,1-.24-1c1.16-1.6,2.33-3.19,3.51-4.8a47,47,0,0,0,3.24-5,1.13,1.13,0,0,1,.9-.25l.5.25a1.12,1.12,0,0,1,.24,1,20.12,20.12,0,0,1-2.11,3.64l.22,16.2-.25.5A1.2,1.2,0,0,1,283.6,94.15Zm16.1.15q-10.54-.15-10.87-.19c-.21,0-.36-.34-.45-1s-.27-6.89-.57-18.85l.25-.5.5-.25q11.34.28,12.07.38c.49.06.76.44.81,1.12l.25,18.34c-.05.66-.23,1-.56,1A7.14,7.14,0,0,1,299.7,94.3Zm0-2-.2-16.54-9.75-.25.5,16.74Zm-7.25-2a1,1,0,0,1-1-.81,44.08,44.08,0,0,1-.37-4.8c0-.73.32-1.13.95-1.19h2l-.1-2.45h-2.29a1.27,1.27,0,0,1-.7-.3,1.22,1.22,0,0,1-.3-.94l.25-.5a1.17,1.17,0,0,1,.9-.25l2.09.05a3.56,3.56,0,0,1,.3-2.09,1.13,1.13,0,0,1,.9-.25l.5.25a4.4,4.4,0,0,1,.25,2.19c.54,0,1.08.06,1.62.07a3.71,3.71,0,0,1,1.44.33,1.17,1.17,0,0,1,.25.9l-.25.49a1.85,1.85,0,0,1-1,.3l-2-.15.09,2.35a7,7,0,0,1,2.06,0q.73.15.72.57c0,.28,0,1.87,0,4.76,0,.81-.16,1.25-.44,1.3S296.08,90.24,292.45,90.31Zm4.36-2.12V85.55l-3.77-.1.25,2.79Z"/><path class="cls-2" d="M326.49,80.81l-.5-.24a103,103,0,0,0-9.45-6.91c-2.65,1.9-4.37,3.14-5.14,3.73s-1.88,1.45-3.3,2.58a1.36,1.36,0,0,1-1,.25l-.5-.25a1.17,1.17,0,0,1-.25-.9l.3-.55c1.63-1.24,3.53-2.66,5.72-4.25s3.45-2.48,3.8-2.69a1,1,0,0,1,1.12,0q.6.33,10,7.31a1.56,1.56,0,0,1,.34,1.15l-.24.5A1.19,1.19,0,0,1,326.49,80.81ZM311.61,85.5a12.33,12.33,0,0,1-1.57.08c-.38,0-.61-.34-.69-1s-.17-2.15-.31-4.61c0-.6.14-.93.4-1s4.84-.07,13.71,0c.71,0,1,.48.8,1.39l.15,4.31c0,.6-.36.87-1.22.8Zm10.74,9q-10,.19-10.58.15c-.39,0-.6-.21-.63-.53s-.26-2.57-.68-6.78q-.07-1.11.9-1.14,10.86.09,11.49.2a.73.73,0,0,1,.71.62,23.21,23.21,0,0,1-.06,3.23c-.1,1.8-.19,3-.26,3.5A.77.77,0,0,1,322.35,94.45Zm-6.75-10.4-.05-3.68L311,80.32l.25,3.68Zm-1.9-.64a1.39,1.39,0,0,1-.79-.55,2.64,2.64,0,0,1-.85-1.55.91.91,0,0,1,.5-.5H313a11.36,11.36,0,0,1,1.44,1.65v.4a.91.91,0,0,1-.5.5Zm7.78,5.9,0-1.12-9.07-.1.1,1.25Zm-.15,3.19V91.26l-8.47,0,.1,1.19Zm-7.48-14.58-.55-.3a.79.79,0,0,1-.14-.64.89.89,0,0,1,.49-.53l6-.2.5.3a.87.87,0,0,1,.15.68.89.89,0,0,1-.55.54Zm8.23,6.13-.1-3.68h-4.49l.05,3.68Zm-2.94-.49a.91.91,0,0,1-.5-.5v-.45A8.06,8.06,0,0,1,320,80.86h.6a.94.94,0,0,1,.5.5v.4q-.75.9-1.59,1.8Z"/><path class="cls-2" d="M335.33,94.1l-.49-.25a1.13,1.13,0,0,1-.25-.9l.25-.5a24,24,0,0,0,1.84-3.86,15.54,15.54,0,0,0-1.27-1l-1.17-.79c-.33-.24-.44-.75-.33-1.55s.25-1.8.4-3,.26-2.46.33-3.72l-1.3,0a2.76,2.76,0,0,1-1.2-.33,1.11,1.11,0,0,1-.24-.89l.24-.5a1.6,1.6,0,0,1,1.2-.28l1.5.08a14.46,14.46,0,0,0,.17-1.85,4.73,4.73,0,0,1,.37-1.72,1.19,1.19,0,0,1,.9-.25l.5.25a1.87,1.87,0,0,1,.27,1.45l-.27,2.17,2.57,0c0-.48,0-1,0-1.42a2.13,2.13,0,0,1,.33-1.25,1.16,1.16,0,0,1,.89-.25l.5.25.25.5v2.22a2.34,2.34,0,0,1,1.6.25,1.15,1.15,0,0,1,.24.89l-.24.5a2.56,2.56,0,0,1-1.75.3,46.74,46.74,0,0,1-.82,4.61c-.35,1.51-.76,3-1.22,4.51l2.24,1.5a1.38,1.38,0,0,1,.3,1l-.25.5a1.17,1.17,0,0,1-.9.25c-.69-.47-1.39-.9-2.09-1.3-.3.67-.59,1.33-.87,2a9.49,9.49,0,0,1-1.1,1.89A1.43,1.43,0,0,1,335.33,94.1Zm2.07-7.55a38.92,38.92,0,0,0,1.1-3.87,40.44,40.44,0,0,0,.7-4l-2.62,0q-.1,1.8-.3,3.54c-.13,1.16-.28,2.33-.45,3.49Zm11.12,7.87a1.72,1.72,0,0,1-.9-.5,13.7,13.7,0,0,1-1.1-1.14,8.29,8.29,0,0,1-1-1.45l0-.6.25-.49a1.12,1.12,0,0,1,.89-.25l.5.25a5.56,5.56,0,0,0,1.15,1.49,14.41,14.41,0,0,0,.45-2.27,20.25,20.25,0,0,0-.15-4.51c-1.53.07-2.78.13-3.74.2s-1.93.17-2.89.3l-.5-.25a1.17,1.17,0,0,1-.25-.9l.25-.49a13.14,13.14,0,0,1,3.34-.6l3.49-.2a2.7,2.7,0,0,0-1-1.88,3.87,3.87,0,0,1-1.06-1.06c-.17-.32-.08-.71.26-1.17.54-.57,1.06-1.15,1.57-1.74a13.56,13.56,0,0,0,1.43-2,26.49,26.49,0,0,0-4.49.25l-.65-.3a1.22,1.22,0,0,1-.3-.94l.25-.5a3.13,3.13,0,0,1,1.55-.5c2.67.06,4.26.1,4.76.1a4.05,4.05,0,0,1,1.34.21c.4.14.5.49.3,1a48.15,48.15,0,0,1-3.71,5c.43.7.81,1.27,1.13,1.71a3.67,3.67,0,0,1,.64,1.71l3.79.05a1.27,1.27,0,0,1,.69.3,1.12,1.12,0,0,1,.25.89l-.25.5a1.85,1.85,0,0,1-.84.3l-3.39-.1a30.07,30.07,0,0,1,.12,4.46,15.48,15.48,0,0,1-.4,2.67,4.5,4.5,0,0,1-.76,1.72A1.51,1.51,0,0,1,348.52,94.42Z"/><path class="cls-2" d="M361.88,94.1l-.5-.25a1.13,1.13,0,0,1-.25-.9l.25-.5a24,24,0,0,0,1.84-3.86,15.54,15.54,0,0,0-1.27-1l-1.17-.79c-.33-.24-.44-.75-.32-1.55s.24-1.8.39-3,.26-2.46.33-3.72l-1.3,0a2.68,2.68,0,0,1-1.19-.33,1.12,1.12,0,0,1-.25-.89l.25-.5a1.56,1.56,0,0,1,1.19-.28l1.5.08a14.46,14.46,0,0,0,.17-1.85,4.54,4.54,0,0,1,.38-1.72,1.16,1.16,0,0,1,.89-.25l.5.25a1.92,1.92,0,0,1,.28,1.45l-.28,2.17,2.57,0c0-.48,0-1,0-1.42a2.13,2.13,0,0,1,.33-1.25,1.16,1.16,0,0,1,.89-.25l.5.25.25.5v2.22a2.34,2.34,0,0,1,1.6.25,1.16,1.16,0,0,1,.25.89l-.25.5a2.56,2.56,0,0,1-1.75.3,46.74,46.74,0,0,1-.82,4.61c-.35,1.51-.76,3-1.22,4.51l2.24,1.5a1.38,1.38,0,0,1,.3,1l-.25.5a1.17,1.17,0,0,1-.9.25c-.69-.47-1.39-.9-2.09-1.3-.3.67-.59,1.33-.87,2A9,9,0,0,1,363,93.7,1.42,1.42,0,0,1,361.88,94.1Zm2.06-7.55a36.4,36.4,0,0,0,1.1-3.87,40.44,40.44,0,0,0,.7-4l-2.62,0q-.09,1.8-.3,3.54c-.13,1.16-.28,2.33-.45,3.49Zm11.12,7.87a1.72,1.72,0,0,1-.9-.5,12.28,12.28,0,0,1-1.09-1.14,7.84,7.84,0,0,1-1-1.45l-.05-.6.25-.49a1.13,1.13,0,0,1,.9-.25l.49.25a5.56,5.56,0,0,0,1.15,1.49,12.41,12.41,0,0,0,.45-2.27,20.25,20.25,0,0,0-.15-4.51c-1.53.07-2.78.13-3.74.2s-1.93.17-2.89.3l-.5-.25a1.17,1.17,0,0,1-.25-.9l.25-.49a13.14,13.14,0,0,1,3.34-.6l3.49-.2a2.7,2.7,0,0,0-1-1.88,3.87,3.87,0,0,1-1.06-1.06q-.25-.48.27-1.17c.53-.57,1.05-1.15,1.57-1.74a14.31,14.31,0,0,0,1.42-2,26.49,26.49,0,0,0-4.49.25l-.65-.3a1.22,1.22,0,0,1-.3-.94l.25-.5a3.13,3.13,0,0,1,1.55-.5c2.67.06,4.26.1,4.76.1a4,4,0,0,1,1.34.21c.4.14.5.49.3,1a48.15,48.15,0,0,1-3.71,5c.43.7.81,1.27,1.13,1.71a3.67,3.67,0,0,1,.64,1.71l3.79.05a1.24,1.24,0,0,1,.69.3,1.12,1.12,0,0,1,.25.89l-.25.5a1.85,1.85,0,0,1-.84.3l-3.39-.1a28.74,28.74,0,0,1,.12,4.46,15.48,15.48,0,0,1-.4,2.67,4.5,4.5,0,0,1-.76,1.72A1.51,1.51,0,0,1,375.06,94.42Z"/><path class="cls-2" d="M405.46,84l-.5-.25a1.19,1.19,0,0,1-.24-.9,12.48,12.48,0,0,0,.29-1.62c.07-.55.15-1.09.25-1.62l-17.39.55c.06.63.13,1.15.2,1.57s.15.82.25,1.22l-.3.55a1.34,1.34,0,0,1-.95.25l-.5-.25a5,5,0,0,1-.55-2.07c0-.75,0-1.39,0-1.92a1,1,0,0,1,.55-1,5.1,5.1,0,0,1,1.77-.27c.82,0,1.63-.06,2.44-.13l-.34-2a1.33,1.33,0,0,1,.29-.69,1.31,1.31,0,0,1,.95-.25l.5.25a7.32,7.32,0,0,1,.75,2.56l1.84-.1c-.2-.88-.35-1.72-.45-2.51l.25-.5a1.17,1.17,0,0,1,.9-.25l.5.25a12.68,12.68,0,0,1,.95,2.91h1.34c.1-.56.23-1.12.37-1.68a10.92,10.92,0,0,1,.58-1.63,1.17,1.17,0,0,1,.9-.25l.49.25a1.13,1.13,0,0,1,.25,1l-.65,2.26c3.91-.09,6-.1,6.4,0a.86.86,0,0,1,.67.63,3.34,3.34,0,0,1-.06,1.45,12,12,0,0,0-.25,2,4.77,4.77,0,0,1-.5,2A1.24,1.24,0,0,1,405.46,84Zm-15.8,11.23a1.36,1.36,0,0,1-.7-.29,1.19,1.19,0,0,1-.24-.9l.24-.5,2.87-.62a6.33,6.33,0,0,0,2.64-1.32,4.58,4.58,0,0,0-1.19-.45,1.33,1.33,0,0,1-1,.35l-.5-.25a1.34,1.34,0,0,1-.25-.95l.25-.5c1-1.71,1.67-2.71,1.91-3s.7-.33,1.37-.15a23.33,23.33,0,0,0,2.5.5q1.5.22,2.94.57a.74.74,0,0,1,.25,1c-.43.65-1,1.45-1.79,2.42,1,.3,2,.55,3,.77s2,.44,3,.67a1.14,1.14,0,0,1,.25.9l-.25.5a1.51,1.51,0,0,1-.94.3,28.08,28.08,0,0,1-3.67-.75c-1.19-.33-2.37-.65-3.54-1a22,22,0,0,1-3.38,1.87A9.69,9.69,0,0,1,389.66,95.19Zm-.15-8.74-.5-.25a1.34,1.34,0,0,1-.24-1,19.38,19.38,0,0,1,1.29-3.69,1.25,1.25,0,0,1,.92-.25l.5.25a1.16,1.16,0,0,1,.25,1l-1.29,3.64A1.27,1.27,0,0,1,389.51,86.45Zm.75-11.79a1.27,1.27,0,0,1-.7-.3,1.17,1.17,0,0,1-.25-.9l.25-.5a38.59,38.59,0,0,1,6.13-1.09q3.12-.3,6.21-.55l.5.25a1.17,1.17,0,0,1,.25.9l-.25.49c-2,.34-4,.59-6.06.78A50.13,50.13,0,0,0,390.26,74.66ZM400,86.8a12.12,12.12,0,0,1-3.09-.4,5.48,5.48,0,0,1-2.4-1.25,6.47,6.47,0,0,1-1.29-1.57,3.63,3.63,0,0,1-.45-1.62l.25-.5a1.32,1.32,0,0,1,.94-.25l.5.25c.17.4.33.79.5,1.17a3.67,3.67,0,0,0,1.17,1.28,5,5,0,0,0,2.54.84,14,14,0,0,0,2.9,0c.84-.1,1.59-.2,2.24-.3l.6.3a1.18,1.18,0,0,1,.25.9l-.25.5a7,7,0,0,1-2.11.57A15.83,15.83,0,0,1,400,86.8Zm-3.07,3.46a4.47,4.47,0,0,0,1-1.12l-3.09-.5-.3.77A9.6,9.6,0,0,0,396.89,90.26Zm1.27-6-.5-.25a5,5,0,0,1-.65-2.34l.25-.5a1.36,1.36,0,0,1,.95-.25l.5.25a15.88,15.88,0,0,1,.6,2.35l-.25.49A1.13,1.13,0,0,1,398.16,84.3Zm3.29.2-.5-.25-.89-2.69.24-.5a1.19,1.19,0,0,1,.9-.25l.5.25a6.5,6.5,0,0,1,.67,1.35,4.07,4.07,0,0,1,.23,1.35l-.25.49A1.14,1.14,0,0,1,401.45,84.5Z"/><path class="cls-2" d="M417.72,94.32a3,3,0,0,1-1.25-.65l-1.14-.94a1.18,1.18,0,0,1-.25-.9l.25-.5a1.08,1.08,0,0,1,.9-.27l.67.3-.1-3.62q-1,.26-1.89.51a17.6,17.6,0,0,1-1.77.44,1.27,1.27,0,0,1-.7-.3,1.18,1.18,0,0,1-.27-.9l.25-.49c.69-.24,1.4-.45,2.11-.65l2.17-.6V81.06l-4.11,0a1.5,1.5,0,0,1-.72-.27,1.13,1.13,0,0,1-.25-.9l.25-.5.47-.27,4.36,0V75.56a8.51,8.51,0,0,0-1.71.61,9.09,9.09,0,0,1-1.53.58l-.5-.25a1.21,1.21,0,0,1-.27-.89l.25-.5a15.29,15.29,0,0,1,3.75-1.65,37.33,37.33,0,0,1,4-.92l.5.25a1.13,1.13,0,0,1,.25.9l-.25.5a6.68,6.68,0,0,1-1.22.38,8.09,8.09,0,0,0-1.24.36l-.05,4.16L425,79q-.22-1.55-.39-2.91t-.39-2.7a1.43,1.43,0,0,1,.3-.7,1.1,1.1,0,0,1,.87-.25l.53.23a17.39,17.39,0,0,1,.58,3.12c.11,1.09.26,2.15.44,3.18l4.46,0,.52.24a1.15,1.15,0,0,1,.25.9l-.25.5a1.51,1.51,0,0,1-.72.3h-3.91a18.1,18.1,0,0,0,.65,2.37c.26.78.53,1.55.79,2.32A5.56,5.56,0,0,0,430,84.13c.29-.52.59-1,.89-1.55a1.24,1.24,0,0,1,.92-.25l.52.25a1.07,1.07,0,0,1,.25.88,9.89,9.89,0,0,1-1.06,1.94,26.89,26.89,0,0,1-1.8,2.29c.26.64.56,1.27.88,1.9a16.65,16.65,0,0,0,1.11,1.84l1.22-1.37a1.17,1.17,0,0,1,.9-.25l.5.23a1.21,1.21,0,0,1,.27.89c-.3.5-1,1.44-2,2.82-.33.38-.65.49-.94.32a19,19,0,0,1-2.27-2.65,10.41,10.41,0,0,1-1-2.08c-.8.78-1.58,1.48-2.35,2.1a8.22,8.22,0,0,1-2.53,1.41l-.53-.25a1.16,1.16,0,0,1-.25-.89l.25-.5c.78-.52,1.56-1.09,2.33-1.72a12.23,12.23,0,0,0,2.08-2.17c-.44-1.25-.86-2.43-1.24-3.55a12.24,12.24,0,0,1-.67-2.83l-6.73.1v4.09a15.05,15.05,0,0,1,2.29-.35l.5.25a1.16,1.16,0,0,1,.25.89l-.23.5a3,3,0,0,1-1.32.41,6.06,6.06,0,0,0-1.37.29l.15,6.41C418.9,94.19,418.5,94.46,417.72,94.32ZM430,77.77l-.5-.24a13.44,13.44,0,0,0-.73-1.18,2.86,2.86,0,0,1-.49-1.27l.25-.5a1.32,1.32,0,0,1,1-.27l.5.25c.23.4.47.78.73,1.16a2.18,2.18,0,0,1,.39,1.28l-.23.5A1.06,1.06,0,0,1,430,77.77Z"/><path class="cls-2" d="M439.3,89.66c-.56.07-.87-.08-.92-.45s-.14-4.11-.27-11.24c0-.79.3-1.23.86-1.3a8.55,8.55,0,0,1,2.33.11,7.39,7.39,0,0,1,.83-1.8,12.46,12.46,0,0,0,.94-1.72A1.17,1.17,0,0,1,444,73l.49.25a1.13,1.13,0,0,1,.25,1,7.44,7.44,0,0,1-.62,1.27,12.26,12.26,0,0,0-.67,1.3,22.1,22.1,0,0,1,3.3.13c.37.1.53.57.49,1.41q-.21,10.17-.4,10.78t-1.62.51Zm5.76-8.1.1-2.74-5.11-.15.05,2.94ZM445,87.64l.05-4.13-4.86,0,.15,4.13ZM457.7,94.2a2.29,2.29,0,0,1-1.07-.62l-.93-.93c-.3-.3-.62-.6-1-.92a1.36,1.36,0,0,1-.49-1.17l.25-.5a1.2,1.2,0,0,1,.92-.25,8.9,8.9,0,0,1,1.9,1.65c.3-2.15.55-4.38.75-6.71s.39-4.5.59-6.53l-7.35,0a8.85,8.85,0,0,1-.45,1.9c-.2.53-.44,1.13-.74,1.79a1.19,1.19,0,0,1-.9.25l-.5-.25a1.15,1.15,0,0,1-.25-1,14.46,14.46,0,0,0,1.12-4.07,29.6,29.6,0,0,1,1-4.57,1.15,1.15,0,0,1,.9-.25l.5.25a1.13,1.13,0,0,1,.25,1c-.13.5-.25,1-.35,1.5s-.18,1-.25,1.49l8.05,0c.58-.06.88.29.9,1.08q-.49,5.52-.75,9.23a30.84,30.84,0,0,1-.82,5.77C458.64,93.71,458.2,94.33,457.7,94.2Zm-3.57-7.7-.5-.25-1.94-2.2a1.16,1.16,0,0,1-.25-.89l.25-.5a1.16,1.16,0,0,1,1-.25l.5.25,1.74,2.14a1.1,1.1,0,0,1,.37,1l-.27.5A1.17,1.17,0,0,1,454.13,86.5Z"/><path class="cls-2" d="M484.79,93.45l-18.25-.15-.49-.25a1.28,1.28,0,0,1-.25-1l.25-.49.49-.25,9.1,0V85.1l-6,0a1.3,1.3,0,0,1-.72-.3,1.12,1.12,0,0,1-.25-.89l.25-.5.49-.25,6.21,0-.15-5-8.85.2-.49-.25a1.27,1.27,0,0,1-.25-.94l.25-.53.49-.25q16.56-.19,17.27-.15a3.13,3.13,0,0,1,1.33.4,1.26,1.26,0,0,1,.24.93l-.24.49a1.34,1.34,0,0,1-1.1.25,55.17,55.17,0,0,0-6.71-.15l.15,5.14,4.3.07a2.8,2.8,0,0,1,1.36.38,1.16,1.16,0,0,1,.25.89l-.25.5a1.18,1.18,0,0,1-1,.25l-4.59-.15v6.21H485l.54.3a1.15,1.15,0,0,1,.3.94l-.25.5A1.56,1.56,0,0,1,484.79,93.45Zm-7.31-17.79c-.73-.4-1.47-.83-2.21-1.28A23.27,23.27,0,0,0,473,73.21a1.16,1.16,0,0,1-.25-.89l.25-.5a1.19,1.19,0,0,1,1.05-.3c.73.33,1.44.7,2.14,1.1a24.13,24.13,0,0,1,2,1.29,1.34,1.34,0,0,1,.25,1l-.25.5A1.75,1.75,0,0,1,477.48,75.66Z"/><path class="cls-2" d="M493.63,92.9a1.24,1.24,0,0,1-.69-.3,1.12,1.12,0,0,1-.25-.89l.25-.5A9,9,0,0,0,494.53,90a24.44,24.44,0,0,0,2.28-2.73,27.45,27.45,0,0,0,3.1-5.66A28.81,28.81,0,0,0,502,74a1.17,1.17,0,0,1,.9-.25l.5.25a1.86,1.86,0,0,1,.25,1.4c-.2,1.11-.44,2.21-.73,3.31S502.36,80.9,502,82a9.43,9.43,0,0,0,1.9,2.34c.76.7,1.58,1.47,2.46,2.32a21.2,21.2,0,0,0,2.71,2.23c.92.64,2.08,1.43,3.47,2.36a1.12,1.12,0,0,1,.25.89l-.25.5a1.32,1.32,0,0,1-.94.25c-1-.6-2-1.25-3-2a33.72,33.72,0,0,1-3.12-2.53c-1.08-1-2-1.77-2.62-2.4s-1.3-1.26-1.9-1.9c-.53,1-1.08,1.92-1.64,2.85a31.34,31.34,0,0,1-2,2.91,15.35,15.35,0,0,1-2.47,2.54A2.22,2.22,0,0,1,493.63,92.9Z"/></g></g></svg>