<?xml version="1.0" encoding="utf-8"?>
<!-- Generator: Adobe Illustrator 24.0.3, SVG Export Plug-In . SVG Version: 6.00 Build 0)  -->
<svg version="1.1" id="圖層_1" xmlns="http://www.w3.org/2000/svg" xmlns:xlink="http://www.w3.org/1999/xlink" x="0px" y="0px"
	 viewBox="0 0 1440 120" style="enable-background:new 0 0 1440 120;" xml:space="preserve">
<style type="text/css">
	.st0{fill:#818181;}
</style>
<path class="st0" d="M564,35.6V33h-19.2c0.7-1.2,1.2-2.5,1.7-3.8l-1.7-0.5c1.3-0.4,2.5-0.8,3.8-1.3c4.1,1.5,7.8,3,10.3,4.4l2.1-2.1
	c-2.3-1.2-5.5-2.5-8.9-3.7c2.8-1.3,5.5-2.6,7.7-4.2l-2.3-1.6c-2.3,1.7-5.4,3.2-8.9,4.5c-4.2-1.5-8.6-2.8-12.5-3.8l-2,1.7
	c3.4,0.9,7.1,2.1,10.8,3.3c-4.2,1.3-8.8,2.4-13.1,3.1c0.6,0.6,1.5,1.7,2,2.4c3.1-0.7,6.4-1.5,9.6-2.5c-0.5,1.3-1,2.5-1.7,3.8h-11.3
	v2.5h9.8c-2.7,3.9-6.3,7.4-10.6,9.7c0.6,0.5,1.5,1.5,1.9,2.2c2-1.1,3.8-2.5,5.5-4v9.8h2.8V42.9h7.6v12.7h2.8V42.9h8.3v7
	c0,0.5-0.2,0.7-0.8,0.7c-0.5,0-2.4,0-4.6,0c0.3,0.7,0.8,1.7,0.9,2.5c2.9,0,4.7,0,5.8-0.4c1.1-0.5,1.4-1.2,1.4-2.6v-9.6h-11.1v-3.8
	h-2.8v3.8h-7.3c1.3-1.5,2.5-3.1,3.5-4.8H564z M599.2,23.9l-0.1,2.7h-8c0.1-0.9,0.2-1.8,0.2-2.7H599.2z M590.4,31.3
	c0.2-0.8,0.3-1.8,0.5-2.7h8.2c-0.1,1-0.1,1.9-0.2,2.7H590.4z M598.7,33.4c-0.2,1.7-0.4,2.6-0.7,2.9c-0.3,0.4-0.6,0.5-1.2,0.5
	c-0.6,0-1.9,0-3.5-0.2c0.3,0.6,0.6,1.6,0.7,2.3c1.6,0.1,3.1,0.1,4,0c1-0.1,1.7-0.3,2.2-1c1-1.2,1.3-4.7,1.7-14.9c0-0.4,0-1.2,0-1.2
	h-13.2c-0.2,7.4-0.8,13-5.1,16.1c0.6,0.4,1.3,1.3,1.7,1.9c2.2-1.6,3.6-3.8,4.5-6.4H598.7z M570.8,33.3c0,3,0.8,4.1,4,4.1h6.5
	c1.3,0,2.5,0,3.1-0.2c-0.1-0.6-0.2-1.7-0.3-2.5c-0.7,0.2-2.1,0.2-2.9,0.2h-6.5c-1,0-1.3-0.4-1.3-1.6v-6.5h12.8v-2.5h-7.7v-4h-2.7v4
	H568v2.5h2.9V33.3z M586.9,52.2v-3.3h11.4v-2.3h-11.4v-3.3h13.2v-2.4h-28.9v2.4h12.9v3.3h-11.2v2.3h11.2v3.3h-15.4v2.4h33.8v-2.4
	H586.9z M637.1,37.2c3,0,3.9-1.2,4.3-5.9c-0.8-0.2-2-0.7-2.6-1.1c-0.2,3.8-0.4,4.4-1.9,4.4h-6.1c-1.7,0-2-0.2-2-1.5v-3.9
	c3.7-1.1,7.8-2.5,10.8-3.9l-1.9-2.1c-2.2,1.2-5.6,2.5-8.9,3.6v-6.4h-2.8v12.7c0,3.1,1,4,4.6,4H637.1z M611.4,45.5v-3.5h8.1v3.5
	H611.4z M619.5,36.4v3.3h-8.1v-3.3H619.5z M622.3,34h-13.6v21.4h2.6v-7.8h8.1v4.5c0,0.5-0.1,0.6-0.6,0.6c-0.5,0-2.2,0.1-4,0
	c0.4,0.7,0.8,1.8,0.9,2.6c2.4,0,4.1,0,5.1-0.5c1-0.5,1.3-1.3,1.3-2.7V34z M617.6,24c0.9,1.2,1.8,2.6,2.6,4l-7.9,0.3
	c1.2-2.2,2.4-4.9,3.5-7.2l-2.9-0.7c-0.8,2.3-2.2,5.6-3.5,8c-1.1,0-2,0.1-2.9,0.1l0.3,2.7c3.9-0.2,9.4-0.5,14.8-0.8
	c0.4,0.8,0.8,1.6,1,2.3l2.4-1.1c-0.8-2.3-3-5.9-5-8.5L617.6,24z M630.9,52.6c-1.8,0-2.2-0.2-2.2-1.5v-4.5c3.9-1.1,8.3-2.6,11.2-4.3
	l-1.9-2.2c-2.2,1.4-5.8,2.9-9.3,4v-6.1h-2.8v12.9c0,3.1,1,4,4.6,4h6.8c3.2,0,4-1.3,4.4-6.5c-0.8-0.2-1.9-0.6-2.6-1.1
	c-0.2,4.3-0.5,5.1-2.1,5.1H630.9z M660,37.9h-4.8c0.6-0.9,1.2-1.8,1.7-2.8l-2.5-0.5c2.7-2.5,5-5.7,6.3-9.7l-1.6-0.9l-0.5,0.1h-5.5
	c0.7-1,1.3-2.2,1.8-3.2l-2.5-0.5c-1.3,2.9-3.9,6.5-7.6,9c0.6,0.3,1.4,1.2,1.7,1.8c1.9-1.5,3.5-3,4.9-4.7h6c-0.9,2-2.2,3.7-3.6,5.3
	c-1-0.9-2.2-1.8-3.3-2.5l-1.8,1.3c1.2,0.8,2.4,1.8,3.4,2.7c-2,1.7-4.3,3-6.6,3.8c0.5,0.5,1.1,1.5,1.4,2.1c2.6-1.1,5.2-2.6,7.4-4.7
	c-1.6,3.2-4.7,6.9-9.4,9.5c0.5,0.4,1.3,1.3,1.6,2c2.8-1.7,5.1-3.7,6.9-5.8h5.6c-0.8,2.3-2,4.3-3.5,6.1c-1-1-2.3-2-3.6-2.7l-1.8,1.4
	c1.3,0.8,2.8,2,3.7,3c-2.5,2.4-5.6,4.1-8.9,5.1c0.5,0.5,1.1,1.6,1.4,2.3c7.1-2.5,13.4-7.6,15.8-17l-1.6-0.8L660,37.9z M670.8,35.3
	V44h-4.3v-8.8H670.8z M673.1,46.4V32.9h-9.1v16.4h2.4v-2.9H673.1z M667.1,26.1c0.6-1.6,1.2-3.2,1.7-4.9l-2.6-0.7
	c-1.3,5-3.6,9.8-6.5,13c0.6,0.4,1.7,1.3,2.2,1.8c1.5-1.8,3-4.1,4.1-6.6h10.2c-0.3,16.1-0.7,21.9-1.6,23.2c-0.3,0.5-0.7,0.7-1.3,0.6
	c-0.8,0-2.5,0-4.4-0.2c0.5,0.8,0.8,1.9,0.8,2.7c1.7,0.1,3.5,0.1,4.5,0c1.2-0.2,1.9-0.5,2.6-1.5c1.2-1.8,1.5-7.6,1.8-25.9
	c0-0.4,0-1.5,0-1.5H667.1z M710.2,39h-16v-3.9h16V39z M694.2,45.5v-4h16v4H694.2z M717.5,28.1v-2.7H698c0.6-1.4,1-2.8,1.5-4.3
	l-2.8-0.7c-0.5,1.7-1,3.3-1.7,5h-10.8v2.7h9.6c-2.5,5.1-6,9.7-10.6,12.8c0.6,0.5,1.5,1.6,1.8,2.2c2.4-1.7,4.5-3.8,6.4-6v18.5h2.8
	v-7.6h16v4c0,0.6-0.2,0.8-0.9,0.8c-0.7,0-3,0-5.5-0.1c0.4,0.8,0.8,2,0.9,2.8c3.3,0,5.4,0,6.7-0.5c1.2-0.5,1.6-1.3,1.6-3V32.5h-18.5
	c0.8-1.4,1.6-3,2.3-4.5H717.5z M721.8,36.1v3.1h34.9v-3.1H721.8z M767.6,20.6c-1.9,5.8-5,11.6-8.4,15.3c0.5,0.7,1.3,2.3,1.5,2.9
	c1.3-1.5,2.5-3.2,3.7-5.1v21.8h2.7V28.8c1.2-2.4,2.2-4.9,3.1-7.4L767.6,20.6z M786,45.4h-6.5v-6h6.5V45.4z M789.8,33v-2.2h-5.9v-4.3
	h-2.3v4.3h-5.8V33h5.8v4.2h-4.2v10.2h10.9V37.3h-4.4V33H789.8z M774.2,50.7V25.3h16.9v25.4H774.2z M771.5,22.8v32.7h2.6v-2.3h16.9v2
	h2.7V22.8H771.5z M803,26.5h26v4.9h2.9v-7.6h-14.6v-3.4h-2.8v3.4h-14.3v7.6h2.8V26.5z M829.2,34.1c-1.8,1.6-4.6,3.6-7,5.1
	c-1-2-1.8-4.1-2.5-6.4h6.8v-2.5h-21.5v2.5h8.2c-3.6,2.3-8.7,4.2-13.3,5.3c0.5,0.5,1.3,1.7,1.6,2.2c3.1-0.9,6.4-2.2,9.4-3.6
	c0.7,0.6,1.2,1.2,1.8,1.7c-3,2.3-8.4,4.8-12.5,5.9c0.5,0.6,1.2,1.6,1.5,2.2c3.9-1.4,9-4,12.2-6.4c0.5,0.8,1,1.6,1.3,2.5
	c-3.8,3.5-10.7,7.1-16.5,8.7c0.5,0.6,1.2,1.7,1.5,2.4c5.3-1.8,11.6-5.1,15.8-8.6c0.8,3.3,0.1,6.1-1.3,7.1c-0.8,0.7-1.6,0.7-2.6,0.7
	c-0.8,0-2.2,0-3.6-0.2c0.5,0.8,0.7,2,0.8,2.7c1.2,0.1,2.4,0.1,3.3,0.1c1.7,0,2.8-0.3,4.1-1.3c3.8-2.6,3.7-12.5-3.6-18.8
	c1.4-0.8,2.8-1.7,3.9-2.7h0.1c2.4,9.1,6.8,16.4,14.1,19.7c0.5-0.8,1.3-1.9,2-2.5c-4.1-1.6-7.4-4.7-9.9-8.6c2.6-1.5,5.6-3.5,7.9-5.4
	L829.2,34.1z M841.2,56.7c4-1.4,6.6-4.6,6.6-8.7c0-2.7-1.2-4.4-3.3-4.4c-1.6,0-2.9,1-2.9,2.8c0,1.8,1.3,2.7,2.9,2.7
	c0.2,0,0.4,0,0.7,0c-0.2,2.6-1.9,4.4-4.8,5.6L841.2,56.7z M529.8,80.9V84h34.9v-3.1H529.8z M575.6,65.4c-1.9,5.8-5,11.6-8.4,15.3
	c0.5,0.7,1.3,2.3,1.5,2.9c1.3-1.5,2.5-3.2,3.7-5.1v21.8h2.7V73.6c1.2-2.4,2.2-4.9,3.1-7.4L575.6,65.4z M594,90.2h-6.5v-6h6.5V90.2z
	 M597.8,77.8v-2.2h-5.9v-4.3h-2.3v4.3h-5.8v2.2h5.8v4.2h-4.2v10.2h10.9V82.1h-4.4v-4.2H597.8z M582.2,95.5V70.1h16.9v25.4H582.2z
	 M579.5,67.6v32.7h2.6V98h16.9v2h2.7V67.6H579.5z M632.1,89.8v2.6h-15.9v-2.6H632.1z M616.2,97.1v-2.6h15.9v2.6H616.2z M613.4,100.3
	h2.8v-1.2h15.9v1.1h2.9V87.8h-21.5V100.3z M629.4,83.9c0.8-1.2,1.7-2.9,2.6-4.5l-2.4-0.8c-0.5,1.3-1.5,3.3-2.2,4.6L629.4,83.9z
	 M615.9,79.4c1,1.4,1.8,3.3,2.2,4.5l2.2-0.8c-0.3-1.2-1.3-3-2.3-4.3L615.9,79.4z M613.6,78.3h9.1V84h-9.1V78.3z M634.5,84H625v-5.7
	h9.5V84z M611.1,86h26v-9.7h-26V86z M617.9,72.2c2.3-1.5,4.4-3.1,5.9-4.6c1.7,1.6,3.8,3.2,6.2,4.6H617.9z M622.3,65.2
	c-3.2,3.7-9.6,7.6-16.1,9.8c0.5,0.5,1.2,1.6,1.5,2.2c3.3-1.3,6.7-3,9.6-4.8v1.7h13.3v-1.7c3.1,1.8,6.5,3.4,9.4,4.4
	c0.4-0.7,1.1-1.7,1.7-2.4c-5.9-1.7-12.6-5.2-16.9-9.4H622.3z M656.4,75.8c-0.5,5-1.5,9.3-3,12.7c-1.5-1-3-2-4.5-2.8
	c0.8-3,1.6-6.5,2.3-9.9H656.4z M657.6,73l-0.5,0.1h-5.2c0.6-2.6,1.1-5.2,1.6-7.6l-2.7-0.3c-0.4,2.4-1,5.1-1.6,7.9H645v2.6h3.6
	c-1.1,4.8-2.2,9.5-3.1,12.8l2.4,1.2l0.4-1.6c1.3,0.8,2.7,1.8,4,2.7c-1.8,3.3-4.1,5.7-7,7.1c0.6,0.6,1.4,1.6,1.8,2.3
	c3-1.8,5.5-4.3,7.4-7.7c1.6,1.3,3,2.7,3.9,3.8l1.7-2.3c-1-1.3-2.6-2.7-4.4-4.1c1.9-4.3,3.1-9.8,3.6-16.7L657.6,73z M680,80.6h-9.1
	v-3.4c2.9-2.3,6.2-5.7,8.3-8.8l-1.9-1.4l-0.6,0.2h-16.4v2.6h14.4c-1.5,2-3.6,4.1-5.5,5.7H668v5.1h-9v2.6h9v13.4
	c0,0.6-0.2,0.8-0.8,0.8c-0.7,0-2.8,0-5.2,0c0.4,0.7,0.9,2,1.1,2.8c3,0,5-0.1,6.2-0.5c1.2-0.5,1.6-1.3,1.6-3V83.3h9.1V80.6z
	 M694.8,75.8c-0.5,5-1.5,9.3-3,12.7c-1.5-1-3-2-4.5-2.8c0.8-3,1.6-6.5,2.3-9.9H694.8z M696,73l-0.5,0.1h-5.2
	c0.6-2.6,1.1-5.2,1.6-7.6l-2.7-0.3c-0.4,2.4-1,5.1-1.6,7.9h-4.2v2.6h3.6c-1.1,4.8-2.2,9.5-3.1,12.8l2.4,1.2l0.4-1.6
	c1.3,0.8,2.7,1.8,4,2.7c-1.8,3.3-4.1,5.7-7,7.1c0.6,0.6,1.4,1.6,1.8,2.3c3-1.8,5.5-4.3,7.4-7.7c1.6,1.3,3,2.7,3.9,3.8l1.7-2.3
	c-1-1.3-2.6-2.7-4.4-4.1c1.9-4.3,3.1-9.8,3.6-16.7L696,73z M718.4,80.6h-9.1v-3.4c2.9-2.3,6.2-5.7,8.3-8.8l-1.9-1.4l-0.6,0.2h-16.4
	v2.6h14.4c-1.5,2-3.6,4.1-5.5,5.7h-1.2v5.1h-9v2.6h9v13.4c0,0.6-0.2,0.8-0.8,0.8c-0.7,0-2.8,0-5.2,0c0.4,0.7,0.9,2,1.1,2.8
	c3,0,5-0.1,6.2-0.5c1.2-0.5,1.6-1.3,1.6-3V83.3h9.1V80.6z M736.1,69.3c1,1.5,2,3.5,2.2,4.8h-6.8l1.3-0.5c-0.4-1.2-1.3-2.8-2.4-4.1
	c2-0.1,4.1-0.2,6.2-0.3L736.1,69.3z M725.8,76.4h10.9l-1.1,1.2c2,0.9,4.5,2.3,5.7,3.4l1.5-1.7c-1.1-0.9-3.1-2-4.9-2.8h14.6v4.6h2.8
	v-6.9h-6.9c1.1-1.4,2.3-3,3.3-4.6l-2.7-1c-0.8,1.7-2.4,4.1-3.5,5.6h-6.9l2.4-0.8c-0.3-1.2-1.1-2.9-2.1-4.3c5.4-0.4,10.6-1,14.5-1.8
	l-1.9-2c-6.2,1.2-17.7,2-27,2.3c0.3,0.5,0.5,1.5,0.6,2.2c1.3,0,2.6-0.1,3.9-0.2l-1.1,0.5c1,1.2,2,2.9,2.5,4.1h-7.1v6.6h2.6V76.4z
	 M746.3,79.6c2.2,1.8,4.8,4.4,5.9,6.1l2-1.6c-1.2-1.7-3.8-4.2-6-5.9L746.3,79.6z M726.1,86.2c2.6-1.5,4-4,4.9-6.5l-2.2-0.9
	c-0.8,2.3-2.4,4.6-4.7,5.8L726.1,86.2z M745.3,90c-1.6,1.6-3.6,3-6.1,4c-2.5-1.1-4.6-2.5-6.3-4H745.3z M747.7,87.8l-0.5,0.1h-11.9
	c0.8-0.7,1.5-1.5,2.2-2.3l-0.7-0.2h6.2c2.5,0,3.2-0.7,3.5-3.8c-0.7-0.2-1.7-0.4-2.3-0.8c-0.2,2.3-0.4,2.5-1.6,2.5H737
	c-1.6,0-1.9-0.2-1.9-0.9v-3.6h-2.6v3.7c0,1.8,0.5,2.6,2.1,2.8c-2.8,3.2-7.4,6-11.9,7.7c0.5,0.5,1.6,1.4,2,1.9
	c2.1-0.9,4.3-2.1,6.3-3.5c1.5,1.5,3.2,2.8,5.2,3.9c-4.2,1.4-9.1,2.3-14.1,2.8c0.5,0.6,1.2,1.7,1.5,2.4c5.5-0.7,10.9-1.8,15.6-3.7
	c4.5,1.9,9.9,3.1,15.5,3.6c0.4-0.7,1-1.9,1.7-2.5c-5.1-0.4-9.9-1.3-14.1-2.6c3-1.6,5.5-3.7,7.2-6.3L747.7,87.8z M793.6,72.6
	c-1.2-1.8-3.9-4.5-6.1-6.4l-2.2,1.5c2.2,2,4.8,4.7,6,6.5L793.6,72.6z M790.2,81c-1.3,2.5-3,4.8-5,7c-0.7-2.5-1.2-5.5-1.6-8.8h11
	v-2.7h-11.3c-0.3-3.4-0.5-7.1-0.5-10.9h-2.9c0,3.8,0.2,7.4,0.5,10.9h-8.8v-6.7c2.3-0.5,4.6-1.1,6.4-1.8l-2-2.3
	c-3.6,1.3-9.8,2.6-15.2,3.5c0.4,0.7,0.8,1.7,0.9,2.4c2.3-0.3,4.7-0.7,7.1-1.2v6.1h-8.2v2.7h8.2V86c-3.3,0.7-6.5,1.3-8.8,1.7l0.8,2.9
	c2.3-0.5,5.1-1.2,7.9-1.8v7.8c0,0.7-0.2,0.9-0.9,0.9c-0.7,0-2.9,0.1-5.4,0c0.4,0.8,0.9,2.1,1.1,2.9c3.1,0,5.2-0.1,6.4-0.5
	c1.2-0.5,1.7-1.3,1.7-3.1v-8.5c2.3-0.5,4.7-1.1,7.1-1.7l-0.2-2.6c-2.3,0.5-4.6,1-6.9,1.5v-6.1h9c0.5,4.1,1.2,7.9,2.2,11.1
	c-2.7,2.5-5.9,4.6-9.1,6.2c0.7,0.6,1.5,1.6,2,2.3c2.9-1.5,5.6-3.4,8.1-5.6c1.8,4.5,4.1,7.2,7.1,7.2c2.9,0,3.9-1.8,4.4-8.2
	c-0.8-0.3-1.8-0.9-2.4-1.5c-0.2,4.9-0.7,6.9-1.7,6.9c-1.9,0-3.6-2.5-5.1-6.5c2.7-2.7,5-5.8,6.7-9L790.2,81z M810.9,82h-8.1v-8h8.1
	V82z M802.8,93.7v-9.2h8.1v9.2H802.8z M806,65.2c-0.3,1.8-1,4.4-1.5,6.2h-4.3v28h2.6v-3h10.7V71.4h-6.4c0.7-1.7,1.3-3.8,2-5.6
	L806,65.2z M832.3,71.3h-11.5c0.7-1.8,1.2-3.6,1.7-5.5l-2.7-0.7c-1.2,5.3-3.3,10.6-5.9,13.9c0.6,0.4,1.8,1.2,2.3,1.6
	c1.3-1.8,2.5-4.1,3.6-6.7h9.8c-0.5,15.3-1.1,21.1-2.3,22.5c-0.4,0.5-0.8,0.6-1.6,0.6c-0.9,0-3.2,0-5.7-0.2c0.5,0.8,0.9,2,1,2.8
	c2.2,0.1,4.3,0.2,5.7,0c1.3-0.1,2.2-0.5,3-1.5c1.5-1.9,2-7.8,2.6-25.3V71.3z M826.2,88.5c-1.2-2.3-3.9-6-6-8.7l-2.2,1.3
	c2.1,2.8,4.7,6.6,5.8,8.9L826.2,88.5z M855.9,96.3v-9.4h12.1v-2.7h-12.1v-8.4h13.6v-2.8h-12.4l1.8-1.3c-1.5-1.8-4.6-4.4-7-6.2
	l-2.3,1.6c2.3,1.7,5,4.1,6.5,5.9h-16.9v2.8h13.6v8.4H841v2.7h11.8v9.4h-15.4v2.8h33.9v-2.8H855.9z M890.8,66.4
	c-0.3,5.1-0.3,23.4-15.8,31.3c0.9,0.6,1.8,1.5,2.3,2.2c9.7-5.3,13.7-14.5,15.4-22.2c1.8,7.7,6.1,17.5,16,22.2
	c0.4-0.8,1.3-1.7,2.1-2.3c-14.4-6.6-16.5-24.3-16.9-29.4c0-0.7,0-1.3,0.1-1.8H890.8z"/>
</svg>
