<svg id="圖層_1" data-name="圖層 1" xmlns="http://www.w3.org/2000/svg" viewBox="0 0 375 120"><defs><style>.cls-1{fill:#818181;}</style></defs><title>wishahome</title><path class="cls-1" d="M79,57.38l-.45-.23a1.69,1.69,0,0,1-.28-1.24V50.45l-3.49.18c.07,1,.13,1.88.19,2.52s.13,1.3.22,2l-.22.43a1,1,0,0,1-.8.23l-.45-.23a7.25,7.25,0,0,1-.52-2.41q-.07-1.31-.18-2.55l-2.31,2a1.46,1.46,0,0,1-1,.3l-.46-.21a1.09,1.09,0,0,1-.22-.84l.22-.45a10.13,10.13,0,0,0,2-1.63l1.66-1.65a8.4,8.4,0,0,0,.92-1.07l-5.37.18L68,47a1.13,1.13,0,0,1-.27-.87l.22-.43a2.55,2.55,0,0,1,1.52-.27l5.73-.22q.32-.56.57-1.08c.17-.36.33-.71.5-1a1.16,1.16,0,0,1,.86-.23l.45.23a1.15,1.15,0,0,1,.21.83l-.53,1.25,7.8,0a1.59,1.59,0,0,1,.7.28,1.06,1.06,0,0,1,.27.83l-.22.46a1,1,0,0,1-.93.18l-4.9,0v1.75c2.28-.06,3.62-.06,4,0a.76.76,0,0,1,.72.55,17.64,17.64,0,0,1,0,3,7.81,7.81,0,0,1-.45,3.07,1,1,0,0,1-1.2.3,4.52,4.52,0,0,1-1.68-.87,1,1,0,0,1-.23-.79l.23-.46a1.17,1.17,0,0,1,.84-.22l.72.36,0-3.19-2.86-.05V56a1.73,1.73,0,0,1-.27,1.11A1,1,0,0,1,79,57.38ZM71.81,43.94a1.19,1.19,0,0,1-.63-.27,1,1,0,0,1-.23-.79l.23-.45a19.36,19.36,0,0,0,2.12-1.1,10.72,10.72,0,0,0,2-1.6,9.47,9.47,0,0,0-1.7-1,1.08,1.08,0,0,1-.22-.82l.22-.43a1.27,1.27,0,0,1,1-.23c.38.21.76.44,1.15.69l1.16.74a5.86,5.86,0,0,0,1.19-1.14l1-1.26a1.22,1.22,0,0,1,1-.36l.45.22a1.07,1.07,0,0,1,.21.8l-.21.45a26.15,26.15,0,0,1-2,2.26,6.87,6.87,0,0,1,1,.63l1,.73A1.17,1.17,0,0,1,81,42l-.23.45a1,1,0,0,1-.79.23c-.5-.33-1-.68-1.5-1a6.29,6.29,0,0,0-1.58-.83c-.8.62-1.61,1.22-2.42,1.79A9.31,9.31,0,0,1,71.81,43.94Zm6.44,4.76V46.93l-2.11,0a6.61,6.61,0,0,1-.72,1,8.63,8.63,0,0,0-.75,1Z"/><path class="cls-1" d="M96.65,46.53a3.28,3.28,0,0,1-1.83-.64,2,2,0,0,1-.8-1.13,9.45,9.45,0,0,1-.12-1.47,13.72,13.72,0,0,1,.1-1.88l-2,.18-.45-.23a1.29,1.29,0,0,1-.23-.88l.23-.46a2.85,2.85,0,0,1,1.49-.4h2.79l-.18-2.22a1.19,1.19,0,0,1,.27-.64,1.06,1.06,0,0,1,.82-.22l.45.22a4.22,4.22,0,0,1,.32,1.38l.09,1.48h4.21l.45.22a1,1,0,0,1,.23.82l-.23.47a1.36,1.36,0,0,1-.68.28H95.79c0,.63,0,1.27,0,1.92s.13,1.05.36,1.2a1.88,1.88,0,0,0,1,.23c.45,0,.89,0,1.31,0s.83-.07,1.2-.13l1.16-.18.45.22a1.22,1.22,0,0,1,.23.86l-.23.46a3.1,3.1,0,0,1-1.29.36c-.47,0-1,.08-1.51.16A10.44,10.44,0,0,1,96.65,46.53Zm-3,9.92-.45-.23a1,1,0,0,1-.23-.81l.23-.45.5-.28,7.18,0,0-1.66H97.28l-.45-.22a1.19,1.19,0,0,1-.27-.89l.23-.45.45-.23,3.62-.09V49.25c-2.81-.06-4.43-.09-4.86-.07a2,2,0,0,1-1.14-.3,1,1,0,0,1-.23-.81l.23-.46a3.08,3.08,0,0,1,1.74-.22l10.77,0,.45.23a1.21,1.21,0,0,1,.23.86l-.23.45a4.5,4.5,0,0,1-2.24.28h-3V51.1l3.35,0,.46.22a1.08,1.08,0,0,1,.22.82l-.22.45a2.37,2.37,0,0,1-1.41.34h-2.31l0,1.79c1.51-.09,2.73-.16,3.66-.2s1.86-.08,2.79-.11l.46.22a1.07,1.07,0,0,1,.22.82l-.22.45a15.58,15.58,0,0,1-3.53.43Zm15.68-9.06a2.89,2.89,0,0,1-1.59-1,1.12,1.12,0,0,1-.27-.86l.23-.46a1,1,0,0,1,.81-.22l.46.18.18-1.32-4.83-.31a4.49,4.49,0,0,1-.54,1.72,1.06,1.06,0,0,1-.82.22l-.45-.22a1.06,1.06,0,0,1-.23-.91c.34-1.12.68-2.47,1-4s.56-2.51.61-2.76.22-.39.54-.42,1.33,0,3,.09,2.77.18,3.22.26.71.28.75.57a9.06,9.06,0,0,1-.09,1.93c-.1,1-.24,2.12-.41,3.41a18.8,18.8,0,0,1-.61,3.1C110.16,47.18,109.81,47.51,109.36,47.39Zm0-4.94.14-1-4.42-.32-.27,1Zm.27-2.29.05-1.09-4.24-.18,0,1Z"/><path class="cls-1" d="M125.68,44.9l-.46-.23-.81-1.41-3.91.34c-1.15.11-2.31.19-3.45.25-.74-.1-1-.45-.91-1l3.53-6.09a1.19,1.19,0,0,1,.89-.28l.45.23a1.21,1.21,0,0,1,.23.86q-.27.54-2.52,4.49c.89-.11,1.7-.19,2.43-.25s1.45-.14,2.17-.23a2.11,2.11,0,0,1-.77-1.52l.23-.45a1,1,0,0,1,.9-.23l.46.23c.66,1,1.21,1.81,1.63,2.49a8.31,8.31,0,0,1,1,2.16l-.23.45A1,1,0,0,1,125.68,44.9Zm-2,11.89a3.12,3.12,0,0,1-1.26-.57c-.4-.28-.78-.58-1.14-.88a1.06,1.06,0,0,1-.22-.82l.22-.45a1.07,1.07,0,0,1,.82-.23c.3.16.59.32.86.5l0-1.49H119v3l-.22.46a1.07,1.07,0,0,1-.82.22l-.45-.22a2.47,2.47,0,0,1-.32-.77l0-9.36c0-.63.23-1,.64-1s1.54,0,3.38,0,2.88.06,3.14.09.37.28.36.77,0,3.81.11,10A.89.89,0,0,1,123.68,56.79ZM122.82,48l0-1L118.9,47l0,.9Zm.05,3.08V49.74l-3.88,0v1.36Zm10.35,5.32c-.81-.06-1.63-.13-2.43-.22a3.93,3.93,0,0,1-2.18-1,3.53,3.53,0,0,1-1.18-1.89,48.14,48.14,0,0,1-.3-5.76,1.19,1.19,0,0,1,.27-.63,1.05,1.05,0,0,1,.91-.23l.45.23a1.06,1.06,0,0,1,.23.82l-.05,1.4,5-.14.46.23a1.06,1.06,0,0,1,.22.82l-.22.45a1.52,1.52,0,0,1-.68.27l-4.79.14c.07.81.14,1.45.23,1.91a1.85,1.85,0,0,0,.77,1.15,3.24,3.24,0,0,0,1.62.54c.66.06,1.32.1,2,.14a2.47,2.47,0,0,1,.28-1.64,1,1,0,0,1,.81-.22L135,53a2.55,2.55,0,0,1,.24,1.25c0,.47,0,.91,0,1.31a.69.69,0,0,1-.5.75A5.36,5.36,0,0,1,133.22,56.38Zm-.5-9.94c-.75-.06-1.5-.13-2.23-.21a3.45,3.45,0,0,1-2-1,3.55,3.55,0,0,1-1-2.38c-.07-1-.16-2.71-.25-5.15a1.13,1.13,0,0,1,.28-.63,1.2,1.2,0,0,1,.86-.23l.45.23a1,1,0,0,1,.23.81l-.05,1c2.7-.15,4.45-.26,5.23-.32l.46.23a1,1,0,0,1,.22.81l-.22.45a26.39,26.39,0,0,1-5.6.59c.06.89.11,1.59.16,2.09A1.78,1.78,0,0,0,130,44a3.3,3.3,0,0,0,1.83.61c.73,0,1.65,0,2.77,0l.46.23a1.06,1.06,0,0,1,.22.82l-.22.45a2,2,0,0,1-1.09.32Z"/><path class="cls-1" d="M141.31,48.07a1.19,1.19,0,0,1-.63-.27,1.87,1.87,0,0,1-.27-.77,1.19,1.19,0,0,1,.27-.64,4.42,4.42,0,0,0,1-.61,17.63,17.63,0,0,0,2-2.29l-1.18-.59a1.11,1.11,0,0,1-.27-.86l.22-.45a1.06,1.06,0,0,1,.91-.23l1.34.64L146,39.25l-2.78-.09c-.18.46-.38.91-.59,1.35s-.41.9-.59,1.35a1.21,1.21,0,0,1-.86.23l-.45-.23a1,1,0,0,1-.23-.82,12.58,12.58,0,0,1,.75-1.76c.28-.56.53-1,.74-1.43a.84.84,0,0,1,.87-.52c.36,0,.75.07,1.16.09l3.3.07c.77.18,1,.6.77,1.27a32,32,0,0,1-1.5,3.5,14.75,14.75,0,0,1-2.23,3.28,16.43,16.43,0,0,1-2,2A2.23,2.23,0,0,1,141.31,48.07Zm2.45,8-.45-.23a1.78,1.78,0,0,1-.27-.77,1.19,1.19,0,0,1,.27-.63,6.7,6.7,0,0,0,1.75-1.26,16.2,16.2,0,0,0,1.35-1.39l-1.08-.59a1.08,1.08,0,0,1-.28-.86l.23-.45a1,1,0,0,1,.82-.23l1.17.59.55-1.43c.18-.47.34-.94.5-1.43l-2.22-.18c-.16.42-.32.85-.5,1.27s-.38.85-.59,1.27a1.1,1.1,0,0,1-.84.23l-.45-.23a1.51,1.51,0,0,1-.28-.73,13.2,13.2,0,0,1,.66-1.65l.58-1.19a2.21,2.21,0,0,1,.45-.63c.18-.16.63-.2,1.36-.11s1.39.16,2,.19a3.53,3.53,0,0,1,1.47.36c.41.21.5.69.28,1.45s-.55,1.65-1,2.69a10.86,10.86,0,0,1-1.36,2.58,10.12,10.12,0,0,1-1.63,1.75l-1.37,1.16A1.92,1.92,0,0,1,143.76,56.11Zm13,.18a5.85,5.85,0,0,1-1.4-.52q-.66-.35-1.29-.75a1,1,0,0,1-.23-.81l.23-.46a1,1,0,0,1,.81-.22l1.52.68a57.89,57.89,0,0,0,1.18-6.28c.27-2.11.45-4.29.54-6.52l-6.09,0a9.37,9.37,0,0,1-.46,1.25,13.34,13.34,0,0,1-.59,1.2,1,1,0,0,1-.81.22l-.46-.22a1.06,1.06,0,0,1-.22-.91c.39-.9.76-1.82,1.11-2.75s.66-1.86.93-2.8a1.09,1.09,0,0,1,.81-.23l.46.23a1.48,1.48,0,0,1,.22,1.09l-.27,1.13h6.55c.42,0,.65.42.68,1.23a23.71,23.71,0,0,1-.21,3.39q-.24,2.2-.68,5.43a31.4,31.4,0,0,1-.83,4.55,6.59,6.59,0,0,1-.68,1.68A1,1,0,0,1,156.72,56.29Zm-4.42-5.55c-.45,0-.71-.15-.79-.42s-.17-1.86-.29-4.79a.81.81,0,0,1,.81-.77h3.63a1.1,1.1,0,0,1,.71.32,1.54,1.54,0,0,1,.17,1.15q-.09.89-.18,2a14.46,14.46,0,0,1-.22,1.78.61.61,0,0,1-.76.55Zm2.59-1.49a8.94,8.94,0,0,0,.2-1.64c0-.51,0-1,.07-1.54h-2.58l.09,3.31Z"/><path class="cls-1" d="M179.75,56.88a3.07,3.07,0,0,1-1.25-.68,8.27,8.27,0,0,0-1.16-.86,1.06,1.06,0,0,1-.22-.82l.22-.45a1.21,1.21,0,0,1,.86-.23l1,.59.09-2.56-6.93.05.18,4.46-.23.46a1,1,0,0,1-.81.22l-.46-.22a3.14,3.14,0,0,1-.36-1.27l-.27-8c-.6,1-1.17,2.07-1.71,3.11l-1.62,3.12a1,1,0,0,1-.82.23l-.45-.23a1.2,1.2,0,0,1-.23-.86q1.41-3,3-5.84a34.33,34.33,0,0,0,2.58-6c-2.29,0-3.68,0-4.2,0a3,3,0,0,1-1.4-.3,1.12,1.12,0,0,1-.23-.84l.23-.45a3.43,3.43,0,0,1,1.86-.23h4.32a7.18,7.18,0,0,0,.34-1.42,6.7,6.7,0,0,1,.39-1.43,1,1,0,0,1,.81-.23l.46.23a1.48,1.48,0,0,1,.22,1.22l-.36,1.63,9.63-.22.45.22a1,1,0,0,1,.23.82l-.23.45a1.3,1.3,0,0,1-.68.3l-10,.22a7.54,7.54,0,0,1-.38,1.3,9.29,9.29,0,0,0-.43,1.29l8-.09c.57,0,.9.16,1,.53a59.59,59.59,0,0,1,0,6.12c-.09,3.7-.18,5.77-.28,6.19S180.41,57,179.75,56.88Zm-.46-10.26.09-1.23-7.25.09v1.23Zm0,3.49V48.38l-7.07.1.05,1.67Z"/><path class="cls-1" d="M207.16,46.12l-16.67,0a1.26,1.26,0,0,1-.64-.27,1,1,0,0,1-.22-.81l.22-.46.46-.22,17.13,0,.54.27a1.08,1.08,0,0,1,.23.82l-.23.45A1.51,1.51,0,0,1,207.16,46.12Z"/><path class="cls-1" d="M217.2,56.7l-.45-.23a2.28,2.28,0,0,1-.32-1.36l-.18-11.21-2.35,3a1.22,1.22,0,0,1-.86.23l-.46-.23a1.2,1.2,0,0,1-.22-.86c1-1.45,2.12-2.91,3.19-4.36a45.41,45.41,0,0,0,2.95-4.59,1,1,0,0,1,.81-.23l.45.23A1,1,0,0,1,220,38a19,19,0,0,1-1.92,3.3l.2,14.73-.23.45A1.1,1.1,0,0,1,217.2,56.7Zm14.64.14c-6.39-.1-9.68-.15-9.88-.17s-.33-.31-.41-.87-.25-6.26-.52-17.13l.23-.46.45-.22c6.87.16,10.53.28,11,.34s.69.4.74,1L233.65,56q-.06.9-.51.93A7.27,7.27,0,0,1,231.84,56.84Zm0-1.82-.18-15-8.86-.23L223.25,55Zm-6.59-1.81a.94.94,0,0,1-.89-.74,40.13,40.13,0,0,1-.34-4.36c0-.66.29-1,.86-1.08h1.82l-.09-2.23h-2.09a1.19,1.19,0,0,1-.63-.27,1.07,1.07,0,0,1-.27-.86l.22-.45a1.07,1.07,0,0,1,.82-.23l1.9,0a3.31,3.31,0,0,1,.27-1.91,1.07,1.07,0,0,1,.82-.22l.45.22a4,4,0,0,1,.23,2l1.47.07a3.36,3.36,0,0,1,1.32.29,1.06,1.06,0,0,1,.22.82l-.22.45a1.71,1.71,0,0,1-1,.27l-1.79-.13.09,2.13a5.75,5.75,0,0,1,1.87,0c.45.09.67.26.66.52s0,1.7,0,4.32c0,.74-.15,1.14-.4,1.18S228.55,53.15,225.25,53.21Zm4-1.93v-2.4l-3.42-.09.23,2.54Z"/><path class="cls-1" d="M239.07,44.49l-.45-.23a9,9,0,0,1-.5-2.43c-.06-.87-.11-1.73-.14-2.58a1,1,0,0,1,1.09-.77l7.14.19c0-.4,0-.8,0-1.21a1.89,1.89,0,0,1,.29-1.11,1.06,1.06,0,0,1,.82-.22l.45.22.23.46v1.95h8.31a1,1,0,0,1,.73.61,3.07,3.07,0,0,1,0,1.3c-.09.58-.17,1.09-.23,1.53a2.82,2.82,0,0,1-.45,1.2,1.08,1.08,0,0,1-.82.23l-.45-.23a1.21,1.21,0,0,1-.23-.86,6.82,6.82,0,0,0,.36-2l-15.4-.27.31,3.51-.22.45A1.07,1.07,0,0,1,239.07,44.49ZM249.2,57.06a7.78,7.78,0,0,1-2.72-2.22l0-.54.22-.46a1.07,1.07,0,0,1,.82-.22A8.61,8.61,0,0,1,249,54.84a6.9,6.9,0,0,0,.09-1.13c0-.39,0-1.17-.13-2.33a17.34,17.34,0,0,1-3.58,2.33A16.73,16.73,0,0,1,241.52,55a1.26,1.26,0,0,1-.64-.27,1.08,1.08,0,0,1-.22-.82l.22-.45A26.19,26.19,0,0,0,244.69,52a12.11,12.11,0,0,0,3.47-2.46l-.27-.54a14.72,14.72,0,0,1-3.2,1.9A26.87,26.87,0,0,1,241.61,52l-.45-.23a1,1,0,0,1-.23-.81l.23-.46c1-.48,2-.92,3-1.33A8.6,8.6,0,0,0,247,47.34l-.95-.77c-.7.52-1.4,1-2.11,1.45a8.73,8.73,0,0,1-2.26,1l-.46-.22A1.07,1.07,0,0,1,241,48l.22-.45c.92-.54,1.82-1.1,2.7-1.65a14.3,14.3,0,0,0,2.44-2l-2.94,0a3.11,3.11,0,0,1-1.68-.36,1.05,1.05,0,0,1-.25-.82l.25-.45a1.41,1.41,0,0,1,1.05-.23l10.58.14.45.22a1.07,1.07,0,0,1,.23.82l-.23.45a1.51,1.51,0,0,1-.7.27h-4.22c-.57.58-1,1.08-1.36,1.5a8.66,8.66,0,0,1,1.95,2.81l2.4-1.86a1.94,1.94,0,0,1,1.57-.63l.45.22a1.07,1.07,0,0,1,.23.82l-.23.45-2.65,2.13a16.78,16.78,0,0,0,1.89,1.88,34.18,34.18,0,0,0,3.57,2.49,1.08,1.08,0,0,1,.23.82l-.23.45a1.21,1.21,0,0,1-.86.23,16.08,16.08,0,0,1-2.64-1.65,30.51,30.51,0,0,1-2.46-2.09,24.85,24.85,0,0,1,.09,2.73,5.58,5.58,0,0,1-.23,1.39,7.54,7.54,0,0,1-.44,1.11C250,57.11,249.67,57.21,249.2,57.06Z"/><path class="cls-1" d="M262.93,57.61l-.45-.23a1.21,1.21,0,0,1-.23-.86l.23-.46.68-1.22a1.26,1.26,0,0,1-.66-.38,1.17,1.17,0,0,1-.31-.91,1.37,1.37,0,0,1,.47-1,1.17,1.17,0,0,1,1.16-.22,2.15,2.15,0,0,1,1.11.67,1.61,1.61,0,0,1,.18,1.45,8,8,0,0,1-.54,1.63,7,7,0,0,1-.78,1.24A1.1,1.1,0,0,1,262.93,57.61Z"/><path class="cls-1" d="M85.36,81.12l-16.67-.05a1.23,1.23,0,0,1-.64-.27,1,1,0,0,1-.22-.81l.22-.46.46-.22,17.12,0,.55.27a1.08,1.08,0,0,1,.23.82l-.23.45A1.51,1.51,0,0,1,85.36,81.12Z"/><path class="cls-1" d="M95.4,91.7,95,91.47a2.28,2.28,0,0,1-.32-1.36L94.45,78.9l-2.35,3a1.22,1.22,0,0,1-.86.23l-.46-.23a1.2,1.2,0,0,1-.22-.86c1-1.45,2.12-2.91,3.19-4.36a45.41,45.41,0,0,0,3-4.59,1,1,0,0,1,.81-.23l.45.23a1,1,0,0,1,.23.91,18.55,18.55,0,0,1-1.93,3.3L96.47,91l-.23.45A1.1,1.1,0,0,1,95.4,91.7Zm14.64.14q-9.58-.14-9.88-.17c-.19,0-.33-.31-.41-.87s-.25-6.26-.52-17.13l.23-.46.45-.22c6.88.16,10.53.28,11,.34s.69.4.74,1L111.85,91q-.06.9-.51.93A7.27,7.27,0,0,1,110,91.84ZM110,90l-.18-15L101,74.75,101.45,90Zm-6.59-1.81a.94.94,0,0,1-.89-.74,40.13,40.13,0,0,1-.34-4.36c0-.66.29-1,.86-1.08h1.82l-.09-2.23h-2.09a1.12,1.12,0,0,1-.63-.27,1.11,1.11,0,0,1-.27-.86l.22-.45a1.07,1.07,0,0,1,.82-.23l1.9.05a3.31,3.31,0,0,1,.27-1.91,1.07,1.07,0,0,1,.82-.22l.45.22a4,4,0,0,1,.23,2l1.47.07a3.36,3.36,0,0,1,1.32.29,1.06,1.06,0,0,1,.22.82l-.22.45a1.71,1.71,0,0,1-1,.27l-1.79-.13.09,2.13a5.75,5.75,0,0,1,1.87,0c.45.09.67.26.66.52s0,1.7,0,4.32c0,.74-.15,1.14-.4,1.18S106.75,88.15,103.45,88.21Zm4-1.92V83.88L104,83.79l.23,2.54Z"/><path class="cls-1" d="M134.63,79.58l-.46-.23a95,95,0,0,0-8.58-6.27q-3.63,2.58-4.68,3.38c-.7.54-1.7,1.32-3,2.35a1.21,1.21,0,0,1-.86.23l-.46-.23a1.06,1.06,0,0,1-.22-.82l.27-.5q2.22-1.69,5.2-3.86c2-1.44,3.14-2.26,3.45-2.45a1,1,0,0,1,1,0q.54.3,9,6.65a1.44,1.44,0,0,1,.32,1l-.23.45A1,1,0,0,1,134.63,79.58ZM121.1,83.84a11.65,11.65,0,0,1-1.43.07c-.34,0-.55-.31-.62-.87s-.16-2-.28-4.19q0-.81.36-.9t12.46,0c.65,0,.89.44.73,1.27l.13,3.92c.05.55-.32.79-1.11.73ZM130.87,92q-9.09.18-9.62.14c-.36,0-.55-.19-.58-.48s-.23-2.34-.61-6.16c0-.68.23-1,.82-1q9.87.09,10.44.18a.67.67,0,0,1,.64.56,20.06,20.06,0,0,1-.05,2.94q-.14,2.46-.24,3.18A.69.69,0,0,1,130.87,92Zm-6.14-9.45,0-3.35-4.12,0,.22,3.36ZM123,81.93a1.21,1.21,0,0,1-.72-.49,2.45,2.45,0,0,1-.77-1.41.83.83,0,0,1,.45-.45h.41a10.35,10.35,0,0,1,1.31,1.49v.37a.83.83,0,0,1-.45.45Zm7.07,5.37.05-1-8.25-.1.09,1.14Zm-.13,2.9V89.07l-7.71.05.09,1.08ZM123.14,77l-.5-.27a.76.76,0,0,1-.13-.59.82.82,0,0,1,.45-.48l5.48-.18.45.27a.69.69,0,0,1-.36,1.11Zm7.48,5.57-.09-3.35h-4.08l0,3.35Zm-2.68-.45a.83.83,0,0,1-.45-.45v-.41a7.65,7.65,0,0,1,1.27-1.59h.54a.86.86,0,0,1,.46.46v.36c-.46.54-.94,1.09-1.45,1.63Z"/><path class="cls-1" d="M142.9,91.65l-.45-.22a1.07,1.07,0,0,1-.23-.82l.23-.45a21.8,21.8,0,0,0,1.67-3.51,12.74,12.74,0,0,0-1.15-.86l-1.07-.73c-.3-.21-.4-.68-.29-1.4s.23-1.64.36-2.74.24-2.23.3-3.38l-1.18,0a2.54,2.54,0,0,1-1.09-.3,1,1,0,0,1-.23-.81L140,76a1.45,1.45,0,0,1,1.09-.25l1.36.07a13.66,13.66,0,0,0,.16-1.67,4,4,0,0,1,.34-1.57,1,1,0,0,1,.81-.22l.45.22a1.68,1.68,0,0,1,.25,1.32l-.25,2,2.34,0c0-.44,0-.87,0-1.29a1.9,1.9,0,0,1,.29-1.13,1.06,1.06,0,0,1,.82-.23l.45.23.23.45v2a2.15,2.15,0,0,1,1.45.22A1.08,1.08,0,0,1,150,77l-.22.45a2.31,2.31,0,0,1-1.59.28,41.72,41.72,0,0,1-.75,4.19c-.31,1.37-.69,2.74-1.11,4.1l2,1.36a1.23,1.23,0,0,1,.27.93l-.22.45a1.08,1.08,0,0,1-.82.23c-.63-.43-1.27-.82-1.9-1.18-.27.6-.54,1.21-.8,1.81a7.82,7.82,0,0,1-1,1.72A1.3,1.3,0,0,1,142.9,91.65Zm1.88-6.86a35.16,35.16,0,0,0,1-3.51,36.59,36.59,0,0,0,.63-3.65l-2.38,0c-.06,1.09-.15,2.17-.27,3.22s-.26,2.12-.41,3.17ZM154.89,92a1.58,1.58,0,0,1-.82-.45,13.21,13.21,0,0,1-1-1,7.28,7.28,0,0,1-.9-1.31l0-.54.23-.46a1,1,0,0,1,.81-.22l.46.22a5,5,0,0,0,1,1.36,11.84,11.84,0,0,0,.41-2.06,18.29,18.29,0,0,0-.14-4.1c-1.39.06-2.52.12-3.4.18s-1.75.15-2.63.27l-.45-.22a1.08,1.08,0,0,1-.23-.82l.23-.45a12.66,12.66,0,0,1,3-.55l3.17-.18a2.47,2.47,0,0,0-.91-1.71,3.3,3.3,0,0,1-1-1c-.16-.29-.08-.64.24-1.07.48-.51,1-1,1.43-1.57a13.79,13.79,0,0,0,1.29-1.8,23.63,23.63,0,0,0-4.08.22l-.59-.27a1.11,1.11,0,0,1-.27-.86l.22-.45a2.93,2.93,0,0,1,1.41-.45l4.33.09a3.59,3.59,0,0,1,1.22.19c.36.13.45.44.27.94a44.73,44.73,0,0,1-3.37,4.55,18,18,0,0,0,1,1.55,3.48,3.48,0,0,1,.57,1.56l3.45,0a1.19,1.19,0,0,1,.63.27,1.08,1.08,0,0,1,.23.82l-.23.45a1.82,1.82,0,0,1-.77.27l-3.08-.09a25.88,25.88,0,0,1,.11,4.06,14,14,0,0,1-.36,2.42,4,4,0,0,1-.69,1.57A1.39,1.39,0,0,1,154.89,92Z"/><path class="cls-1" d="M167.26,91.65l-.45-.22a1.07,1.07,0,0,1-.23-.82l.23-.45a21.8,21.8,0,0,0,1.67-3.51,12.74,12.74,0,0,0-1.15-.86l-1.07-.73c-.3-.21-.4-.68-.29-1.4s.23-1.64.36-2.74.24-2.23.3-3.38l-1.18,0a2.54,2.54,0,0,1-1.09-.3,1,1,0,0,1-.23-.81l.23-.46a1.45,1.45,0,0,1,1.09-.25l1.36.07A13.66,13.66,0,0,0,167,74.1a4,4,0,0,1,.34-1.57,1,1,0,0,1,.81-.22l.46.22a1.67,1.67,0,0,1,.24,1.32l-.24,2,2.33,0c0-.44,0-.87,0-1.29a1.9,1.9,0,0,1,.29-1.13,1.06,1.06,0,0,1,.82-.23l.45.23.23.45v2a2.15,2.15,0,0,1,1.45.22,1.08,1.08,0,0,1,.22.82l-.22.45a2.31,2.31,0,0,1-1.59.28,41.72,41.72,0,0,1-.75,4.19c-.31,1.37-.69,2.74-1.11,4.1l2,1.36a1.23,1.23,0,0,1,.27.93l-.22.45a1.08,1.08,0,0,1-.82.23c-.63-.43-1.27-.82-1.9-1.18-.27.6-.54,1.21-.8,1.81a7.82,7.82,0,0,1-1,1.72A1.3,1.3,0,0,1,167.26,91.65Zm1.88-6.86a35.16,35.16,0,0,0,1-3.51,36.59,36.59,0,0,0,.63-3.65l-2.38,0c-.06,1.09-.15,2.17-.27,3.22s-.25,2.12-.41,3.17ZM179.25,92a1.58,1.58,0,0,1-.82-.45,13.21,13.21,0,0,1-1-1,7.28,7.28,0,0,1-.9-1.31l-.05-.54.23-.46a1,1,0,0,1,.81-.22l.46.22a5,5,0,0,0,1,1.36,11.84,11.84,0,0,0,.41-2.06,18.29,18.29,0,0,0-.14-4.1c-1.39.06-2.52.12-3.4.18s-1.75.15-2.63.27l-.45-.22a1.08,1.08,0,0,1-.23-.82l.23-.45a12.66,12.66,0,0,1,3-.55l3.17-.18a2.47,2.47,0,0,0-.91-1.71,3.3,3.3,0,0,1-1-1c-.16-.29-.08-.64.24-1.07.48-.51,1-1,1.43-1.57a13.79,13.79,0,0,0,1.29-1.8,23.63,23.63,0,0,0-4.08.22l-.59-.27a1.11,1.11,0,0,1-.27-.86l.22-.45a2.93,2.93,0,0,1,1.41-.45l4.33.09a3.59,3.59,0,0,1,1.22.19c.36.13.45.44.27.94a44.73,44.73,0,0,1-3.37,4.55,18,18,0,0,0,1,1.55,3.48,3.48,0,0,1,.57,1.56l3.45,0a1.19,1.19,0,0,1,.63.27,1.08,1.08,0,0,1,.23.82l-.23.45a1.82,1.82,0,0,1-.77.27l-3.08-.09a25.88,25.88,0,0,1,.11,4.06,14,14,0,0,1-.36,2.42,4,4,0,0,1-.69,1.57A1.39,1.39,0,0,1,179.25,92Z"/><path class="cls-1" d="M207.12,82.43l-.45-.22a1,1,0,0,1-.23-.82,11.9,11.9,0,0,0,.27-1.47c.06-.5.14-1,.23-1.47l-15.82.49c.06.58.12,1,.18,1.43s.14.75.23,1.11l-.27.5a1.21,1.21,0,0,1-.86.23l-.46-.23a4.41,4.41,0,0,1-.49-1.88c0-.68,0-1.26,0-1.74a1,1,0,0,1,.5-1,4.52,4.52,0,0,1,1.61-.25c.74,0,1.48-.05,2.22-.11l-.32-1.83a1.19,1.19,0,0,1,.27-.64,1.21,1.21,0,0,1,.86-.23l.46.23a6.8,6.8,0,0,1,.68,2.34l1.67-.1c-.18-.8-.31-1.56-.4-2.28l.22-.46a1.07,1.07,0,0,1,.82-.22l.45.22a11.35,11.35,0,0,1,.86,2.65h1.23c.09-.51.2-1,.34-1.53a9,9,0,0,1,.52-1.48,1,1,0,0,1,.81-.23l.46.23a1,1,0,0,1,.22.91l-.59,2.06a53.33,53.33,0,0,1,5.81,0,.79.79,0,0,1,.62.56,3.11,3.11,0,0,1-.06,1.33,12,12,0,0,0-.23,1.83,4.37,4.37,0,0,1-.45,1.77A1.11,1.11,0,0,1,207.12,82.43ZM192.75,92.65a1.19,1.19,0,0,1-.63-.27,1.06,1.06,0,0,1-.23-.82l.23-.45,2.61-.57a5.56,5.56,0,0,0,2.4-1.2,4.44,4.44,0,0,0-1.09-.4,1.17,1.17,0,0,1-.91.31l-.45-.22a1.21,1.21,0,0,1-.23-.86l.23-.46c.94-1.55,1.51-2.46,1.73-2.72s.64-.3,1.25-.13a23,23,0,0,0,2.28.45c.9.14,1.79.31,2.67.52a.68.68,0,0,1,.23.86c-.4.59-.94,1.32-1.63,2.2.87.27,1.77.51,2.7.7l2.76.61a1.08,1.08,0,0,1,.22.82l-.22.45a1.44,1.44,0,0,1-.87.28,26.55,26.55,0,0,1-3.33-.68c-1.08-.31-2.16-.59-3.21-.87a19.51,19.51,0,0,1-3.09,1.7A8.81,8.81,0,0,1,192.75,92.65Zm-.13-8-.45-.23a1.16,1.16,0,0,1-.23-.86,16.34,16.34,0,0,1,1.18-3.35A1.12,1.12,0,0,1,194,80l.45.23a1,1,0,0,1,.22.9l-1.17,3.31A1.15,1.15,0,0,1,192.62,84.7ZM193.3,74a1.23,1.23,0,0,1-.64-.27,1.06,1.06,0,0,1-.22-.82l.22-.45a35.06,35.06,0,0,1,5.58-1c1.88-.19,3.76-.35,5.64-.5l.45.22a1.07,1.07,0,0,1,.23.82l-.23.45c-1.81.3-3.65.54-5.5.7A46.7,46.7,0,0,0,193.3,74Zm8.81,11a10.52,10.52,0,0,1-2.81-.37,5,5,0,0,1-2.17-1.13A5.87,5.87,0,0,1,196,82.09a3.39,3.39,0,0,1-.41-1.47l.23-.45a1.21,1.21,0,0,1,.86-.23l.45.23.45,1.06a3.42,3.42,0,0,0,1.07,1.16,4.48,4.48,0,0,0,2.31.77,12.8,12.8,0,0,0,2.63,0q1.16-.14,2-.27l.54.27a1,1,0,0,1,.23.81l-.23.46a6.51,6.51,0,0,1-1.91.52A14.5,14.5,0,0,1,202.11,85Zm-2.79,3.15a4.44,4.44,0,0,0,.93-1l-2.81-.46-.27.7A8.94,8.94,0,0,0,199.32,88.17Zm1.16-5.42-.45-.23a4.46,4.46,0,0,1-.59-2.13l.22-.45a1.24,1.24,0,0,1,.87-.23l.45.23a13.3,13.3,0,0,1,.54,2.13l-.22.45A1,1,0,0,1,200.48,82.75Zm3,.18-.45-.22-.82-2.45.23-.46a1,1,0,0,1,.81-.22l.46.22a6.37,6.37,0,0,1,.61,1.23,3.85,3.85,0,0,1,.2,1.22l-.22.46A1.08,1.08,0,0,1,203.47,82.93Z"/><path class="cls-1" d="M218.5,91.86a2.8,2.8,0,0,1-1.15-.59l-1-.86a1.07,1.07,0,0,1-.23-.82l.23-.45a1,1,0,0,1,.82-.25l.61.27-.09-3.28c-.62.15-1.2.3-1.72.46s-1.07.29-1.61.4a1.19,1.19,0,0,1-.64-.27,1.12,1.12,0,0,1-.25-.82l.23-.45c.63-.21,1.28-.41,1.93-.59l2-.55V79.8l-3.74,0a1.44,1.44,0,0,1-.66-.25,1,1,0,0,1-.23-.81l.23-.46.43-.25,4,0V74.8a8.1,8.1,0,0,0-1.56.55,8.34,8.34,0,0,1-1.39.54l-.45-.23a1.11,1.11,0,0,1-.25-.82l.23-.45a14,14,0,0,1,3.41-1.5,35.5,35.5,0,0,1,3.61-.83l.45.22a1.08,1.08,0,0,1,.23.82l-.23.45a5.75,5.75,0,0,1-1.11.35,9.88,9.88,0,0,0-1.13.33l0,3.79,5.8-.1c-.13-.93-.25-1.81-.35-2.63s-.21-1.65-.35-2.46a1.23,1.23,0,0,1,.27-.64,1,1,0,0,1,.8-.22l.47.2A15.34,15.34,0,0,1,226.5,75c.1,1,.23,2,.4,2.89l4.06,0,.47.23a1,1,0,0,1,.23.81l-.23.46a1.46,1.46,0,0,1-.65.27h-3.56a18.54,18.54,0,0,0,.59,2.15l.72,2.11a5,5,0,0,0,1.1-1.32c.27-.47.53-.93.81-1.4a1.11,1.11,0,0,1,.83-.23l.48.23A1,1,0,0,1,232,82a9.53,9.53,0,0,1-1,1.77,25.09,25.09,0,0,1-1.64,2.08c.24.58.51,1.15.8,1.72a15.91,15.91,0,0,0,1,1.68L232.29,88a1.07,1.07,0,0,1,.82-.22l.45.2a1.12,1.12,0,0,1,.25.82c-.27.45-.88,1.3-1.83,2.56-.31.34-.59.44-.86.29a18.18,18.18,0,0,1-2.07-2.41,9.3,9.3,0,0,1-1-1.89c-.72.71-1.44,1.34-2.14,1.91a7.56,7.56,0,0,1-2.3,1.28l-.47-.23a1,1,0,0,1-.23-.81l.23-.45a24.48,24.48,0,0,0,2.11-1.57,11.09,11.09,0,0,0,1.9-2c-.41-1.13-.79-2.21-1.14-3.23a11.08,11.08,0,0,1-.61-2.57l-6.12.09V83.5a14.82,14.82,0,0,1,2.09-.32l.45.23a1,1,0,0,1,.23.81l-.21.46a2.86,2.86,0,0,1-1.2.37,5,5,0,0,0-1.24.26l.13,5.82C219.57,91.74,219.21,92,218.5,91.86Zm11.14-15-.45-.22c-.2-.36-.42-.72-.66-1.07a2.62,2.62,0,0,1-.45-1.15l.23-.46a1.15,1.15,0,0,1,.88-.24l.45.22c.21.36.44.72.67,1.06a2,2,0,0,1,.35,1.16l-.2.46A1,1,0,0,1,229.64,76.81Z"/><path class="cls-1" d="M238.35,87.62c-.52.06-.8-.07-.84-.41s-.13-3.73-.25-10.21c0-.73.28-1.13.78-1.19a7.74,7.74,0,0,1,2.12.1,6.23,6.23,0,0,1,.76-1.63,11.3,11.3,0,0,0,.85-1.57,1,1,0,0,1,.81-.22l.46.22a1.07,1.07,0,0,1,.22.91,8.22,8.22,0,0,1-.56,1.16,10,10,0,0,0-.61,1.17,19.59,19.59,0,0,1,3,.13c.34.08.48.51.44,1.28q-.18,9.24-.36,9.8c-.12.37-.62.52-1.48.46Zm5.23-7.36.09-2.49L239,77.63l0,2.67Zm0,5.53,0-3.76-4.42,0,.14,3.76Zm11.53,6a2.28,2.28,0,0,1-1-.57l-.84-.84c-.27-.27-.57-.55-.89-.84a1.25,1.25,0,0,1-.44-1.06l.22-.46a1.12,1.12,0,0,1,.84-.22,8.47,8.47,0,0,1,1.73,1.49q.4-2.93.67-6.09c.19-2.12.37-4.09.55-5.94l-6.68,0a8.7,8.7,0,0,1-.41,1.72c-.18.48-.41,1-.68,1.63a1.07,1.07,0,0,1-.82.23l-.45-.23a1.05,1.05,0,0,1-.23-.91,12.8,12.8,0,0,0,1-3.7,26.89,26.89,0,0,1,.93-4.16,1.06,1.06,0,0,1,.82-.22l.45.22a1.06,1.06,0,0,1,.23.91c-.13.45-.23.9-.32,1.36s-.17.9-.23,1.36l7.32,0c.53-.06.8.27.82,1-.31,3.35-.53,6.15-.68,8.39a27.42,27.42,0,0,1-.75,5.25C255.92,91.3,255.52,91.87,255.07,91.75Zm-3.24-7-.45-.22-1.77-2a1,1,0,0,1-.23-.81l.23-.46a1,1,0,0,1,.9-.22l.46.22,1.58,2a1,1,0,0,1,.34.86l-.25.46A1,1,0,0,1,251.83,84.74Z"/><path class="cls-1" d="M279.93,91.07l-16.59-.14-.45-.23a1.21,1.21,0,0,1-.23-.86l.23-.45.45-.23,8.27,0V83.48l-5.48,0a1.22,1.22,0,0,1-.66-.27,1,1,0,0,1-.22-.82l.22-.45.45-.23,5.65,0-.14-4.58-8,.18-.46-.22a1.22,1.22,0,0,1-.22-.86l.22-.48.46-.23q15-.18,15.7-.13a2.71,2.71,0,0,1,1.2.36,1.15,1.15,0,0,1,.23.84l-.23.45a1.26,1.26,0,0,1-1,.23,48.46,48.46,0,0,0-6.09-.14l.13,4.67c2.15,0,3.45,0,3.91.07a2.58,2.58,0,0,1,1.24.34,1,1,0,0,1,.22.81l-.22.46a1.1,1.1,0,0,1-.93.22l-4.17-.13v5.64h6.73l.5.27a1.11,1.11,0,0,1,.27.86l-.23.45A1.51,1.51,0,0,1,279.93,91.07Zm-6.64-16.18c-.67-.36-1.34-.75-2-1.16a19.15,19.15,0,0,0-2.06-1.06,1.06,1.06,0,0,1-.23-.82l.23-.45a1.1,1.1,0,0,1,1-.27q1,.45,1.95,1c.63.37,1.25.76,1.86,1.18a1.2,1.2,0,0,1,.22.86l-.22.46A1.48,1.48,0,0,1,273.29,74.89Z"/><path class="cls-1" d="M288.2,90.57a1.13,1.13,0,0,1-.63-.28,1,1,0,0,1-.23-.81l.23-.45a8.8,8.8,0,0,0,1.45-1.1,24.15,24.15,0,0,0,2.07-2.48,25.13,25.13,0,0,0,2.82-5.15,26.46,26.46,0,0,0,1.92-6.91,1.08,1.08,0,0,1,.82-.22l.45.22a1.68,1.68,0,0,1,.23,1.27c-.18,1-.4,2-.66,3s-.53,2-.84,2.94a8.79,8.79,0,0,0,1.73,2.13c.69.63,1.44,1.34,2.24,2.11a19.63,19.63,0,0,0,2.46,2c.84.59,1.89,1.3,3.16,2.15a1.09,1.09,0,0,1,.23.81l-.23.45a1.16,1.16,0,0,1-.86.23c-.91-.54-1.82-1.14-2.73-1.79a31.28,31.28,0,0,1-2.85-2.3c-1-.88-1.77-1.61-2.37-2.18s-1.18-1.15-1.73-1.73c-.48.88-1,1.74-1.49,2.59a29.65,29.65,0,0,1-1.86,2.65,14.12,14.12,0,0,1-2.24,2.31A2,2,0,0,1,288.2,90.57Z"/></svg>