<svg width="145" height="115" viewBox="0 0 145 115" fill="none" xmlns="http://www.w3.org/2000/svg">
<circle cx="5" cy="5" r="5" fill="#DEC39E"/>
<circle cx="5" cy="65" r="5" fill="#DEC39E"/>
<circle cx="5" cy="35" r="5" fill="#DEC39E"/>
<circle cx="5" cy="95" r="5" fill="#DEC39E"/>
<circle cx="5" cy="20" r="5" fill="#DEC39E"/>
<circle cx="5" cy="80" r="5" fill="#DEC39E"/>
<circle cx="5" cy="50" r="5" fill="#DEC39E"/>
<circle cx="5" cy="110" r="5" fill="#DEC39E"/>
<circle cx="80" cy="5" r="5" fill="#DEC39E"/>
<circle cx="80" cy="65" r="5" fill="#DEC39E"/>
<circle cx="80" cy="35" r="5" fill="#DEC39E"/>
<circle cx="80" cy="95" r="5" fill="#DEC39E"/>
<circle cx="80" cy="20" r="5" fill="#DEC39E"/>
<circle cx="80" cy="80" r="5" fill="#DEC39E"/>
<circle cx="80" cy="50" r="5" fill="#DEC39E"/>
<circle cx="80" cy="110" r="5" fill="#DEC39E"/>
<circle cx="20" cy="5" r="5" fill="#DEC39E"/>
<circle cx="20" cy="65" r="5" fill="#DEC39E"/>
<circle cx="20" cy="35" r="5" fill="#DEC39E"/>
<circle cx="20" cy="95" r="5" fill="#DEC39E"/>
<circle cx="20" cy="20" r="5" fill="#DEC39E"/>
<circle cx="20" cy="80" r="5" fill="#DEC39E"/>
<circle cx="20" cy="50" r="5" fill="#DEC39E"/>
<circle cx="20" cy="110" r="5" fill="#DEC39E"/>
<circle cx="95" cy="5" r="5" fill="#DEC39E"/>
<circle cx="95" cy="65" r="5" fill="#DEC39E"/>
<circle cx="95" cy="35" r="5" fill="#DEC39E"/>
<circle cx="95" cy="95" r="5" fill="#DEC39E"/>
<circle cx="95" cy="20" r="5" fill="#DEC39E"/>
<circle cx="95" cy="80" r="5" fill="#DEC39E"/>
<circle cx="95" cy="50" r="5" fill="#DEC39E"/>
<circle cx="95" cy="110" r="5" fill="#DEC39E"/>
<circle cx="35" cy="5" r="5" fill="#DEC39E"/>
<circle cx="35" cy="65" r="5" fill="#DEC39E"/>
<circle cx="35" cy="35" r="5" fill="#DEC39E"/>
<circle cx="35" cy="95" r="5" fill="#DEC39E"/>
<circle cx="35" cy="20" r="5" fill="#DEC39E"/>
<circle cx="35" cy="80" r="5" fill="#DEC39E"/>
<circle cx="35" cy="50" r="5" fill="#DEC39E"/>
<circle cx="35" cy="110" r="5" fill="#DEC39E"/>
<circle cx="110" cy="5" r="5" fill="#DEC39E"/>
<circle cx="110" cy="65" r="5" fill="#DEC39E"/>
<circle cx="110" cy="35" r="5" fill="#DEC39E"/>
<circle cx="110" cy="95" r="5" fill="#DEC39E"/>
<circle cx="110" cy="20" r="5" fill="#DEC39E"/>
<circle cx="110" cy="80" r="5" fill="#DEC39E"/>
<circle cx="110" cy="50" r="5" fill="#DEC39E"/>
<circle cx="110" cy="110" r="5" fill="#DEC39E"/>
<circle cx="50" cy="5" r="5" fill="#DEC39E"/>
<circle cx="50" cy="65" r="5" fill="#DEC39E"/>
<circle cx="50" cy="35" r="5" fill="#DEC39E"/>
<circle cx="50" cy="95" r="5" fill="#DEC39E"/>
<circle cx="50" cy="20" r="5" fill="#DEC39E"/>
<circle cx="50" cy="80" r="5" fill="#DEC39E"/>
<circle cx="50" cy="50" r="5" fill="#DEC39E"/>
<circle cx="50" cy="110" r="5" fill="#DEC39E"/>
<circle cx="125" cy="5" r="5" fill="#DEC39E"/>
<circle cx="125" cy="65" r="5" fill="#DEC39E"/>
<circle cx="125" cy="35" r="5" fill="#DEC39E"/>
<circle cx="125" cy="95" r="5" fill="#DEC39E"/>
<circle cx="125" cy="20" r="5" fill="#DEC39E"/>
<circle cx="125" cy="80" r="5" fill="#DEC39E"/>
<circle cx="125" cy="50" r="5" fill="#DEC39E"/>
<circle cx="125" cy="110" r="5" fill="#DEC39E"/>
<circle cx="65" cy="5" r="5" fill="#DEC39E"/>
<circle cx="65" cy="65" r="5" fill="#DEC39E"/>
<circle cx="65" cy="35" r="5" fill="#DEC39E"/>
<circle cx="65" cy="95" r="5" fill="#DEC39E"/>
<circle cx="65" cy="20" r="5" fill="#DEC39E"/>
<circle cx="65" cy="80" r="5" fill="#DEC39E"/>
<circle cx="65" cy="50" r="5" fill="#DEC39E"/>
<circle cx="65" cy="110" r="5" fill="#DEC39E"/>
<circle cx="140" cy="5" r="5" fill="#DEC39E"/>
<circle cx="140" cy="65" r="5" fill="#DEC39E"/>
<circle cx="140" cy="35" r="5" fill="#DEC39E"/>
<circle cx="140" cy="95" r="5" fill="#DEC39E"/>
<circle cx="140" cy="20" r="5" fill="#DEC39E"/>
<circle cx="140" cy="80" r="5" fill="#DEC39E"/>
<circle cx="140" cy="50" r="5" fill="#DEC39E"/>
<circle cx="140" cy="110" r="5" fill="#DEC39E"/>
</svg>
