<svg width="41" height="30" viewBox="0 0 41 30" fill="#dec39e" xmlns="http://www.w3.org/2000/svg">
<path fill-rule="evenodd"  clip-rule="evenodd" d="M15.3348 12.7961C17.2239 12.4818 18.0866 9.36821 17.2617 5.84175C16.4368 2.3153 14.2366 -0.288633 12.3475 0.0257164C10.4584 0.340065 9.59573 3.45365 10.4206 6.98011C11.2456 10.5066 13.4457 13.1105 15.3348 12.7961ZM7.41222 12.628C8.91524 15.247 8.69809 17.9562 6.92721 18.6791C5.15633 19.4021 2.50232 17.865 0.999301 15.246C-0.503717 12.627 -0.286573 9.91788 1.48431 9.19493C3.25518 8.47199 5.9092 10.009 7.41222 12.628ZM18.7929 14.2394C19.7933 13.1546 21.7371 13.1546 22.7375 14.2394L34.1323 26.5958C35.5536 28.1371 33.9401 30.339 31.67 29.956L20.7652 28.1166L9.86044 29.956C7.59029 30.339 5.97681 28.1371 7.39815 26.5958L18.7929 14.2394ZM29.8332 7.49938C28.4755 10.9065 25.8951 13.2491 24.07 12.7317C22.2448 12.2143 21.8659 9.03279 23.2237 5.62567C24.5815 2.21854 27.1618 -0.124038 28.987 0.393373C30.8122 0.910784 31.191 4.09225 29.8332 7.49938ZM31.6951 17.9577C33.0243 18.9418 35.9203 17.9923 38.1636 15.8369C40.4068 13.6815 41.1477 11.1364 39.8185 10.1524C38.4893 9.16828 35.5933 10.1178 33.35 12.2732C31.1068 14.4286 30.3659 16.9737 31.6951 17.9577Z" fill="#818181"/>
</svg>
